<svg width="94" height="99" viewBox="0 0 94 99" fill="none" xmlns="http://www.w3.org/2000/svg">
<g clip-path="url(#clip0_2343_108)">
<path opacity="0.290196" d="M44 6H44.25H49.75H50V7H49.75H44.25H44V6Z" fill="#434343" stroke="#434343"/>
<path opacity="0.290196" d="M38 7H39V8H38V7Z" fill="#434343" stroke="#434343"/>
<path opacity="0.290196" d="M55 7H57V8H55V7Z" fill="#434343" stroke="#434343"/>
<path opacity="0.290196" d="M34 8H35V9H34V8Z" fill="#434343" stroke="#434343"/>
<path opacity="0.290196" d="M59 8H60V9H59V8Z" fill="#434343" stroke="#434343"/>
<path opacity="0.290196" d="M31 9H32V10H31V9Z" fill="#434343" stroke="#434343"/>
<path opacity="0.290196" d="M62 9H63V10H62V9Z" fill="#434343" stroke="#434343"/>
<path opacity="0.290196" d="M64 10H65V11H64V10Z" fill="#434343" stroke="#434343"/>
<path opacity="0.290196" d="M25 12H26V13H25V12Z" fill="#434343" stroke="#434343"/>
<path opacity="0.290196" d="M68 12H69V13H68V12Z" fill="#434343" stroke="#434343"/>
<g opacity="0.290196">
<path d="M23 13H24V14H23V15H22V14H23V13Z" fill="#434343"/>
<path d="M23 14H24V13H23V14ZM23 14V15H22V14H23Z" stroke="#434343"/>
</g>
<path opacity="0.290196" d="M70 13H71V14H70V13Z" fill="#434343" stroke="#434343"/>
<path opacity="0.290196" d="M45 15H45.25H47.75H48V16H47.75H45.25H45V15Z" fill="#434343" stroke="#434343"/>
<g opacity="0.290196">
<path d="M73 15H74V16H75V17H76V18H77V19H76V18H75V17H74V16H73V15Z" fill="#434343"/>
<path d="M74 16V15H73V16H74ZM74 16H75V17M74 16V17H75M75 17H76V18M75 17V18H76M76 18H77V19H76V18Z" stroke="#434343"/>
</g>
<g opacity="0.290196">
<path d="M19 16H20V17H19V18H18V19H17V18H18V17H19V16Z" fill="#434343"/>
<path d="M19 17H20V16H19V17ZM19 17V18H18M19 17H18V18M18 18V19H17V18H18Z" stroke="#434343"/>
</g>
<path opacity="0.290196" d="M39 16H40V17H39V16Z" fill="#434343" stroke="#434343"/>
<path opacity="0.290196" d="M54 16H56V17H54V16Z" fill="#434343" stroke="#434343"/>
<path opacity="0.290196" d="M35 17H36V18H35V17Z" fill="#434343" stroke="#434343"/>
<path opacity="0.290196" d="M57 17H59V18H57V17Z" fill="#434343" stroke="#434343"/>
<path opacity="0.290196" d="M33 18H34V19H33V18Z" fill="#434343" stroke="#434343"/>
<path opacity="0.290196" d="M60 18H61V19H60V18Z" fill="#434343" stroke="#434343"/>
<path opacity="0.290196" d="M31 19H32V20H31V19Z" fill="#434343" stroke="#434343"/>
<path opacity="0.290196" d="M62 19H63V20H62V19Z" fill="#434343" stroke="#434343"/>
<g opacity="0.290196">
<path d="M15 20H16V21H15V22H14V23H13V22H14V21H15V20Z" fill="#434343"/>
<path d="M15 21H16V20H15V21ZM15 21V22H14M15 21H14V22M14 22V23H13V22H14Z" stroke="#434343"/>
</g>
<path opacity="0.290196" d="M29 20H30V21H29V20Z" fill="#434343" stroke="#434343"/>
<path opacity="0.290196" d="M64 20H65V21H64V20Z" fill="#434343" stroke="#434343"/>
<g opacity="0.290196">
<path d="M78 20H79V21H80V22H81V23H80V22H79V21H78V20Z" fill="#434343"/>
<path d="M79 21V20H78V21H79ZM79 21H80V22M79 21V22H80M80 22H81V23H80V22Z" stroke="#434343"/>
</g>
<g opacity="0.290196">
<path d="M26 22H27V23H26V24H25V23H26V22Z" fill="#434343"/>
<path d="M26 23H27V22H26V23ZM26 23V24H25V23H26Z" stroke="#434343"/>
</g>
<g opacity="0.290196">
<path d="M67 22H68V23H69V24H68V23H67V22Z" fill="#434343"/>
<path d="M68 23V22H67V23H68ZM68 23H69V24H68V23Z" stroke="#434343"/>
</g>
<g opacity="0.290196">
<path d="M11 25H12V26H11V27H10V26H11V25Z" fill="#434343"/>
<path d="M11 26H12V25H11V26ZM11 26V27H10V26H11Z" stroke="#434343"/>
</g>
<g opacity="0.290196">
<path d="M82 25H83V26H84V27H83V26H82V25Z" fill="#434343"/>
<path d="M83 26V25H82V26H83ZM83 26H84V27H83V26Z" stroke="#434343"/>
</g>
<g opacity="0.290196">
<path d="M21 27H22V28H21V29H20V30H19V29H20V28H21V27Z" fill="#434343"/>
<path d="M21 28H22V27H21V28ZM21 28V29H20M21 28H20V29M20 29V30H19V29H20Z" stroke="#434343"/>
</g>
<path opacity="0.290196" d="M9 28H10V29H9V28Z" fill="#434343" stroke="#434343"/>
<path opacity="0.290196" d="M42 28H43V28.25V36.75V37H42V36.75V28.25V28Z" fill="#434343" stroke="#434343"/>
<path opacity="0.290196" d="M51 28H52V28.25V36.75V37H51V36.75V28.25V28Z" fill="#434343" stroke="#434343"/>
<g opacity="0.290196">
<path d="M73 28H74V29H75V30H74V29H73V28Z" fill="#434343"/>
<path d="M74 29V28H73V29H74ZM74 29H75V30H74V29Z" stroke="#434343"/>
</g>
<path opacity="0.290196" d="M84 28H85V29H84V28Z" fill="#434343" stroke="#434343"/>
<path opacity="0.290196" d="M8 30H9V31H8V30Z" fill="#434343" stroke="#434343"/>
<path opacity="0.290196" d="M85 30H86V31H85V30Z" fill="#434343" stroke="#434343"/>
<g opacity="0.290196">
<path d="M18 31H19V32H18V33H17V32H18V31Z" fill="#434343"/>
<path d="M18 32H19V31H18V32ZM18 32V33H17V32H18Z" stroke="#434343"/>
</g>
<path opacity="0.290196" d="M7 32H8V33H7V32Z" fill="#434343" stroke="#434343"/>
<path opacity="0.290196" d="M76 32H77V33H76V32Z" fill="#434343" stroke="#434343"/>
<path opacity="0.290196" d="M86 32H87V33H86V32Z" fill="#434343" stroke="#434343"/>
<path opacity="0.290196" d="M6 34H7V36H6V34Z" fill="#434343" stroke="#434343"/>
<path opacity="0.290196" d="M16 34H17V35H16V34Z" fill="#434343" stroke="#434343"/>
<path opacity="0.290196" d="M77 34H78V35H77V34Z" fill="#434343" stroke="#434343"/>
<path opacity="0.290196" d="M87 35H88V36H87V35Z" fill="#434343" stroke="#434343"/>
<path opacity="0.290196" d="M15 36H16V37H15V36Z" fill="#434343" stroke="#434343"/>
<path opacity="0.290196" d="M78 36H79V37H78V36Z" fill="#434343" stroke="#434343"/>
<path opacity="0.290196" d="M5 37H6V39H5V37Z" fill="#434343" stroke="#434343"/>
<path opacity="0.290196" d="M88 38H89V39H88V38Z" fill="#434343" stroke="#434343"/>
<path opacity="0.290196" d="M14 39H15V40H14V39Z" fill="#434343" stroke="#434343"/>
<path opacity="0.290196" d="M79 39H80V40H79V39Z" fill="#434343" stroke="#434343"/>
<path opacity="0.290196" d="M4 42H5V44H4V42Z" fill="#434343" stroke="#434343"/>
<path opacity="0.290196" d="M80 42H81V42.25V44.75V45H80V44.75V42.25V42Z" fill="#434343" stroke="#434343"/>
<path opacity="0.290196" d="M89 42H90V44H89V42Z" fill="#434343" stroke="#434343"/>
<path opacity="0.290196" d="M13 43H14V45H13V43Z" fill="#434343" stroke="#434343"/>
<g opacity="0.290196">
<path d="M42 45H43V45.25V70.75V71H43.25H50.75H51V70.75V45.25V45H52V45.25V70.75V71H51V72H50.75H43.25H43V71H42V70.75V45.25V45Z" fill="#434343"/>
<path d="M43 71V70.75V45.25V45H42V45.25V70.75V71H43ZM43 71H43.25H50.75H51M43 71V72H43.25H50.75H51V71M51 71V70.75V45.25V45H52V45.25V70.75V71H51Z" stroke="#434343"/>
</g>
<path opacity="0.290196" d="M4 55H5V55.25V57.75V58H4V57.75V55.25V55Z" fill="#434343" stroke="#434343"/>
<path opacity="0.290196" d="M13 55H14V57H13V55Z" fill="#434343" stroke="#434343"/>
<path opacity="0.290196" d="M80 55H81V57H80V55Z" fill="#434343" stroke="#434343"/>
<path opacity="0.290196" d="M89 55H90V55.25V57.75V58H89V57.75V55.25V55Z" fill="#434343" stroke="#434343"/>
<path opacity="0.290196" d="M14 59H15V60H14V59Z" fill="#434343" stroke="#434343"/>
<path opacity="0.290196" d="M79 59H80V61H79V59Z" fill="#434343" stroke="#434343"/>
<path opacity="0.290196" d="M5 60H6V62H5V60Z" fill="#434343" stroke="#434343"/>
<path opacity="0.290196" d="M88 60H89V62H88V60Z" fill="#434343" stroke="#434343"/>
<path opacity="0.290196" d="M15 62H16V63H15V62Z" fill="#434343" stroke="#434343"/>
<path opacity="0.290196" d="M78 62H79V63H78V62Z" fill="#434343" stroke="#434343"/>
<path opacity="0.290196" d="M6 64H7V65H6V64Z" fill="#434343" stroke="#434343"/>
<path opacity="0.290196" d="M77 64H78V65H77V64Z" fill="#434343" stroke="#434343"/>
<path opacity="0.290196" d="M87 64H88V65H87V64Z" fill="#434343" stroke="#434343"/>
<path opacity="0.290196" d="M7 66H8V67H7V66Z" fill="#434343" stroke="#434343"/>
<path opacity="0.290196" d="M17 66H18V67H17V66Z" fill="#434343" stroke="#434343"/>
<path opacity="0.290196" d="M76 66H77V67H76V66Z" fill="#434343" stroke="#434343"/>
<path opacity="0.290196" d="M86 66H87V67H86V66Z" fill="#434343" stroke="#434343"/>
<g opacity="0.290196">
<path d="M18 68H19V69H20V70H19V69H18V68Z" fill="#434343"/>
<path d="M19 69V68H18V69H19ZM19 69H20V70H19V69Z" stroke="#434343"/>
</g>
<g opacity="0.290196">
<path d="M75 68H76V69H75V70H74V69H75V68Z" fill="#434343"/>
<path d="M75 69H76V68H75V69ZM75 69V70H74V69H75Z" stroke="#434343"/>
</g>
<path opacity="0.290196" d="M85 69H86V70H85V69Z" fill="#434343" stroke="#434343"/>
<path opacity="0.290196" d="M10 72H11V73H10V72Z" fill="#434343" stroke="#434343"/>
<path opacity="0.290196" d="M83 72H84V73H83V72Z" fill="#434343" stroke="#434343"/>
<path opacity="0.290196" d="M22 73H23V74H22V73Z" fill="#434343" stroke="#434343"/>
<g opacity="0.290196">
<path d="M71 73H72V74H71V75H70V74H71V73Z" fill="#434343"/>
<path d="M71 74H72V73H71V74ZM71 74V75H70V74H71Z" stroke="#434343"/>
</g>
<g opacity="0.290196">
<path d="M82 74H83V75H82V76H81V75H82V74Z" fill="#434343"/>
<path d="M82 75H83V74H82V75ZM82 75V76H81V75H82Z" stroke="#434343"/>
</g>
<g opacity="0.290196">
<path d="M12 75H13V76H14V77H13V76H12V75Z" fill="#434343"/>
<path d="M13 76V75H12V76H13ZM13 76H14V77H13V76Z" stroke="#434343"/>
</g>
<path opacity="0.290196" d="M27 77H28V78H27V77Z" fill="#434343" stroke="#434343"/>
<g opacity="0.290196">
<path d="M66 77H67V78H66V79H65V78H66V77Z" fill="#434343"/>
<path d="M66 78H67V77H66V78ZM66 78V79H65V78H66Z" stroke="#434343"/>
</g>
<path opacity="0.290196" d="M30 79H31V80H30V79Z" fill="#434343" stroke="#434343"/>
<path opacity="0.290196" d="M63 79H64V80H63V79Z" fill="#434343" stroke="#434343"/>
<path opacity="0.290196" d="M32 80H33V81H32V80Z" fill="#434343" stroke="#434343"/>
<path opacity="0.290196" d="M61 80H62V81H61V80Z" fill="#434343" stroke="#434343"/>
<path opacity="0.290196" d="M34 81H35V82H34V81Z" fill="#434343" stroke="#434343"/>
<path opacity="0.290196" d="M59 81H60V82H59V81Z" fill="#434343" stroke="#434343"/>
<path opacity="0.290196" d="M37 82H39V83H37V82Z" fill="#434343" stroke="#434343"/>
<path opacity="0.290196" d="M56 82H57V83H56V82Z" fill="#434343" stroke="#434343"/>
<g opacity="0.290196">
<path d="M20 83H21V84H22V85H21V84H20V83Z" fill="#434343"/>
<path d="M21 84V83H20V84H21ZM21 84H22V85H21V84Z" stroke="#434343"/>
</g>
<path opacity="0.290196" d="M42 83H42.25H44.75H45V84H44.75H42.25H42V83Z" fill="#434343" stroke="#434343"/>
<path opacity="0.290196" d="M49 83H49.25H52.75H53V84H52.75H49.25H49V83Z" fill="#434343" stroke="#434343"/>
<g opacity="0.290196">
<path d="M73 83H74V84H73V85H72V84H73V83Z" fill="#434343"/>
<path d="M73 84H74V83H73V84ZM73 84V85H72V84H73Z" stroke="#434343"/>
</g>
<path opacity="0.290196" d="M24 86H25V87H24V86Z" fill="#434343" stroke="#434343"/>
<path opacity="0.290196" d="M69 86H70V87H69V86Z" fill="#434343" stroke="#434343"/>
<path opacity="0.290196" d="M26 87H27V88H26V87Z" fill="#434343" stroke="#434343"/>
<path opacity="0.290196" d="M67 87H68V88H67V87Z" fill="#434343" stroke="#434343"/>
<path opacity="0.290196" d="M28 88H29V89H28V88Z" fill="#434343" stroke="#434343"/>
<path opacity="0.290196" d="M65 88H66V89H65V88Z" fill="#434343" stroke="#434343"/>
<path opacity="0.290196" d="M30 89H31V90H30V89Z" fill="#434343" stroke="#434343"/>
<path opacity="0.290196" d="M63 89H64V90H63V89Z" fill="#434343" stroke="#434343"/>
<path opacity="0.290196" d="M33 90H34V91H33V90Z" fill="#434343" stroke="#434343"/>
<path opacity="0.290196" d="M60 90H61V91H60V90Z" fill="#434343" stroke="#434343"/>
<path opacity="0.290196" d="M36 91H38V92H36V91Z" fill="#434343" stroke="#434343"/>
<path opacity="0.290196" d="M56 91H58V92H56V91Z" fill="#434343" stroke="#434343"/>
<path opacity="0.290196" d="M41 92H41.25H43.75H44V93H43.75H41.25H41V92Z" fill="#434343" stroke="#434343"/>
<path opacity="0.290196" d="M50 92H50.25H52.75H53V93H52.75H50.25H50V92Z" fill="#434343" stroke="#434343"/>
<path opacity="0.894118" d="M39 7H39.25H41.75H42V8H41.75H39.25H39V7Z" fill="#B9B9B9" stroke="#B9B9B9"/>
<path opacity="0.894118" d="M52 7H52.25H54.75H55V8H54.75H52.25H52V7Z" fill="#B9B9B9" stroke="#B9B9B9"/>
<path opacity="0.894118" d="M35 8H36V9H35V8Z" fill="#B9B9B9" stroke="#B9B9B9"/>
<path opacity="0.894118" d="M58 8H59V9H58V8Z" fill="#B9B9B9" stroke="#B9B9B9"/>
<path opacity="0.894118" d="M32 9H33V10H32V9Z" fill="#B9B9B9" stroke="#B9B9B9"/>
<path opacity="0.894118" d="M61 9H62V10H61V9Z" fill="#B9B9B9" stroke="#B9B9B9"/>
<path opacity="0.894118" d="M29 10H31V11H29V10Z" fill="#B9B9B9" stroke="#B9B9B9"/>
<path opacity="0.894118" d="M27 11H28V12H27V11Z" fill="#B9B9B9" stroke="#B9B9B9"/>
<path opacity="0.894118" d="M66 11H67V12H66V11Z" fill="#B9B9B9" stroke="#B9B9B9"/>
<path opacity="0.894118" d="M24 13H25V14H24V13Z" fill="#B9B9B9" stroke="#B9B9B9"/>
<g opacity="0.894118">
<path d="M71 14H72V15H73V16H72V15H71V14Z" fill="#B9B9B9"/>
<path d="M72 15V14H71V15H72ZM72 15H73V16H72V15Z" stroke="#B9B9B9"/>
</g>
<path opacity="0.894118" d="M21 15H22V16H21V15Z" fill="#B9B9B9" stroke="#B9B9B9"/>
<path opacity="0.894118" d="M42 15H42.25H44.75H45V16H44.75H42.25H42V15Z" fill="#B9B9B9" stroke="#B9B9B9"/>
<path opacity="0.894118" d="M48 15H48.25H52.75H53V16H52.75H48.25H48V15Z" fill="#B9B9B9" stroke="#B9B9B9"/>
<path opacity="0.894118" d="M37 16H39V17H37V16Z" fill="#B9B9B9" stroke="#B9B9B9"/>
<path opacity="0.894118" d="M56 16H57V17H56V16Z" fill="#B9B9B9" stroke="#B9B9B9"/>
<path opacity="0.894118" d="M34 17H35V18H34V17Z" fill="#B9B9B9" stroke="#B9B9B9"/>
<path opacity="0.894118" d="M59 17H60V18H59V17Z" fill="#B9B9B9" stroke="#B9B9B9"/>
<path opacity="0.894118" d="M32 18H33V19H32V18Z" fill="#B9B9B9" stroke="#B9B9B9"/>
<path opacity="0.894118" d="M61 18H62V19H61V18Z" fill="#B9B9B9" stroke="#B9B9B9"/>
<path opacity="0.894118" d="M16 19H17V20H16V19Z" fill="#B9B9B9" stroke="#B9B9B9"/>
<path opacity="0.894118" d="M30 19H31V20H30V19Z" fill="#B9B9B9" stroke="#B9B9B9"/>
<path opacity="0.894118" d="M63 19H64V20H63V19Z" fill="#B9B9B9" stroke="#B9B9B9"/>
<path opacity="0.894118" d="M77 19H78V20H77V19Z" fill="#B9B9B9" stroke="#B9B9B9"/>
<g opacity="0.894118">
<path d="M28 20H29V21H28V22H27V21H28V20Z" fill="#B9B9B9"/>
<path d="M28 21H29V20H28V21ZM28 21V22H27V21H28Z" stroke="#B9B9B9"/>
</g>
<path opacity="0.894118" d="M66 21H67V22H66V21Z" fill="#B9B9B9" stroke="#B9B9B9"/>
<g opacity="0.894118">
<path d="M24 23H25V24H24V25H23V26H22V27H21V26H22V25H23V24H24V23Z" fill="#B9B9B9"/>
<path d="M24 24H25V23H24V24ZM24 24V25H23M24 24H23V25M23 25V26H22M23 25H22V26M22 26V27H21V26H22Z" stroke="#B9B9B9"/>
</g>
<path opacity="0.894118" d="M12 24H13V25H12V24Z" fill="#B9B9B9" stroke="#B9B9B9"/>
<g opacity="0.894118">
<path d="M70 24H71V25H72V26H73V27H72V26H71V25H70V24Z" fill="#B9B9B9"/>
<path d="M71 25V24H70V25H71ZM71 25H72V26M71 25V26H72M72 26H73V27H72V26Z" stroke="#B9B9B9"/>
</g>
<path opacity="0.894118" d="M81 24H82V25H81V24Z" fill="#B9B9B9" stroke="#B9B9B9"/>
<path opacity="0.894118" d="M10 27H11V28H10V27Z" fill="#B9B9B9" stroke="#B9B9B9"/>
<path opacity="0.894118" d="M83 27H84V28H83V27Z" fill="#B9B9B9" stroke="#B9B9B9"/>
<path opacity="0.894118" d="M43 28H43.25H50.75H51V29H50.75H43.25H43V28Z" fill="#B9B9B9" stroke="#B9B9B9"/>
<path opacity="0.894118" d="M84 29H85V30H84V29Z" fill="#B9B9B9" stroke="#B9B9B9"/>
<path opacity="0.894118" d="M18 30H19V31H18V30Z" fill="#B9B9B9" stroke="#B9B9B9"/>
<path opacity="0.894118" d="M75 30H76V31H75V30Z" fill="#B9B9B9" stroke="#B9B9B9"/>
<path opacity="0.894118" d="M85 31H86V32H85V31Z" fill="#B9B9B9" stroke="#B9B9B9"/>
<path opacity="0.894118" d="M7 33H8V34H7V33Z" fill="#B9B9B9" stroke="#B9B9B9"/>
<path opacity="0.894118" d="M77 33H78V34H77V33Z" fill="#B9B9B9" stroke="#B9B9B9"/>
<path opacity="0.894118" d="M86 33H87V34H86V33Z" fill="#B9B9B9" stroke="#B9B9B9"/>
<path opacity="0.894118" d="M78 35H79V36H78V35Z" fill="#B9B9B9" stroke="#B9B9B9"/>
<path opacity="0.894118" d="M6 36H7V37H6V36Z" fill="#B9B9B9" stroke="#B9B9B9"/>
<path opacity="0.894118" d="M87 36H88V37H87V36Z" fill="#B9B9B9" stroke="#B9B9B9"/>
<path opacity="0.894118" d="M14 38H15V39H14V38Z" fill="#B9B9B9" stroke="#B9B9B9"/>
<path opacity="0.894118" d="M79 38H80V39H79V38Z" fill="#B9B9B9" stroke="#B9B9B9"/>
<path opacity="0.894118" d="M5 39H6V41H5V39Z" fill="#B9B9B9" stroke="#B9B9B9"/>
<path opacity="0.894118" d="M88 39H89V40H88V39Z" fill="#B9B9B9" stroke="#B9B9B9"/>
<path opacity="0.894118" d="M13 41H14V43H13V41Z" fill="#B9B9B9" stroke="#B9B9B9"/>
<path opacity="0.894118" d="M80 41H81V42H80V41Z" fill="#B9B9B9" stroke="#B9B9B9"/>
<path opacity="0.894118" d="M4 44H5V44.25V48.75V49H4V48.75V44.25V44Z" fill="#B9B9B9" stroke="#B9B9B9"/>
<path opacity="0.894118" d="M89 44H90V44.25V47.75V48H89V47.75V44.25V44Z" fill="#B9B9B9" stroke="#B9B9B9"/>
<path opacity="0.894118" d="M43 45H43.25H50.75H51V46H50.75H43.25H43V45Z" fill="#B9B9B9" stroke="#B9B9B9"/>
<path opacity="0.894118" d="M12 47H13V47.25V51.75V52H12V51.75V47.25V47Z" fill="#B9B9B9" stroke="#B9B9B9"/>
<path opacity="0.894118" d="M81 47H82V47.25V52.75V53H81V52.75V47.25V47Z" fill="#B9B9B9" stroke="#B9B9B9"/>
<path opacity="0.894118" d="M4 51H5V51.25V54.75V55H4V54.75V51.25V51Z" fill="#B9B9B9" stroke="#B9B9B9"/>
<path opacity="0.894118" d="M89 51H90V51.25V54.75V55H89V54.75V51.25V51Z" fill="#B9B9B9" stroke="#B9B9B9"/>
<path opacity="0.894118" d="M13 57H14V58H13V57Z" fill="#B9B9B9" stroke="#B9B9B9"/>
<path opacity="0.894118" d="M80 57H81V58H80V57Z" fill="#B9B9B9" stroke="#B9B9B9"/>
<path opacity="0.894118" d="M5 59H6V60H5V59Z" fill="#B9B9B9" stroke="#B9B9B9"/>
<path opacity="0.894118" d="M88 59H89V60H88V59Z" fill="#B9B9B9" stroke="#B9B9B9"/>
<path opacity="0.894118" d="M14 60H15V62H14V60Z" fill="#B9B9B9" stroke="#B9B9B9"/>
<path opacity="0.894118" d="M79 61H80V62H79V61Z" fill="#B9B9B9" stroke="#B9B9B9"/>
<path opacity="0.894118" d="M6 63H7V64H6V63Z" fill="#B9B9B9" stroke="#B9B9B9"/>
<path opacity="0.894118" d="M15 63H16V64H15V63Z" fill="#B9B9B9" stroke="#B9B9B9"/>
<path opacity="0.894118" d="M78 63H79V64H78V63Z" fill="#B9B9B9" stroke="#B9B9B9"/>
<path opacity="0.894118" d="M87 63H88V64H87V63Z" fill="#B9B9B9" stroke="#B9B9B9"/>
<path opacity="0.894118" d="M7 65H8V66H7V65Z" fill="#B9B9B9" stroke="#B9B9B9"/>
<path opacity="0.894118" d="M16 65H17V66H16V65Z" fill="#B9B9B9" stroke="#B9B9B9"/>
<path opacity="0.894118" d="M77 65H78V66H77V65Z" fill="#B9B9B9" stroke="#B9B9B9"/>
<path opacity="0.894118" d="M17 67H18V68H17V67Z" fill="#B9B9B9" stroke="#B9B9B9"/>
<path opacity="0.894118" d="M76 67H77V68H76V67Z" fill="#B9B9B9" stroke="#B9B9B9"/>
<path opacity="0.894118" d="M8 68H9V69H8V68Z" fill="#B9B9B9" stroke="#B9B9B9"/>
<path opacity="0.894118" d="M85 68H86V69H85V68Z" fill="#B9B9B9" stroke="#B9B9B9"/>
<path opacity="0.894118" d="M9 70H10V71H9V70Z" fill="#B9B9B9" stroke="#B9B9B9"/>
<g opacity="0.894118">
<path d="M19 70H20V71H21V72H22V73H21V72H20V71H19V70Z" fill="#B9B9B9"/>
<path d="M20 71V70H19V71H20ZM20 71H21V72M20 71V72H21M21 72H22V73H21V72Z" stroke="#B9B9B9"/>
</g>
<g opacity="0.894118">
<path d="M74 70H75V71H74V72H73V73H72V72H73V71H74V70Z" fill="#B9B9B9"/>
<path d="M74 71H75V70H74V71ZM74 71V72H73M74 71H73V72M73 72V73H72V72H73Z" stroke="#B9B9B9"/>
</g>
<path opacity="0.894118" d="M84 70H85V71H84V70Z" fill="#B9B9B9" stroke="#B9B9B9"/>
<path opacity="0.894118" d="M11 73H12V74H11V73Z" fill="#B9B9B9" stroke="#B9B9B9"/>
<path opacity="0.894118" d="M82 73H83V74H82V73Z" fill="#B9B9B9" stroke="#B9B9B9"/>
<g opacity="0.894118">
<path d="M23 74H24V75H25V76H26V77H25V76H24V75H23V74Z" fill="#B9B9B9"/>
<path d="M24 75V74H23V75H24ZM24 75H25V76M24 75V76H25M25 76H26V77H25V76Z" stroke="#B9B9B9"/>
</g>
<g opacity="0.894118">
<path d="M69 75H70V76H69V77H68V78H67V77H68V76H69V75Z" fill="#B9B9B9"/>
<path d="M69 76H70V75H69V76ZM69 76V77H68M69 76H68V77M68 77V78H67V77H68Z" stroke="#B9B9B9"/>
</g>
<g opacity="0.894118">
<path d="M80 76H81V77H80V78H79V79H78V80H77V81H76V82H75V83H74V82H75V81H76V80H77V79H78V78H79V77H80V76Z" fill="#B9B9B9"/>
<path d="M80 77H81V76H80V77ZM80 77V78H79M80 77H79V78M79 78V79H78M79 78H78V79M78 79V80H77M78 79H77V80M77 80V81H76M77 80H76V81M76 81V82H75M76 81H75V82M75 82V83H74V82H75Z" stroke="#B9B9B9"/>
</g>
<g opacity="0.894118">
<path d="M14 77H15V78H16V79H17V80H18V81H19V82H20V83H19V82H18V81H17V80H16V79H15V78H14V77Z" fill="#B9B9B9"/>
<path d="M15 78V77H14V78H15ZM15 78H16V79M15 78V79H16M16 79H17V80M16 79V80H17M17 80H18V81M17 80V81H18M18 81H19V82M18 81V82H19M19 82H20V83H19V82Z" stroke="#B9B9B9"/>
</g>
<path opacity="0.894118" d="M28 78H29V79H28V78Z" fill="#B9B9B9" stroke="#B9B9B9"/>
<path opacity="0.894118" d="M64 79H65V80H64V79Z" fill="#B9B9B9" stroke="#B9B9B9"/>
<path opacity="0.894118" d="M31 80H32V81H31V80Z" fill="#B9B9B9" stroke="#B9B9B9"/>
<path opacity="0.894118" d="M62 80H63V81H62V80Z" fill="#B9B9B9" stroke="#B9B9B9"/>
<path opacity="0.894118" d="M60 81H61V82H60V81Z" fill="#B9B9B9" stroke="#B9B9B9"/>
<path opacity="0.894118" d="M36 82H37V83H36V82Z" fill="#B9B9B9" stroke="#B9B9B9"/>
<path opacity="0.894118" d="M57 82H58V83H57V82Z" fill="#B9B9B9" stroke="#B9B9B9"/>
<path opacity="0.894118" d="M39 83H39.25H41.75H42V84H41.75H39.25H39V83Z" fill="#B9B9B9" stroke="#B9B9B9"/>
<path opacity="0.894118" d="M53 83H54V84H53V83Z" fill="#B9B9B9" stroke="#B9B9B9"/>
<g opacity="0.894118">
<path d="M71 84H72V85H71V86H70V85H71V84Z" fill="#B9B9B9"/>
<path d="M71 85H72V84H71V85ZM71 85V86H70V85H71Z" stroke="#B9B9B9"/>
</g>
<path opacity="0.894118" d="M23 85H24V86H23V85Z" fill="#B9B9B9" stroke="#B9B9B9"/>
<path opacity="0.894118" d="M25 86H26V87H25V86Z" fill="#B9B9B9" stroke="#B9B9B9"/>
<path opacity="0.894118" d="M68 86H69V87H68V86Z" fill="#B9B9B9" stroke="#B9B9B9"/>
<path opacity="0.894118" d="M64 88H65V89H64V88Z" fill="#B9B9B9" stroke="#B9B9B9"/>
<path opacity="0.894118" d="M31 89H32V90H31V89Z" fill="#B9B9B9" stroke="#B9B9B9"/>
<path opacity="0.894118" d="M62 89H63V90H62V89Z" fill="#B9B9B9" stroke="#B9B9B9"/>
<path opacity="0.894118" d="M34 90H35V91H34V90Z" fill="#B9B9B9" stroke="#B9B9B9"/>
<path opacity="0.894118" d="M59 90H60V91H59V90Z" fill="#B9B9B9" stroke="#B9B9B9"/>
<path opacity="0.894118" d="M38 91H40V92H38V91Z" fill="#B9B9B9" stroke="#B9B9B9"/>
<path opacity="0.894118" d="M55 91H56V92H55V91Z" fill="#B9B9B9" stroke="#B9B9B9"/>
<path opacity="0.894118" d="M44 92H44.25H49.75H50V93H49.75H44.25H44V92Z" fill="#B9B9B9" stroke="#B9B9B9"/>
<path d="M42 7H42.25H51.75H52V8H52.25H57.75H58V9H58.25H60.75H61V10H61.25H63.75H64V11H66V12C66.25 12 66.8333 12 67.75 12H68V13H70V14H71V15H72V16H74V17H75V18H76V19H77V20H78V21H79V22H80V23H81V25H82V26H83V28H84V30H85C85 30.25 85 30.8333 85 31.75V32H86V34H87V34.25V36.75V37H88V37.25V39.75V40H89V40.25V47.75V48H90V48.25V50.75V51H89V51.25V58.75V59H88V59.25V62.75V63H87V63.25V65.75V66H86V68H85C85 68.25 85 68.8333 85 69.75V70H84V72H83V73H82V75H81V76H80V77H79V78H78V79H77V80H76V81H75V82H74V83H73V84H71V85H70V86H68V87H67V88H66.75H64.25H64V89H62V90H61.75H59.25H59V91H58.75H55.25H55V92H54.75H40.25H40V91H39.75H35.25H35V90H34.75H32.25H32V89H31.75H29.25H29V88H27V87H26V86C25.75 86 25.1667 86 24.25 86H24V85H22V84H21V83H20V82H19V81H18V80H17V79H16V78H15V77H14V76H13V75H12V73H11V72H10V70H9V68H8V67.75V65.25V65H7V63H6V62.75V59.25V59H5V58.75V51.25V51H4V49H5V48.75V41.25V41H6V40.75V37.25V37H7V36.75V34.25V34H8V33.75V31.25V31H9V29H10V28H11V26H12V25H13V23H14V22H15V21H16V20H17V19H18V18H19V17H20V16H22V15H23V14H25V13H26V12H28V11H28.25H30.75H31V10H33V9H33.25H35.75H36V8H36.25H41.75H42V7ZM42 15V16H37.5H37V17H34.5H34V18H32V19C31 19 30.3333 19 30 19V20H28V21H27V22H26V23H24V24H23V25H22V26H21V28H20V29H19V30H18C18 30.3333 18 31 18 32H17V34H16V36H15V38H14V38.5V41H13V41.5V47H12V47.5V52H13V52.5V58H14V58.5V62H15V64H16V66H17V68H18V69H19V71H20V72H21V73H22V74H23V75H24V76H25V77H27V78H28V79H30V80H31V81H31.5H34V82H36V83H36.5H39V84H39.5H54V83H54.5H58V82H58.5H61V81H63V80H65V79H66V78H68V77H69V76H70V75H71V74H72V73H73V72H74V71H75V69H76V68H77V66H78V64H79V62H80V58.5V58H81V53.5V53H82V47.5V47H81V41.5V41H80V38.5V38H79V35.5V35H78V33H77V32H76V30H75V29H74V28H73V26H72V25H71V24H69V23H68V22H67V21H65V20H64V19H62V18C61 18 60.3333 18 60 18V17H57.5H57V16H53.5H53V15H42.5H42Z" fill="#FDFDFD" stroke="#FDFDFD"/>
<path d="M43 29H43.25H50.75H51V29.25V36.75V37H50.75H43.25H43V36.75V29.25V29Z" fill="#FDFDFD" stroke="#FDFDFD"/>
<path d="M43 46H43.25H50.75C51 45.9167 51.0833 46 51 46.25V70.75V71H50.75H43.25C43 71.0833 42.9167 71 43 70.75V46.25V46Z" fill="#FDFDFD" stroke="#FDFDFD"/>
</g>
<defs>
<clipPath id="clip0_2343_108">
<rect width="94" height="99" fill="white"/>
</clipPath>
</defs>
</svg>
