<svg width="24" height="24" viewBox="0 0 24 24" fill="none" xmlns="http://www.w3.org/2000/svg">
<path fill="white" fill-rule="evenodd" clip-rule="evenodd" d="M12 8.5C10.07 8.5 8.5 10.07 8.5 12C8.5 13.93 10.07 15.5 12 15.5C13.93 15.5 15.5 13.93 15.5 12C15.5 10.07 13.93 8.5 12 8.5ZM6.5 12C6.5 11.17 6.67 10.38 6.98 9.66L5.12 8.6L6.12 6.9L8.08 7.98C8.68 7.38 9.4 6.9 10.2 6.58L9.7 4.5H11.7L12.2 6.58C13 6.9 13.72 7.38 14.32 7.98L16.28 6.9L17.28 8.6L15.42 9.66C15.73 10.38 15.9 11.17 15.9 12C15.9 12.83 15.73 13.62 15.42 14.34L17.28 15.4L16.28 17.1L14.32 16.02C13.72 16.62 13 17.1 12.2 17.42L12.7 19.5H10.7L10.2 17.42C9.4 17.1 8.68 16.62 8.08 16.02L6.12 17.1L5.12 15.4L6.98 14.34C6.67 13.62 6.5 12.83 6.5 12Z"/>
</svg>
