<svg width="78" height="77" viewBox="0 0 78 77" fill="none" xmlns="http://www.w3.org/2000/svg">
<g clip-path="url(#clip0_2343_28)">
<path opacity="0.839216" d="M0 0H1V0.25V41.75V42H1.25H34.75H35V43H34.75H0.25H0V42.75V0.25V0Z" fill="#E9E2D6" stroke="#E9E2D6"/>
<path opacity="0.839216" d="M43 0H44V0.25V24.75V25H44.25H76.75H77V24.75V0.25V0H78V0.25V25.75V26H77.75H43.25H43V25.75V0.25V0Z" fill="#E9E2D6" stroke="#E9E2D6"/>
<path opacity="0.839216" d="M9 8H9.25H25.75H26V9H25.75H9.25H9V8Z" fill="#E9E2D6" stroke="#E9E2D6"/>
<path opacity="0.839216" d="M52 8H52.25H68.75H69V9H68.75H52.25H52V8Z" fill="#E9E2D6" stroke="#E9E2D6"/>
<path opacity="0.839216" d="M52 16H52.25H68.75H69V17H68.75H52.25H52V16Z" fill="#E9E2D6" stroke="#E9E2D6"/>
<path opacity="0.839216" d="M77 34H78V34.25V76.75V77H77V76.75V34.25V34Z" fill="#E9E2D6" stroke="#E9E2D6"/>
<path opacity="0.839216" d="M52 42H52.25H68.75H69V43H68.75H52.25H52V42Z" fill="#E9E2D6" stroke="#E9E2D6"/>
<path opacity="0.839216" d="M0 51H1V51.25V76.75V77H0V76.75V51.25V51Z" fill="#E9E2D6" stroke="#E9E2D6"/>
<path opacity="0.01" d="M39 22H40V24H40.25H42.75H43V26H42V25H41.75H39.25H39V24.75V22.25V22Z" fill="#FF8000" stroke="#FF8000"/>
<g opacity="0.01">
<path d="M43 27H44V29H43V30H42V29H43V27Z" fill="#FF8000"/>
<path d="M43 29H44V27H43V29ZM43 29V30H42V29H43Z" stroke="#FF8000"/>
</g>
<path opacity="0.01" d="M2 43H2.25H4.75H5V45H4V44H2V43Z" fill="#FF8000" stroke="#FF8000"/>
<g opacity="0.01">
<path d="M32 46H33V47H32V48H31V49H32V50H30V49H29V48H31V47H32V46Z" fill="#FF8000"/>
<path d="M32 47H33V46H32V47ZM32 47V48H31M32 47H31V48M31 48V49H32V50H30V49H29V48H31Z" stroke="#FF8000"/>
</g>
<g opacity="0.01">
<path d="M36 72H38V73H36V74H35V73H36V72Z" fill="#FF8000"/>
<path d="M36 73H38V72H36V73ZM36 73V74H35V73H36Z" stroke="#FF8000"/>
</g>
<path d="M34 0H35V0.25V41.75V42H34V41.75V0.25V0Z" fill="#FEFEFE" stroke="#FEFEFE"/>
<path d="M43 33H44V33.25V75.75V76H43V75.75V33.25V33Z" fill="#FEFEFE" stroke="#FEFEFE"/>
<path d="M34 52H35V52.25V75.75V76H34V75.75V52.25V52Z" fill="#FEFEFE" stroke="#FEFEFE"/>
<path d="M9 59H9.25H25.75C26 58.9167 26.0833 59 26 59.25C26 60.1667 26 60.75 26 61H25V60H24.75H10.25H10V61H9V59Z" fill="#FEFEFE" stroke="#FEFEFE"/>
<path d="M9 68H9.25H25.75H26V69H25.75H9.25H9V68Z" fill="#FEFEFE" stroke="#FEFEFE"/>
<path d="M52 68H52.25H68.75H69V69H68.75H52.25H52V68Z" fill="#FEFEFE" stroke="#FEFEFE"/>
<path d="M1 0H1.25H33.75H34V0.25V41.75V42H33.75H1.25H1V41.75V0.25V0ZM9 8V8.5V34H9.5H26V8.5V8H9.5H9Z" fill="white" stroke="white"/>
<path d="M44 0H44.25H76.75H77V0.25V24.75V25H76.75H44.25H44V24.75V0.25V0ZM52 8V8.5V17H52.5H69V8.5V8H52.5H52Z" fill="white" stroke="white"/>
<path d="M44 34H44.25H76.75H77V34.25V76.75V77H76.75H44.25H44V76.75V34.25V34ZM52 42V42.5V64H51V65H52V65.5V69C52 69 52.1667 69 52.5 69H69V42.5V42H52.5H52Z" fill="white" stroke="white"/>
<path d="M1 51H1.25H33.75H34V51.25V76.75V77H33.75H1.25H1V76.75V51.25V51ZM9 59V59.5V69H9.5H26V59.5V59H9.5H9Z" fill="white" stroke="white"/>
</g>
<defs>
<clipPath id="clip0_2343_28">
<rect width="78" height="77" fill="white"/>
</clipPath>
</defs>
</svg>
