<svg width="24" height="24" viewBox="0 0 24 24" fill="none" xmlns="http://www.w3.org/2000/svg">
<path fill="white" fill-rule="evenodd" clip-rule="evenodd" d="M12 4.5C7.86 4.5 4.5 7.86 4.5 12C4.5 16.14 7.86 19.5 12 19.5C16.14 19.5 19.5 16.14 19.5 12C19.5 7.86 16.14 4.5 12 4.5ZM3 12C3 7.03 7.03 3 12 3C16.97 3 21 7.03 21 12C21 16.97 16.97 21 12 21C7.03 21 3 16.97 3 12Z"/>
<path fill="white" d="M12 7.5V12.2L15.2 14.1L16.1 12.6L13.5 11.1V7.5H12Z"/>
<path fill="white" d="M6.5 17.2L5.3 16L8.8 12.5L10 13.7L6.5 17.2Z"/>
</svg>
