<svg width="24" height="24" viewBox="0 0 24 24" fill="none" xmlns="http://www.w3.org/2000/svg">
<path fill="white" d="M4 18V11H8V18H4ZM9 18V7H13V18H9ZM14 18V13H18V18H14Z"/>
<path fill="white" fill-rule="evenodd" clip-rule="evenodd" d="M17.5 4C18.88 4 20 5.12 20 6.5C20 7.88 18.88 9 17.5 9C16.12 9 15 7.88 15 6.5C15 5.12 16.12 4 17.5 4ZM17.5 5.75C17.22 5.75 17 5.97 17 6.25V7.5H16.25C16.03 7.5 15.75 7.72 15.75 8C15.75 8.28 16.03 8.5 16.25 8.5H17.5C17.78 8.5 18 8.28 18 8V6.25C18 5.97 17.78 5.75 17.5 5.75Z"/>
</svg>
