<svg width="24" height="24" viewBox="0 0 24 24" fill="none" xmlns="http://www.w3.org/2000/svg">
<path fill="white" fill-rule="evenodd" clip-rule="evenodd" d="M7 3H13L14 4H17C17.55 4 18 4.45 18 5V19C18 19.55 17.55 20 17 20H7C6.45 20 6 19.55 6 19V5C6 4.45 6.45 4 7 4V3ZM8 5V19H16V6H12V5H8ZM9 9H15V10.5H9V9ZM9 12H15V13.5H9V12ZM9 15H12V16.5H9V15Z"/>
<path fill="white" d="M15.5 13.5C16.88 13.5 18 14.62 18 16C18 17.38 16.88 18.5 15.5 18.5C14.12 18.5 13 17.38 13 16C13 14.62 14.12 13.5 15.5 13.5ZM15.5 15C15.78 15 16 15.22 16 15.5V16.2L16.7 16.5C16.92 16.6 17 16.86 16.9 17.08C16.8 17.3 16.54 17.38 16.32 17.28L15.3 16.8C15.12 16.72 15 16.54 15 16.34V15.5C15 15.22 15.22 15 15.5 15Z"/>
</svg>
