<svg width="86" height="86" viewBox="0 0 86 86" fill="none" xmlns="http://www.w3.org/2000/svg">
<g clip-path="url(#clip0_2343_600)">
<path opacity="0.67451" d="M35 0H37V1H35V0Z" fill="#9A9A9A" stroke="#9A9A9A"/>
<path opacity="0.67451" d="M49 0H51V1H49V0Z" fill="#9A9A9A" stroke="#9A9A9A"/>
<path opacity="0.67451" d="M31 1H32V2H31V1Z" fill="#9A9A9A" stroke="#9A9A9A"/>
<path opacity="0.67451" d="M54 1H55V2H54V1Z" fill="#9A9A9A" stroke="#9A9A9A"/>
<path opacity="0.67451" d="M28 2H29V3H28V2Z" fill="#9A9A9A" stroke="#9A9A9A"/>
<path opacity="0.67451" d="M57 2H58V3H57V2Z" fill="#9A9A9A" stroke="#9A9A9A"/>
<path opacity="0.67451" d="M25 3H26V4H25V3Z" fill="#9A9A9A" stroke="#9A9A9A"/>
<path opacity="0.67451" d="M60 3H61V4H60V3Z" fill="#9A9A9A" stroke="#9A9A9A"/>
<path opacity="0.67451" d="M23 4H24V5H23V4Z" fill="#9A9A9A" stroke="#9A9A9A"/>
<path opacity="0.67451" d="M62 4H63V5H62V4Z" fill="#9A9A9A" stroke="#9A9A9A"/>
<path opacity="0.67451" d="M21 5H22V6H21V5Z" fill="#9A9A9A" stroke="#9A9A9A"/>
<path opacity="0.67451" d="M64 5H65V6H64V5Z" fill="#9A9A9A" stroke="#9A9A9A"/>
<path opacity="0.67451" d="M18 7H19V8H18V7Z" fill="#9A9A9A" stroke="#9A9A9A"/>
<path opacity="0.67451" d="M67 7H68V8H67V7Z" fill="#9A9A9A" stroke="#9A9A9A"/>
<path opacity="0.67451" d="M38 8H38.25H46.75H47V9H46.75H38.25H38V8Z" fill="#9A9A9A" stroke="#9A9A9A"/>
<path opacity="0.67451" d="M34 9H35V10H34V9Z" fill="#9A9A9A" stroke="#9A9A9A"/>
<path opacity="0.67451" d="M51 9H52V10H51V9Z" fill="#9A9A9A" stroke="#9A9A9A"/>
<g opacity="0.67451">
<path d="M14 10H15V11H14V12H13V13H12V14H11V13H12V12H13V11H14V10Z" fill="#9A9A9A"/>
<path d="M14 11H15V10H14V11ZM14 11V12H13M14 11H13V12M13 12V13H12M13 12H12V13M12 13V14H11V13H12Z" stroke="#9A9A9A"/>
</g>
<path opacity="0.67451" d="M31 10H32V11H31V10Z" fill="#9A9A9A" stroke="#9A9A9A"/>
<path opacity="0.67451" d="M54 10H55V11H54V10Z" fill="#9A9A9A" stroke="#9A9A9A"/>
<path opacity="0.67451" d="M28 11H29V12H28V11Z" fill="#9A9A9A" stroke="#9A9A9A"/>
<path opacity="0.67451" d="M57 11H58V12H57V11Z" fill="#9A9A9A" stroke="#9A9A9A"/>
<g opacity="0.67451">
<path d="M72 11H73V12H74V13H75V14H74V13H73V12H72V11Z" fill="#9A9A9A"/>
<path d="M73 12V11H72V12H73ZM73 12H74V13M73 12V13H74M74 13H75V14H74V13Z" stroke="#9A9A9A"/>
</g>
<path opacity="0.67451" d="M26 12H27V13H26V12Z" fill="#9A9A9A" stroke="#9A9A9A"/>
<path opacity="0.67451" d="M59 12H60V13H59V12Z" fill="#9A9A9A" stroke="#9A9A9A"/>
<path opacity="0.67451" d="M23 14H24V15H23V14Z" fill="#9A9A9A" stroke="#9A9A9A"/>
<path opacity="0.67451" d="M62 14H63V15H62V14Z" fill="#9A9A9A" stroke="#9A9A9A"/>
<g opacity="0.67451">
<path d="M8 17H9V18H8V19H7V18H8V17Z" fill="#9A9A9A"/>
<path d="M8 18H9V17H8V18ZM8 18V19H7V18H8Z" stroke="#9A9A9A"/>
</g>
<path opacity="0.67451" d="M38 17H40V18H38V17Z" fill="#9A9A9A" stroke="#9A9A9A"/>
<path opacity="0.67451" d="M46 17H48V18H46V17Z" fill="#9A9A9A" stroke="#9A9A9A"/>
<g opacity="0.67451">
<path d="M77 17H78V18H79V19H78V18H77V17Z" fill="#9A9A9A"/>
<path d="M78 18V17H77V18H78ZM78 18H79V19H78V18Z" stroke="#9A9A9A"/>
</g>
<path opacity="0.67451" d="M18 18H19V19H18V18Z" fill="#9A9A9A" stroke="#9A9A9A"/>
<path opacity="0.67451" d="M50 18H51V19H50V18Z" fill="#9A9A9A" stroke="#9A9A9A"/>
<path opacity="0.67451" d="M67 18H68V19H67V18Z" fill="#9A9A9A" stroke="#9A9A9A"/>
<path opacity="0.67451" d="M6 20H7V21H6V20Z" fill="#9A9A9A" stroke="#9A9A9A"/>
<g opacity="0.67451">
<path d="M32 20H33V21H32V22H31V23H30V24H29V23H30V22H31V21H32V20Z" fill="#9A9A9A"/>
<path d="M32 21H33V20H32V21ZM32 21V22H31M32 21H31V22M31 22V23H30M31 22H30V23M30 23V24H29V23H30Z" stroke="#9A9A9A"/>
</g>
<g opacity="0.67451">
<path d="M53 20H54V21H55V22H56V23H57V24H56V23H55V22H54V21H53V20Z" fill="#9A9A9A"/>
<path d="M54 21V20H53V21H54ZM54 21H55V22M54 21V22H55M55 22H56V23M55 22V23H56M56 23H57V24H56V23Z" stroke="#9A9A9A"/>
</g>
<path opacity="0.67451" d="M79 20H80V21H79V20Z" fill="#9A9A9A" stroke="#9A9A9A"/>
<g opacity="0.67451">
<path d="M15 22H16V23H15V24H14V23H15V22Z" fill="#9A9A9A"/>
<path d="M15 23H16V22H15V23ZM15 23V24H14V23H15Z" stroke="#9A9A9A"/>
</g>
<path opacity="0.67451" d="M4 23H5V24H4V23Z" fill="#9A9A9A" stroke="#9A9A9A"/>
<path opacity="0.67451" d="M71 23H72V24H71V23Z" fill="#9A9A9A" stroke="#9A9A9A"/>
<path opacity="0.67451" d="M13 25H14V26H13V25Z" fill="#9A9A9A" stroke="#9A9A9A"/>
<path opacity="0.67451" d="M41 25H41.25H44.75H45V26H44.75H41.25H41V25Z" fill="#9A9A9A" stroke="#9A9A9A"/>
<path opacity="0.67451" d="M72 25H73V26H72V25Z" fill="#9A9A9A" stroke="#9A9A9A"/>
<path opacity="0.67451" d="M3 26H4V27H3V26Z" fill="#9A9A9A" stroke="#9A9A9A"/>
<path opacity="0.67451" d="M27 26H28V27H27V26Z" fill="#9A9A9A" stroke="#9A9A9A"/>
<path opacity="0.67451" d="M46 26H47V27H46V26Z" fill="#9A9A9A" stroke="#9A9A9A"/>
<path opacity="0.67451" d="M58 26H59V27H58V26Z" fill="#9A9A9A" stroke="#9A9A9A"/>
<path opacity="0.67451" d="M12 27H13V28H12V27Z" fill="#9A9A9A" stroke="#9A9A9A"/>
<g opacity="0.67451">
<path d="M37 27H38V28H37V29H36V28H37V27Z" fill="#9A9A9A"/>
<path d="M37 28H38V27H37V28ZM37 28V29H36V28H37Z" stroke="#9A9A9A"/>
</g>
<g opacity="0.67451">
<path d="M48 27H49V28H50V29H49V28H48V27Z" fill="#9A9A9A"/>
<path d="M49 28V27H48V28H49ZM49 28H50V29H49V28Z" stroke="#9A9A9A"/>
</g>
<path opacity="0.67451" d="M2 28H3V29H2V28Z" fill="#9A9A9A" stroke="#9A9A9A"/>
<path opacity="0.67451" d="M83 28H84V29H83V28Z" fill="#9A9A9A" stroke="#9A9A9A"/>
<path opacity="0.67451" d="M11 29H12V30H11V29Z" fill="#9A9A9A" stroke="#9A9A9A"/>
<path opacity="0.67451" d="M26 29H27V30H26V29Z" fill="#9A9A9A" stroke="#9A9A9A"/>
<path opacity="0.67451" d="M59 29H60V30H59V29Z" fill="#9A9A9A" stroke="#9A9A9A"/>
<path opacity="0.67451" d="M1 31H2V33H1V31Z" fill="#9A9A9A" stroke="#9A9A9A"/>
<path opacity="0.67451" d="M10 31H11V32H10V31Z" fill="#9A9A9A" stroke="#9A9A9A"/>
<path opacity="0.67451" d="M75 31H76V32H75V31Z" fill="#9A9A9A" stroke="#9A9A9A"/>
<path opacity="0.67451" d="M84 31H85V33H84V31Z" fill="#9A9A9A" stroke="#9A9A9A"/>
<path opacity="0.67451" d="M34 32H35V34H34V32Z" fill="#9A9A9A" stroke="#9A9A9A"/>
<path opacity="0.67451" d="M51 32H52V32.25V35.75V36H51V35.75V32.25V32Z" fill="#9A9A9A" stroke="#9A9A9A"/>
<path opacity="0.67451" d="M9 35H10V36H9V35Z" fill="#9A9A9A" stroke="#9A9A9A"/>
<path opacity="0.67451" d="M76 35H77V36H76V35Z" fill="#9A9A9A" stroke="#9A9A9A"/>
<path opacity="0.67451" d="M0 36H1V36.25V38.75V39H0V38.75V36.25V36Z" fill="#9A9A9A" stroke="#9A9A9A"/>
<path opacity="0.67451" d="M85 36H86V36.25V38.75V39H85V38.75V36.25V36Z" fill="#9A9A9A" stroke="#9A9A9A"/>
<path opacity="0.67451" d="M59 37H60V38H59V37Z" fill="#9A9A9A" stroke="#9A9A9A"/>
<g opacity="0.67451">
<path d="M57 41H58V42H57V43H56V44H55V45H54V46H53V47H52V46H53V45H54V44H55V43H56V42H57V41Z" fill="#9A9A9A"/>
<path d="M57 42H58V41H57V42ZM57 42V43H56M57 42H56V43M56 43V44H55M56 43H55V44M55 44V45H54M55 44H54V45M54 45V46H53M54 45H53V46M53 46V47H52V46H53Z" stroke="#9A9A9A"/>
</g>
<g opacity="0.67451">
<path d="M45 42H46V43H45V44H44V43H45V42Z" fill="#9A9A9A"/>
<path d="M45 43H46V42H45V43ZM45 43V44H44V43H45Z" stroke="#9A9A9A"/>
</g>
<path opacity="0.67451" d="M0 46H1V46.25V48.75V49H0V48.75V46.25V46Z" fill="#9A9A9A" stroke="#9A9A9A"/>
<path opacity="0.67451" d="M41 46H42V47H41V46Z" fill="#9A9A9A" stroke="#9A9A9A"/>
<path opacity="0.67451" d="M85 46H86V46.25V48.75V49H85V48.75V46.25V46Z" fill="#9A9A9A" stroke="#9A9A9A"/>
<path opacity="0.67451" d="M9 49H10V51H9V49Z" fill="#9A9A9A" stroke="#9A9A9A"/>
<g opacity="0.67451">
<path d="M49 49H50V50H49V51H48V50H49V49Z" fill="#9A9A9A"/>
<path d="M49 50H50V49H49V50ZM49 50V51H48V50H49Z" stroke="#9A9A9A"/>
</g>
<path opacity="0.67451" d="M76 49H77V51H76V49Z" fill="#9A9A9A" stroke="#9A9A9A"/>
<path opacity="0.67451" d="M39 50H40V51H39V50Z" fill="#9A9A9A" stroke="#9A9A9A"/>
<path opacity="0.67451" d="M1 52H2V54H1V52Z" fill="#9A9A9A" stroke="#9A9A9A"/>
<path opacity="0.67451" d="M10 53H11V54H10V53Z" fill="#9A9A9A" stroke="#9A9A9A"/>
<path opacity="0.67451" d="M47 53H48V54H47V53Z" fill="#9A9A9A" stroke="#9A9A9A"/>
<path opacity="0.67451" d="M75 53H76V54H75V53Z" fill="#9A9A9A" stroke="#9A9A9A"/>
<path opacity="0.67451" d="M84 53H85V54H84V53Z" fill="#9A9A9A" stroke="#9A9A9A"/>
<path opacity="0.67451" d="M39 55H39.25H46.75H47V56H46.75H39.25H39V55Z" fill="#9A9A9A" stroke="#9A9A9A"/>
<path opacity="0.67451" d="M2 56H3V57H2V56Z" fill="#9A9A9A" stroke="#9A9A9A"/>
<path opacity="0.67451" d="M11 56H12V57H11V56Z" fill="#9A9A9A" stroke="#9A9A9A"/>
<path opacity="0.67451" d="M74 56H75V57H74V56Z" fill="#9A9A9A" stroke="#9A9A9A"/>
<path opacity="0.67451" d="M83 56H84V57H83V56Z" fill="#9A9A9A" stroke="#9A9A9A"/>
<path opacity="0.67451" d="M12 58H13V59H12V58Z" fill="#9A9A9A" stroke="#9A9A9A"/>
<path opacity="0.67451" d="M73 58H74V59H73V58Z" fill="#9A9A9A" stroke="#9A9A9A"/>
<path opacity="0.67451" d="M3 59H4V60H3V59Z" fill="#9A9A9A" stroke="#9A9A9A"/>
<path opacity="0.67451" d="M82 59H83V60H82V59Z" fill="#9A9A9A" stroke="#9A9A9A"/>
<g opacity="0.67451">
<path d="M72 60H73V61H72V62H71V61H72V60Z" fill="#9A9A9A"/>
<path d="M72 61H73V60H72V61ZM72 61V62H71V61H72Z" stroke="#9A9A9A"/>
</g>
<path opacity="0.67451" d="M4 61H5V62H4V61Z" fill="#9A9A9A" stroke="#9A9A9A"/>
<path opacity="0.67451" d="M14 61H15V62H14V61Z" fill="#9A9A9A" stroke="#9A9A9A"/>
<path opacity="0.67451" d="M81 61H82V62H81V61Z" fill="#9A9A9A" stroke="#9A9A9A"/>
<path opacity="0.67451" d="M5 63H6V64H5V63Z" fill="#9A9A9A" stroke="#9A9A9A"/>
<path opacity="0.67451" d="M80 63H81V64H80V63Z" fill="#9A9A9A" stroke="#9A9A9A"/>
<g opacity="0.67451">
<path d="M16 64H17V65H18V66H19V67H20V68H21V69H22V70H21V69H20V68H19V67H18V66H17V65H16V64Z" fill="#9A9A9A"/>
<path d="M17 65V64H16V65H17ZM17 65H18V66M17 65V66H18M18 66H19V67M18 66V67H19M19 67H20V68M19 67V68H20M20 68H21V69M20 68V69H21M21 69H22V70H21V69Z" stroke="#9A9A9A"/>
</g>
<g opacity="0.67451">
<path d="M69 64H70V65H69V66H68V67H67V68H66V69H65V70H64V69H65V68H66V67H67V66H68V65H69V64Z" fill="#9A9A9A"/>
<path d="M69 65H70V64H69V65ZM69 65V66H68M69 65H68V66M68 66V67H67M68 66H67V67M67 67V68H66M67 67H66V68M66 68V69H65M66 68H65V69M65 69V70H64V69H65Z" stroke="#9A9A9A"/>
</g>
<g opacity="0.67451">
<path d="M79 65H80V66H79V67H78V66H79V65Z" fill="#9A9A9A"/>
<path d="M79 66H80V65H79V66ZM79 66V67H78V66H79Z" stroke="#9A9A9A"/>
</g>
<path opacity="0.67451" d="M7 66H8V67H7V66Z" fill="#9A9A9A" stroke="#9A9A9A"/>
<path opacity="0.67451" d="M39 68H39.25H46.75H47V69H46.75H39.25H39V68Z" fill="#9A9A9A" stroke="#9A9A9A"/>
<g opacity="0.67451">
<path d="M9 69H10V70H11V71H12V72H11V71H10V70H9V69Z" fill="#9A9A9A"/>
<path d="M10 70V69H9V70H10ZM10 70H11V71M10 70V71H11M11 71H12V72H11V71Z" stroke="#9A9A9A"/>
</g>
<g opacity="0.67451">
<path d="M76 69H77V70H76V71H75V72H74V71H75V70H76V69Z" fill="#9A9A9A"/>
<path d="M76 70H77V69H76V70ZM76 70V71H75M76 70H75V71M75 71V72H74V71H75Z" stroke="#9A9A9A"/>
</g>
<path opacity="0.67451" d="M24 71H25V72H24V71Z" fill="#9A9A9A" stroke="#9A9A9A"/>
<path opacity="0.67451" d="M61 71H62V72H61V71Z" fill="#9A9A9A" stroke="#9A9A9A"/>
<g opacity="0.67451">
<path d="M14 74H15V75H16V76H17V77H16V76H15V75H14V74Z" fill="#9A9A9A"/>
<path d="M15 75V74H14V75H15ZM15 75H16V76M15 75V76H16M16 76H17V77H16V76Z" stroke="#9A9A9A"/>
</g>
<path opacity="0.67451" d="M30 74H31V75H30V74Z" fill="#9A9A9A" stroke="#9A9A9A"/>
<path opacity="0.67451" d="M55 74H56V75H55V74Z" fill="#9A9A9A" stroke="#9A9A9A"/>
<g opacity="0.67451">
<path d="M71 74H72V75H71V76H70V77H69V76H70V75H71V74Z" fill="#9A9A9A"/>
<path d="M71 75H72V74H71V75ZM71 75V76H70M71 75H70V76M70 76V77H69V76H70Z" stroke="#9A9A9A"/>
</g>
<path opacity="0.67451" d="M32 75H34V76H32V75Z" fill="#9A9A9A" stroke="#9A9A9A"/>
<path opacity="0.67451" d="M52 75H53V76H52V75Z" fill="#9A9A9A" stroke="#9A9A9A"/>
<path opacity="0.67451" d="M36 76H38V77H36V76Z" fill="#9A9A9A" stroke="#9A9A9A"/>
<path opacity="0.67451" d="M47 76H47.25H49.75H50V77H49.75H47.25H47V76Z" fill="#9A9A9A" stroke="#9A9A9A"/>
<path opacity="0.67451" d="M19 78H20V79H19V78Z" fill="#9A9A9A" stroke="#9A9A9A"/>
<path opacity="0.67451" d="M66 78H67V79H66V78Z" fill="#9A9A9A" stroke="#9A9A9A"/>
<path opacity="0.67451" d="M22 80H23V81H22V80Z" fill="#9A9A9A" stroke="#9A9A9A"/>
<path opacity="0.67451" d="M24 81H25V82H24V81Z" fill="#9A9A9A" stroke="#9A9A9A"/>
<path opacity="0.67451" d="M27 82H28V83H27V82Z" fill="#9A9A9A" stroke="#9A9A9A"/>
<path opacity="0.67451" d="M58 82H59V83H58V82Z" fill="#9A9A9A" stroke="#9A9A9A"/>
<path opacity="0.67451" d="M29 83H31V84H29V83Z" fill="#9A9A9A" stroke="#9A9A9A"/>
<path opacity="0.67451" d="M56 83H57V84H56V83Z" fill="#9A9A9A" stroke="#9A9A9A"/>
<path opacity="0.67451" d="M33 84H35V85H33V84Z" fill="#9A9A9A" stroke="#9A9A9A"/>
<path opacity="0.67451" d="M51 84H53V85H51V84Z" fill="#9A9A9A" stroke="#9A9A9A"/>
<path opacity="0.67451" d="M39 85H39.25H46.75H47V86H46.75H39.25H39V85Z" fill="#9A9A9A" stroke="#9A9A9A"/>
<path d="M39 0H39.25H46.75H47V1H47.25H52.75H53V2H53.25H55.75H56V3H56.25H58.75H59V4H61V5H63V6C63.25 6 63.8333 6 64.75 6H65V7H67V8H68V9H69V10H70V11H72V12H73V13H74V14H75V16H76V17H77V18H78V20H79V21H80V23H81V25H82V27H83V27.25V29.75V30H84V30.25V33.75V34H85V34.25V50.75V51H84V51.25V54.75V55H83V55.25V57.75V58H82V60H81V62H80V64H79V64.25C79 65.1667 79 65.75 79 66H78V67H77V69H76V70H75V71H74V72H73V73H72V74H71V75H70V76H68V77H67V78H66V79H64V80C63.75 80 63.1667 80 62.25 80H62V81H60V82H59.75H57.25H57V83H56.75H54.25H54V84H53.75H50.25H50V85H49.75H36.25H36V84H35.75H32.25H32V83H31.75H28.25H28V82H26V81H24V80C23.75 80 23.1667 80 22.25 80H22V79H20V78H19V77H18V76H16V75H15V74H14V73H13V72H12V71H11V70H10V69H9V67H8V66H7V64H6V62H5C5 61.75 5 61.1667 5 60.25V60H4V58H3V57.75V55.25V55H2V54.75V51.25V51H1V50.75V34.25V34H2V33.75V30.25V30H3V29.75V27.25V27H4V25H5C5 24.75 5 24.1667 5 23.25V23H6V21H7V20H8V18H9V17H10V16H11V14H12V13H13V12H14V11H16V10H17V9H18V8H20V7H21V6H23V5H25V4H27V3H27.25H29.75H30V2H30.25H32.75H33V1H33.25H38.75H39V0ZM37 8V9H33.5H33V10H30.5H30V11H28V12H26V13H24V14H23V15H21V16H20V17H19V18H18V19H17V20H16V21H15V23H14V24H13V26H12V26.5C12 27.1667 12 27.6667 12 28H11V30H10V30.5V33H9V33.5V39H8V39.5V47H9V47.5V52H10V52.5V55H11V57H12V57.5C12 58.1667 12 58.6667 12 59H13V61H14V63H15V64H16V65H17V66H18V67H19V68H20V69H21V70H22V71H24V72H25V73H27V74H27.5C28.1667 74 28.6667 74 29 74V75H29.5H32V76H32.5H35V77H35.5H51V76H51.5H55V75H57V74H57.5C58.1667 74 58.6667 74 59 74V73H61V72H63V71H64V70H65V69H66V68H67V67H68V66H69V65H70V64H71V63H72V61H73C73 60 73 59.3333 73 59H74V57H75V55H76V52.5V52H77V47.5V47H78V38.5V38H77V33.5V33H76V30.5V30H75V28H74V26H73V24H72V23H71V21H70V20H69V19H68V18H67V17H66V16H65V15H63V14H62V13H60V12C59 12 58.3333 12 58 12V11H56V10H53.5H53V9H49.5H49V8H37.5H37Z" fill="#FDFDFD" stroke="#FDFDFD"/>
<path d="M42 17H44V18H44.25H48.75H49V19C49.25 19 49.8333 19 50.75 19H51V20H53V21H54V22H55V23H56V24H57V26H58V28H59V28.25V31.75V32H60V32.25V35.75V36H59V36.25V38.75V39H58V41H57V42H56V43H55V44H54V45H53V46H51V47H50V49H49V50H48V52H47V52.25V54.75V55H46.75H39.25H39V54.75V52.25V52H40V51.75V49.25V49H41V47H42V46H43V45H44V44H45V43H46V42H48V41H49V40H50V39H51V37H52V36.75V31.25V31H51V29H50V28H49V27H48V26H46V25H45.75H40.25H40V26H38V27H37V28H36V29H35V31H34V31.25V33.75V34H33.75H26.25H26V32H27V31.75V28.25V28H28V26H29V24H30V23H31V22H32V21H34V20H35V19H37V18H37.25H41.75H42V17Z" fill="#FDFDFD" stroke="#FDFDFD"/>
<path d="M39 60H39.25H46.75H47V60.25V67.75V68H46.75H39.25H39V67.75V60.25V60Z" fill="#FDFDFD" stroke="#FDFDFD"/>
<path opacity="0.192157" d="M34 0H35V1H34V0Z" fill="#383838" stroke="#383838"/>
<path opacity="0.192157" d="M51 0H53V1H51V0Z" fill="#383838" stroke="#383838"/>
<path opacity="0.192157" d="M30 1H31V2H30V1Z" fill="#383838" stroke="#383838"/>
<path opacity="0.192157" d="M55 1H56V2H55V1Z" fill="#383838" stroke="#383838"/>
<path opacity="0.192157" d="M27 2H28V3H27V2Z" fill="#383838" stroke="#383838"/>
<path opacity="0.192157" d="M58 2H59V3H58V2Z" fill="#383838" stroke="#383838"/>
<path opacity="0.192157" d="M19 6H20V7H19V6Z" fill="#383838" stroke="#383838"/>
<path opacity="0.192157" d="M66 6H67V7H66V6Z" fill="#383838" stroke="#383838"/>
<g opacity="0.192157">
<path d="M69 8H70V9H71V10H72V11H71V10H70V9H69V8Z" fill="#383838"/>
<path d="M70 9V8H69V9H70ZM70 9H71V10M70 9V10H71M71 10H72V11H71V10Z" stroke="#383838"/>
</g>
<path opacity="0.192157" d="M15 9H16V10H15V9Z" fill="#383838" stroke="#383838"/>
<path opacity="0.192157" d="M35 9H36V10H35V9Z" fill="#383838" stroke="#383838"/>
<path opacity="0.192157" d="M50 9H51V10H50V9Z" fill="#383838" stroke="#383838"/>
<path opacity="0.192157" d="M53 10H54V11H53V10Z" fill="#383838" stroke="#383838"/>
<path opacity="0.192157" d="M29 11H30V12H29V11Z" fill="#383838" stroke="#383838"/>
<path opacity="0.192157" d="M56 11H57V12H56V11Z" fill="#383838" stroke="#383838"/>
<path opacity="0.192157" d="M27 12H28V13H27V12Z" fill="#383838" stroke="#383838"/>
<path opacity="0.192157" d="M58 12H59V13H58V12Z" fill="#383838" stroke="#383838"/>
<path opacity="0.192157" d="M25 13H26V14H25V13Z" fill="#383838" stroke="#383838"/>
<path opacity="0.192157" d="M60 13H61V14H60V13Z" fill="#383838" stroke="#383838"/>
<g opacity="0.192157">
<path d="M10 14H11V15H10V16H9V15H10V14Z" fill="#383838"/>
<path d="M10 15H11V14H10V15ZM10 15V16H9V15H10Z" stroke="#383838"/>
</g>
<g opacity="0.192157">
<path d="M75 14H76V15H77V16H78V17H77V16H76V15H75V14Z" fill="#383838"/>
<path d="M76 15V14H75V15H76ZM76 15H77V16M76 15V16H77M77 16H78V17H77V16Z" stroke="#383838"/>
</g>
<g opacity="0.192157">
<path d="M22 15H23V16H22V17H21V16H22V15Z" fill="#383838"/>
<path d="M22 16H23V15H22V16ZM22 16V17H21V16H22Z" stroke="#383838"/>
</g>
<g opacity="0.192157">
<path d="M63 15H64V16H65V17H66V18H65V17H64V16H63V15Z" fill="#383838"/>
<path d="M64 16V15H63V16H64ZM64 16H65V17M64 16V17H65M65 17H66V18H65V17Z" stroke="#383838"/>
</g>
<path opacity="0.192157" d="M48 17H49V18H48V17Z" fill="#383838" stroke="#383838"/>
<path opacity="0.192157" d="M35 18H36V19H35V18Z" fill="#383838" stroke="#383838"/>
<path opacity="0.192157" d="M6 19H7V20H6V19Z" fill="#383838" stroke="#383838"/>
<path opacity="0.192157" d="M33 19H34V20H33V19Z" fill="#383838" stroke="#383838"/>
<path opacity="0.192157" d="M52 19H53V20H52V19Z" fill="#383838" stroke="#383838"/>
<g opacity="0.192157">
<path d="M67 19H68V20H69V21H70V22H71V23H70V22H69V21H68V20H67V19Z" fill="#383838"/>
<path d="M68 20V19H67V20H68ZM68 20H69V21M68 20V21H69M69 21H70V22M69 21V22H70M70 22H71V23H70V22Z" stroke="#383838"/>
</g>
<path opacity="0.192157" d="M79 19H80V20H79V19Z" fill="#383838" stroke="#383838"/>
<g opacity="0.192157">
<path d="M17 20H18V21H17V22H16V21H17V20Z" fill="#383838"/>
<path d="M17 21H18V20H17V21ZM17 21V22H16V21H17Z" stroke="#383838"/>
</g>
<path opacity="0.192157" d="M5 21H6V22H5V21Z" fill="#383838" stroke="#383838"/>
<path opacity="0.192157" d="M80 21H81V22H80V21Z" fill="#383838" stroke="#383838"/>
<path opacity="0.192157" d="M81 23H82V24H81V23Z" fill="#383838" stroke="#383838"/>
<path opacity="0.192157" d="M14 24H15V25H14V24Z" fill="#383838" stroke="#383838"/>
<path opacity="0.192157" d="M28 24H29V25H28V24Z" fill="#383838" stroke="#383838"/>
<path opacity="0.192157" d="M57 24H58V25H57V24Z" fill="#383838" stroke="#383838"/>
<path opacity="0.192157" d="M71 24H72V25H71V24Z" fill="#383838" stroke="#383838"/>
<path opacity="0.192157" d="M3 25H4V26H3V25Z" fill="#383838" stroke="#383838"/>
<path opacity="0.192157" d="M82 25H83V26H82V25Z" fill="#383838" stroke="#383838"/>
<path opacity="0.192157" d="M39 26H40V27H39V26Z" fill="#383838" stroke="#383838"/>
<path opacity="0.192157" d="M2 27H3V28H2V27Z" fill="#383838" stroke="#383838"/>
<path opacity="0.192157" d="M73 27H74V28H73V27Z" fill="#383838" stroke="#383838"/>
<path opacity="0.192157" d="M83 27H84V28H83V27Z" fill="#383838" stroke="#383838"/>
<path opacity="0.192157" d="M26 28H27V29H26V28Z" fill="#383838" stroke="#383838"/>
<path opacity="0.192157" d="M59 28H60V29H59V28Z" fill="#383838" stroke="#383838"/>
<path opacity="0.192157" d="M74 29H75V31H74V29Z" fill="#383838" stroke="#383838"/>
<path opacity="0.192157" d="M1 30H2V31H1V30Z" fill="#383838" stroke="#383838"/>
<path opacity="0.192157" d="M35 30H36V31H35V30Z" fill="#383838" stroke="#383838"/>
<path opacity="0.192157" d="M50 30H51V31H50V30Z" fill="#383838" stroke="#383838"/>
<path opacity="0.192157" d="M84 30H85V31H84V30Z" fill="#383838" stroke="#383838"/>
<path opacity="0.192157" d="M10 32H11V33H10V32Z" fill="#383838" stroke="#383838"/>
<g opacity="0.192157">
<path d="M25 32H26V34H26.25H33.75H34V35H33.75H26.25H26V34H25V32Z" fill="#383838"/>
<path d="M26 34V32H25V34H26ZM26 34H26.25H33.75H34V35H33.75H26.25H26V34Z" stroke="#383838"/>
</g>
<path opacity="0.192157" d="M60 32H61V32.25V35.75V36H60V35.75V32.25V32Z" fill="#383838" stroke="#383838"/>
<path opacity="0.192157" d="M75 32H76V33H75V32Z" fill="#383838" stroke="#383838"/>
<path opacity="0.192157" d="M0 34H1V36H0V34Z" fill="#383838" stroke="#383838"/>
<path opacity="0.192157" d="M85 34H86V36H85V34Z" fill="#383838" stroke="#383838"/>
<path opacity="0.192157" d="M9 36H10V38H9V36Z" fill="#383838" stroke="#383838"/>
<path opacity="0.192157" d="M76 36H77V38H76V36Z" fill="#383838" stroke="#383838"/>
<path opacity="0.192157" d="M50 37H51V38H50V37Z" fill="#383838" stroke="#383838"/>
<path opacity="0.192157" d="M59 38H60V39H59V38Z" fill="#383838" stroke="#383838"/>
<g opacity="0.192157">
<path d="M47 40H48V41H47V42H46V41H47V40Z" fill="#383838"/>
<path d="M47 41H48V40H47V41ZM47 41V42H46V41H47Z" stroke="#383838"/>
</g>
<path opacity="0.192157" d="M58 40H59V41H58V40Z" fill="#383838" stroke="#383838"/>
<path opacity="0.192157" d="M9 47H10V49H9V47Z" fill="#383838" stroke="#383838"/>
<path opacity="0.192157" d="M40 47H41V48H40V47Z" fill="#383838" stroke="#383838"/>
<g opacity="0.192157">
<path d="M51 47H52V48H51V49H50V48H51V47Z" fill="#383838"/>
<path d="M51 48H52V47H51V48ZM51 48V49H50V48H51Z" stroke="#383838"/>
</g>
<path opacity="0.192157" d="M76 47H77V49H76V47Z" fill="#383838" stroke="#383838"/>
<path opacity="0.192157" d="M0 49H1V51H0V49Z" fill="#383838" stroke="#383838"/>
<path opacity="0.192157" d="M39 49H40V50H39V49Z" fill="#383838" stroke="#383838"/>
<path opacity="0.192157" d="M85 49H86V51H85V49Z" fill="#383838" stroke="#383838"/>
<path opacity="0.192157" d="M48 51H49V52H48V51Z" fill="#383838" stroke="#383838"/>
<path opacity="0.192157" d="M10 52H11V53H10V52Z" fill="#383838" stroke="#383838"/>
<path opacity="0.192157" d="M38 52H39V52.25V55.75V56H38V55.75V52.25V52Z" fill="#383838" stroke="#383838"/>
<path opacity="0.192157" d="M75 52H76V53H75V52Z" fill="#383838" stroke="#383838"/>
<path opacity="0.192157" d="M1 54H2V55H1V54Z" fill="#383838" stroke="#383838"/>
<path opacity="0.192157" d="M47 54H48V56H47V54Z" fill="#383838" stroke="#383838"/>
<path opacity="0.192157" d="M84 54H85V55H84V54Z" fill="#383838" stroke="#383838"/>
<path opacity="0.192157" d="M11 55H12V56H11V55Z" fill="#383838" stroke="#383838"/>
<path opacity="0.192157" d="M74 55H75V56H74V55Z" fill="#383838" stroke="#383838"/>
<path opacity="0.192157" d="M2 57H3V58H2V57Z" fill="#383838" stroke="#383838"/>
<path opacity="0.192157" d="M12 57H13V58H12V57Z" fill="#383838" stroke="#383838"/>
<path opacity="0.192157" d="M73 57H74V58H73V57Z" fill="#383838" stroke="#383838"/>
<path opacity="0.192157" d="M83 57H84V58H83V57Z" fill="#383838" stroke="#383838"/>
<path opacity="0.192157" d="M13 59H14V60H13V59Z" fill="#383838" stroke="#383838"/>
<g opacity="0.192157">
<path d="M38 59H38.25H46.75H47V60H48V60.25V68.75V69H47V68.75V60.25V60H46.75H39.25H39V60.25V68.75V69H38V68.75V59.25V59Z" fill="#383838"/>
<path d="M47 60V59H46.75H38.25H38V59.25V68.75V69H39V68.75V60.25V60H39.25H46.75H47ZM47 60H48V60.25V68.75V69H47V68.75V60.25V60Z" stroke="#383838"/>
</g>
<path opacity="0.192157" d="M72 59H73V60H72V59Z" fill="#383838" stroke="#383838"/>
<path opacity="0.192157" d="M3 60H4V61H3V60Z" fill="#383838" stroke="#383838"/>
<path opacity="0.192157" d="M82 60H83V61H82V60Z" fill="#383838" stroke="#383838"/>
<path opacity="0.192157" d="M4 62H5V63H4V62Z" fill="#383838" stroke="#383838"/>
<path opacity="0.192157" d="M15 62H16V63H15V62Z" fill="#383838" stroke="#383838"/>
<path opacity="0.192157" d="M70 62H71V63H70V62Z" fill="#383838" stroke="#383838"/>
<path opacity="0.192157" d="M81 62H82V63H81V62Z" fill="#383838" stroke="#383838"/>
<path opacity="0.192157" d="M6 65H7V66H6V65Z" fill="#383838" stroke="#383838"/>
<g opacity="0.192157">
<path d="M7 67H8V68H9V69H8V68H7V67Z" fill="#383838"/>
<path d="M8 68V67H7V68H8ZM8 68H9V69H8V68Z" stroke="#383838"/>
</g>
<g opacity="0.192157">
<path d="M78 67H79V68H78V69H77V68H78V67Z" fill="#383838"/>
<path d="M78 68H79V67H78V68ZM78 68V69H77V68H78Z" stroke="#383838"/>
</g>
<g opacity="0.192157">
<path d="M22 69H23V70H24V71H23V70H22V69Z" fill="#383838"/>
<path d="M23 70V69H22V70H23ZM23 70H24V71H23V70Z" stroke="#383838"/>
</g>
<path opacity="0.192157" d="M62 70H63V71H62V70Z" fill="#383838" stroke="#383838"/>
<path opacity="0.192157" d="M26 72H27V73H26V72Z" fill="#383838" stroke="#383838"/>
<path opacity="0.192157" d="M59 72H60V73H59V72Z" fill="#383838" stroke="#383838"/>
<path opacity="0.192157" d="M12 73H13V74H12V73Z" fill="#383838" stroke="#383838"/>
<path opacity="0.192157" d="M28 73H29V74H28V73Z" fill="#383838" stroke="#383838"/>
<path opacity="0.192157" d="M57 73H58V74H57V73Z" fill="#383838" stroke="#383838"/>
<path opacity="0.192157" d="M34 75H35V76H34V75Z" fill="#383838" stroke="#383838"/>
<path opacity="0.192157" d="M38 76H38.25H40.75H41V77H40.75H38.25H38V76Z" fill="#383838" stroke="#383838"/>
<path opacity="0.192157" d="M45 76H47V77H45V76Z" fill="#383838" stroke="#383838"/>
<path opacity="0.192157" d="M17 77H18V78H17V77Z" fill="#383838" stroke="#383838"/>
<path opacity="0.192157" d="M68 77H69V78H68V77Z" fill="#383838" stroke="#383838"/>
<path opacity="0.192157" d="M20 79H21V80H20V79Z" fill="#383838" stroke="#383838"/>
<path opacity="0.192157" d="M65 79H66V80H65V79Z" fill="#383838" stroke="#383838"/>
<path opacity="0.192157" d="M63 80H64V81H63V80Z" fill="#383838" stroke="#383838"/>
<path opacity="0.192157" d="M61 81H62V82H61V81Z" fill="#383838" stroke="#383838"/>
<path opacity="0.192157" d="M26 82H27V83H26V82Z" fill="#383838" stroke="#383838"/>
<path opacity="0.192157" d="M59 82H60V83H59V82Z" fill="#383838" stroke="#383838"/>
<path opacity="0.192157" d="M32 84H33V85H32V84Z" fill="#383838" stroke="#383838"/>
<path opacity="0.192157" d="M53 84H54V85H53V84Z" fill="#383838" stroke="#383838"/>
<path opacity="0.192157" d="M37 85H39V86H37V85Z" fill="#383838" stroke="#383838"/>
<path opacity="0.192157" d="M47 85H49V86H47V85Z" fill="#383838" stroke="#383838"/>
<path d="M37 0H39V1H37V0Z" fill="#E5E5E5" stroke="#E5E5E5"/>
<path d="M47 0H49V1H47V0Z" fill="#E5E5E5" stroke="#E5E5E5"/>
<path d="M32 1H33V2H32V1Z" fill="#E5E5E5" stroke="#E5E5E5"/>
<path d="M53 1H54V2H53V1Z" fill="#E5E5E5" stroke="#E5E5E5"/>
<path d="M29 2H30V3H29V2Z" fill="#E5E5E5" stroke="#E5E5E5"/>
<path d="M56 2H57V3H56V2Z" fill="#E5E5E5" stroke="#E5E5E5"/>
<path d="M26 3H27V4H26V3Z" fill="#E5E5E5" stroke="#E5E5E5"/>
<path d="M59 3H60V4H59V3Z" fill="#E5E5E5" stroke="#E5E5E5"/>
<path d="M24 4H25V5H24V4Z" fill="#E5E5E5" stroke="#E5E5E5"/>
<path d="M61 4H62V5H61V4Z" fill="#E5E5E5" stroke="#E5E5E5"/>
<path d="M22 5H23V6H22V5Z" fill="#E5E5E5" stroke="#E5E5E5"/>
<path d="M63 5H64V6H63V5Z" fill="#E5E5E5" stroke="#E5E5E5"/>
<path d="M20 6H21V7H20V8H19V7H20V6Z" fill="#E5E5E5"/>
<path d="M20 7H21V6H20V7ZM20 7V8H19V7H20Z" stroke="#E5E5E5"/>
<path d="M65 6H66V7H65V6Z" fill="#E5E5E5" stroke="#E5E5E5"/>
<path d="M17 8H18V9H17V10H16V11H15V10H16V9H17V8Z" fill="#E5E5E5"/>
<path d="M17 9H18V8H17V9ZM17 9V10H16M17 9H16V10M16 10V11H15V10H16Z" stroke="#E5E5E5"/>
<path d="M37 8H38V9H37V8Z" fill="#E5E5E5" stroke="#E5E5E5"/>
<path d="M47 8H49V9H47V8Z" fill="#E5E5E5" stroke="#E5E5E5"/>
<path d="M68 8H69V9H70V10H71V11H70V10H69V9H68V8Z" fill="#E5E5E5"/>
<path d="M69 9V8H68V9H69ZM69 9H70V10M69 9V10H70M70 10H71V11H70V10Z" stroke="#E5E5E5"/>
<path d="M33 9H34V10H33V9Z" fill="#E5E5E5" stroke="#E5E5E5"/>
<path d="M52 9H53V10H52V9Z" fill="#E5E5E5" stroke="#E5E5E5"/>
<path d="M30 10H31V11H30V10Z" fill="#E5E5E5" stroke="#E5E5E5"/>
<path d="M55 10H56V11H55V10Z" fill="#E5E5E5" stroke="#E5E5E5"/>
<path d="M24 13H25V14H24V13Z" fill="#E5E5E5" stroke="#E5E5E5"/>
<path d="M61 13H62V14H61V13Z" fill="#E5E5E5" stroke="#E5E5E5"/>
<path d="M10 15H11V16H10V17H9V16H10V15Z" fill="#E5E5E5"/>
<path d="M10 16H11V15H10V16ZM10 16V17H9V16H10Z" stroke="#E5E5E5"/>
<path d="M21 15H22V16H21V17H20V18H19V17H20V16H21V15Z" fill="#E5E5E5"/>
<path d="M21 16H22V15H21V16ZM21 16V17H20M21 16H20V17M20 17V18H19V17H20Z" stroke="#E5E5E5"/>
<path d="M64 15H65V16H66V17H67V18H66V17H65V16H64V15Z" fill="#E5E5E5"/>
<path d="M65 16V15H64V16H65ZM65 16H66V17M65 16V17H66M66 17H67V18H66V17Z" stroke="#E5E5E5"/>
<path d="M75 15H76V16H77V17H76V16H75V15Z" fill="#E5E5E5"/>
<path d="M76 16V15H75V16H76ZM76 16H77V17H76V16Z" stroke="#E5E5E5"/>
<path d="M40 17H42V18H40V17Z" fill="#E5E5E5" stroke="#E5E5E5"/>
<path d="M44 17H46V18H44V17Z" fill="#E5E5E5" stroke="#E5E5E5"/>
<path d="M36 18H37V19H36V18Z" fill="#E5E5E5" stroke="#E5E5E5"/>
<path d="M49 18H50V19H49V18Z" fill="#E5E5E5" stroke="#E5E5E5"/>
<path d="M7 19H8V20H7V19Z" fill="#E5E5E5" stroke="#E5E5E5"/>
<path d="M17 19H18V20H17V21H16V22H15V21H16V20H17V19Z" fill="#E5E5E5"/>
<path d="M17 20H18V19H17V20ZM17 20V21H16M17 20H16V21M16 21V22H15V21H16Z" stroke="#E5E5E5"/>
<path d="M34 19H35V20H34V21H33V20H34V19Z" fill="#E5E5E5"/>
<path d="M34 20H35V19H34V20ZM34 20V21H33V20H34Z" stroke="#E5E5E5"/>
<path d="M51 19H52V20H51V19Z" fill="#E5E5E5" stroke="#E5E5E5"/>
<path d="M68 19H69V20H70V21H71V22H70V21H69V20H68V19Z" fill="#E5E5E5"/>
<path d="M69 20V19H68V20H69ZM69 20H70V21M69 20V21H70M70 21H71V22H70V21Z" stroke="#E5E5E5"/>
<path d="M78 19H79V20H78V19Z" fill="#E5E5E5" stroke="#E5E5E5"/>
<path d="M5 22H6V23H5V22Z" fill="#E5E5E5" stroke="#E5E5E5"/>
<path d="M80 22H81V23H80V22Z" fill="#E5E5E5" stroke="#E5E5E5"/>
<path d="M4 24H5V25H4V24Z" fill="#E5E5E5" stroke="#E5E5E5"/>
<path d="M13 24H14V25H13V24Z" fill="#E5E5E5" stroke="#E5E5E5"/>
<path d="M72 24H73V25H72V24Z" fill="#E5E5E5" stroke="#E5E5E5"/>
<path d="M81 24H82V25H81V24Z" fill="#E5E5E5" stroke="#E5E5E5"/>
<path d="M28 25H29V26H28V25Z" fill="#E5E5E5" stroke="#E5E5E5"/>
<path d="M40 25H41V26H40V25Z" fill="#E5E5E5" stroke="#E5E5E5"/>
<path d="M45 25H46V26H45V25Z" fill="#E5E5E5" stroke="#E5E5E5"/>
<path d="M57 25H58V26H57V25Z" fill="#E5E5E5" stroke="#E5E5E5"/>
<path d="M12 26H13V27H12V26Z" fill="#E5E5E5" stroke="#E5E5E5"/>
<path d="M38 26H39V27H38V26Z" fill="#E5E5E5" stroke="#E5E5E5"/>
<path d="M47 26H48V27H47V26Z" fill="#E5E5E5" stroke="#E5E5E5"/>
<path d="M73 26H74V27H73V26Z" fill="#E5E5E5" stroke="#E5E5E5"/>
<path d="M82 26H83V27H82V26Z" fill="#E5E5E5" stroke="#E5E5E5"/>
<path d="M27 27H28V28H27V27Z" fill="#E5E5E5" stroke="#E5E5E5"/>
<path d="M58 27H59V28H58V27Z" fill="#E5E5E5" stroke="#E5E5E5"/>
<path d="M11 28H12V29H11V28Z" fill="#E5E5E5" stroke="#E5E5E5"/>
<path d="M74 28H75V29H74V28Z" fill="#E5E5E5" stroke="#E5E5E5"/>
<path d="M2 29H3V30H2V29Z" fill="#E5E5E5" stroke="#E5E5E5"/>
<path d="M35 29H36V30H35V29Z" fill="#E5E5E5" stroke="#E5E5E5"/>
<path d="M50 29H51V30H50V29Z" fill="#E5E5E5" stroke="#E5E5E5"/>
<path d="M83 29H84V30H83V29Z" fill="#E5E5E5" stroke="#E5E5E5"/>
<path d="M10 30H11V31H10V30Z" fill="#E5E5E5" stroke="#E5E5E5"/>
<path d="M26 30H27V32H26V30Z" fill="#E5E5E5" stroke="#E5E5E5"/>
<path d="M59 30H60V32H59V30Z" fill="#E5E5E5" stroke="#E5E5E5"/>
<path d="M75 30H76V31H75V30Z" fill="#E5E5E5" stroke="#E5E5E5"/>
<path d="M34 31H35V32H34V31Z" fill="#E5E5E5" stroke="#E5E5E5"/>
<path d="M51 31H52V32H51V31Z" fill="#E5E5E5" stroke="#E5E5E5"/>
<path d="M1 33H2V34H1V33Z" fill="#E5E5E5" stroke="#E5E5E5"/>
<path d="M9 33H10V35H9V33Z" fill="#E5E5E5" stroke="#E5E5E5"/>
<path d="M76 33H77V35H76V33Z" fill="#E5E5E5" stroke="#E5E5E5"/>
<path d="M84 33H85V34H84V33Z" fill="#E5E5E5" stroke="#E5E5E5"/>
<path d="M51 36H52V37H51V36Z" fill="#E5E5E5" stroke="#E5E5E5"/>
<path d="M59 36H60V37H59V36Z" fill="#E5E5E5" stroke="#E5E5E5"/>
<path d="M50 38H51V39H50V40H49V41H48V42H47V41H48V40H49V39H50V38Z" fill="#E5E5E5"/>
<path d="M50 39H51V38H50V39ZM50 39V40H49M50 39H49V40M49 40V41H48M49 40H48V41M48 41V42H47V41H48Z" stroke="#E5E5E5"/>
<path d="M77 38H78V38.25V46.75V47H77V46.75V38.25V38Z" fill="#E5E5E5" stroke="#E5E5E5"/>
<path d="M0 39H1V39.25V45.75V46H0V45.75V39.25V39Z" fill="#E5E5E5" stroke="#E5E5E5"/>
<path d="M8 39H9V39.25V46.75V47H8V46.75V39.25V39Z" fill="#E5E5E5" stroke="#E5E5E5"/>
<path d="M58 39H59V40H58V39Z" fill="#E5E5E5" stroke="#E5E5E5"/>
<path d="M85 39H86V39.25V45.75V46H85V45.75V39.25V39Z" fill="#E5E5E5" stroke="#E5E5E5"/>
<path d="M43 44H44V45H43V46H42V45H43V44Z" fill="#E5E5E5"/>
<path d="M43 45H44V44H43V45ZM43 45V46H42V45H43Z" stroke="#E5E5E5"/>
<path d="M51 46H52V47H51V48H50V47H51V46Z" fill="#E5E5E5"/>
<path d="M51 47H52V46H51V47ZM51 47V48H50V47H51Z" stroke="#E5E5E5"/>
<path d="M40 48H41V49H40V48Z" fill="#E5E5E5" stroke="#E5E5E5"/>
<path d="M1 51H2V52H1V51Z" fill="#E5E5E5" stroke="#E5E5E5"/>
<path d="M9 51H10V52H9V51Z" fill="#E5E5E5" stroke="#E5E5E5"/>
<path d="M39 51H40V52H39V51Z" fill="#E5E5E5" stroke="#E5E5E5"/>
<path d="M76 51H77V52H76V51Z" fill="#E5E5E5" stroke="#E5E5E5"/>
<path d="M84 51H85V53H84V51Z" fill="#E5E5E5" stroke="#E5E5E5"/>
<path d="M47 52H48V53H47V52Z" fill="#E5E5E5" stroke="#E5E5E5"/>
<path d="M10 54H11V55H10V54Z" fill="#E5E5E5" stroke="#E5E5E5"/>
<path d="M75 54H76V55H75V54Z" fill="#E5E5E5" stroke="#E5E5E5"/>
<path d="M2 55H3V56H2V55Z" fill="#E5E5E5" stroke="#E5E5E5"/>
<path d="M83 55H84V56H83V55Z" fill="#E5E5E5" stroke="#E5E5E5"/>
<path d="M3 58H4V59H3V58Z" fill="#E5E5E5" stroke="#E5E5E5"/>
<path d="M82 58H83V59H82V58Z" fill="#E5E5E5" stroke="#E5E5E5"/>
<path d="M4 60H5V61H4V60Z" fill="#E5E5E5" stroke="#E5E5E5"/>
<path d="M13 60H14V61H13V60Z" fill="#E5E5E5" stroke="#E5E5E5"/>
<path d="M81 60H82V61H81V60Z" fill="#E5E5E5" stroke="#E5E5E5"/>
<path d="M5 62H6V63H5V62Z" fill="#E5E5E5" stroke="#E5E5E5"/>
<path d="M14 62H15V63H16V64H15V63H14V62Z" fill="#E5E5E5"/>
<path d="M15 63V62H14V63H15ZM15 63H16V64H15V63Z" stroke="#E5E5E5"/>
<path d="M71 62H72V63H71V64H70V63H71V62Z" fill="#E5E5E5"/>
<path d="M71 63H72V62H71V63ZM71 63V64H70V63H71Z" stroke="#E5E5E5"/>
<path d="M80 62H81V63H80V62Z" fill="#E5E5E5" stroke="#E5E5E5"/>
<path d="M6 64H7V65H6V64Z" fill="#E5E5E5" stroke="#E5E5E5"/>
<path d="M79 64H80V65H79V64Z" fill="#E5E5E5" stroke="#E5E5E5"/>
<path d="M8 67H9V68H8V67Z" fill="#E5E5E5" stroke="#E5E5E5"/>
<path d="M77 67H78V68H77V67Z" fill="#E5E5E5" stroke="#E5E5E5"/>
<path d="M22 70H23V71H22V70Z" fill="#E5E5E5" stroke="#E5E5E5"/>
<path d="M63 70H64V71H63V72H62V71H63V70Z" fill="#E5E5E5"/>
<path d="M63 71H64V70H63V71ZM63 71V72H62V71H63Z" stroke="#E5E5E5"/>
<path d="M12 72H13V73H14V74H13V73H12V72Z" fill="#E5E5E5"/>
<path d="M13 73V72H12V73H13ZM13 73H14V74H13V73Z" stroke="#E5E5E5"/>
<path d="M25 72H26V73H25V72Z" fill="#E5E5E5" stroke="#E5E5E5"/>
<path d="M60 72H61V73H60V72Z" fill="#E5E5E5" stroke="#E5E5E5"/>
<path d="M73 72H74V73H73V74H72V73H73V72Z" fill="#E5E5E5"/>
<path d="M73 73H74V72H73V73ZM73 73V74H72V73H73Z" stroke="#E5E5E5"/>
<path d="M27 73H28V74H27V73Z" fill="#E5E5E5" stroke="#E5E5E5"/>
<path d="M58 73H59V74H58V73Z" fill="#E5E5E5" stroke="#E5E5E5"/>
<path d="M29 74H30V75H29V74Z" fill="#E5E5E5" stroke="#E5E5E5"/>
<path d="M56 74H57V75H56V74Z" fill="#E5E5E5" stroke="#E5E5E5"/>
<path d="M53 75H55V76H53V75Z" fill="#E5E5E5" stroke="#E5E5E5"/>
<path d="M17 76H18V77H19V78H18V77H17V76Z" fill="#E5E5E5"/>
<path d="M18 77V76H17V77H18ZM18 77H19V78H18V77Z" stroke="#E5E5E5"/>
<path d="M35 76H36V77H35V76Z" fill="#E5E5E5" stroke="#E5E5E5"/>
<path d="M50 76H51V77H50V76Z" fill="#E5E5E5" stroke="#E5E5E5"/>
<path d="M68 76H69V77H68V78H67V77H68V76Z" fill="#E5E5E5"/>
<path d="M68 77H69V76H68V77ZM68 77V78H67V77H68Z" stroke="#E5E5E5"/>
<path d="M21 79H22V80H21V79Z" fill="#E5E5E5" stroke="#E5E5E5"/>
<path d="M64 79H65V80H64V79Z" fill="#E5E5E5" stroke="#E5E5E5"/>
<path d="M23 80H24V81H23V80Z" fill="#E5E5E5" stroke="#E5E5E5"/>
<path d="M62 80H63V81H62V80Z" fill="#E5E5E5" stroke="#E5E5E5"/>
<path d="M25 81H26V82H25V81Z" fill="#E5E5E5" stroke="#E5E5E5"/>
<path d="M60 81H61V82H60V81Z" fill="#E5E5E5" stroke="#E5E5E5"/>
<path d="M57 82H58V83H57V82Z" fill="#E5E5E5" stroke="#E5E5E5"/>
<path d="M31 83H32V84H31V83Z" fill="#E5E5E5" stroke="#E5E5E5"/>
<path d="M54 83H56V84H54V83Z" fill="#E5E5E5" stroke="#E5E5E5"/>
<path d="M35 84H36V85H35V84Z" fill="#E5E5E5" stroke="#E5E5E5"/>
<path d="M50 84H51V85H50V84Z" fill="#E5E5E5" stroke="#E5E5E5"/>
</g>
<defs>
<clipPath id="clip0_2343_600">
<rect width="86" height="86" fill="white"/>
</clipPath>
</defs>
</svg>
