<svg width="72" height="92" viewBox="0 0 72 92" fill="none" xmlns="http://www.w3.org/2000/svg">
<g clip-path="url(#clip0_2343_57)">
<path opacity="0.309804" d="M7 4H8V5H7V4Z" fill="#4D4D4D" stroke="#4D4D4D"/>
<path opacity="0.309804" d="M64 4H65V5H64V4Z" fill="#4D4D4D" stroke="#4D4D4D"/>
<g opacity="0.309804">
<path d="M5 5H6V6H5V7H4V8H3V9H2V8H3V7H4V6H5V5Z" fill="#4D4D4D"/>
<path d="M5 6H6V5H5V6ZM5 6V7H4M5 6H4V7M4 7V8H3M4 7H3V8M3 8V9H2V8H3Z" stroke="#4D4D4D"/>
</g>
<g opacity="0.309804">
<path d="M66 5H67V6H68V7H69V8H70V9H69V8H68V7H67V6H66V5Z" fill="#4D4D4D"/>
<path d="M67 6V5H66V6H67ZM67 6H68V7M67 6V7H68M68 7H69V8M68 7V8H69M69 8H70V9H69V8Z" stroke="#4D4D4D"/>
</g>
<path opacity="0.309804" d="M1 11H2V11.25V82.75V83H1V82.75V11.25V11Z" fill="#4D4D4D" stroke="#4D4D4D"/>
<path opacity="0.309804" d="M70 11H71V11.25V82.75V83H70V82.75V11.25V11Z" fill="#4D4D4D" stroke="#4D4D4D"/>
<path opacity="0.309804" d="M10 13H11V13.25V80.75V81H10V80.75V13.25V13Z" fill="#4D4D4D" stroke="#4D4D4D"/>
<path opacity="0.309804" d="M14 13H15V13.25V50.75V51H14V50.75V13.25V13Z" fill="#4D4D4D" stroke="#4D4D4D"/>
<path opacity="0.309804" d="M23 13H24V13.25V33.75V34H23V33.75V13.25V13Z" fill="#4D4D4D" stroke="#4D4D4D"/>
<path opacity="0.309804" d="M31 13H32V13.25V33.75V34H31V33.75V13.25V13Z" fill="#4D4D4D" stroke="#4D4D4D"/>
<path opacity="0.309804" d="M40 13H41V13.25V50.75V51H40V50.75V13.25V13Z" fill="#4D4D4D" stroke="#4D4D4D"/>
<path opacity="0.309804" d="M61 13H62V13.25V80.75V81H61V80.75V13.25V13Z" fill="#4D4D4D" stroke="#4D4D4D"/>
<path opacity="0.309804" d="M26 31H27V32H26V31Z" fill="#4D4D4D" stroke="#4D4D4D"/>
<g opacity="0.309804">
<path d="M28 31H29V32H30V33H29V32H28V31Z" fill="#4D4D4D"/>
<path d="M29 32V31H28V32H29ZM29 32H30V33H29V32Z" stroke="#4D4D4D"/>
</g>
<g opacity="0.309804">
<path d="M26 42H27V43H26V44H25V43H26V42Z" fill="#4D4D4D"/>
<path d="M26 43H27V42H26V43ZM26 43V44H25V43H26Z" stroke="#4D4D4D"/>
</g>
<g opacity="0.309804">
<path d="M28 42H29V43H30V44H31V45H30V44H29V43H28V42Z" fill="#4D4D4D"/>
<path d="M29 43V42H28V43H29ZM29 43H30V44M29 43V44H30M30 44H31V45H30V44Z" stroke="#4D4D4D"/>
</g>
<g opacity="0.309804">
<path d="M22 45H23V46H22V47H21V46H22V45Z" fill="#4D4D4D"/>
<path d="M22 46H23V45H22V46ZM22 46V47H21V46H22Z" stroke="#4D4D4D"/>
</g>
<g opacity="0.309804">
<path d="M32 45H33V46H34V47H35V48H34V47H33V46H32V45Z" fill="#4D4D4D"/>
<path d="M33 46V45H32V46H33ZM33 46H34V47M33 46V47H34M34 47H35V48H34V47Z" stroke="#4D4D4D"/>
</g>
<g opacity="0.309804">
<path d="M18 48H19V49H18V50H17V49H18V48Z" fill="#4D4D4D"/>
<path d="M18 49H19V48H18V49ZM18 49V50H17V49H18Z" stroke="#4D4D4D"/>
</g>
<g opacity="0.309804">
<path d="M36 48H37V49H38V50H39V51H38V50H37V49H36V48Z" fill="#4D4D4D"/>
<path d="M37 49V48H36V49H37ZM37 49H38V50M37 49V50H38M38 50H39V51H38V50Z" stroke="#4D4D4D"/>
</g>
<g opacity="0.309804">
<path d="M2 85H3V86H4V87H5V88H6V89H5V88H4V87H3V86H2V85Z" fill="#4D4D4D"/>
<path d="M3 86V85H2V86H3ZM3 86H4V87M3 86V87H4M4 87H5V88M4 87V88H5M5 88H6V89H5V88Z" stroke="#4D4D4D"/>
</g>
<g opacity="0.309804">
<path d="M69 85H70V86H69V87H68V88H67V89H66V88H67V87H68V86H69V85Z" fill="#4D4D4D"/>
<path d="M69 86H70V85H69V86ZM69 86V87H68M69 86H68V87M68 87V88H67M68 87H67V88M67 88V89H66V88H67Z" stroke="#4D4D4D"/>
</g>
<path opacity="0.309804" d="M7 89H8V90H7V89Z" fill="#4D4D4D" stroke="#4D4D4D"/>
<path opacity="0.309804" d="M64 89H65V90H64V89Z" fill="#4D4D4D" stroke="#4D4D4D"/>
<path opacity="0.933333" d="M8 4H8.25H63.75H64V5H63.75H8.25H8V4Z" fill="#CDCDCD" stroke="#CDCDCD"/>
<path opacity="0.933333" d="M65 5H66V6H65V5Z" fill="#CDCDCD" stroke="#CDCDCD"/>
<path opacity="0.933333" d="M2 9H3V10H2V9Z" fill="#CDCDCD" stroke="#CDCDCD"/>
<path opacity="0.933333" d="M69 9H70V10H69V9Z" fill="#CDCDCD" stroke="#CDCDCD"/>
<path opacity="0.933333" d="M10 12H10.25H14.75H15V13H14.75H10.25H10V12Z" fill="#CDCDCD" stroke="#CDCDCD"/>
<path opacity="0.933333" d="M23 12H23.25H31.75H32V13H31.75H23.25H23V12Z" fill="#CDCDCD" stroke="#CDCDCD"/>
<path opacity="0.933333" d="M40 12H40.25H61.75H62V13H61.75H40.25H40V12Z" fill="#CDCDCD" stroke="#CDCDCD"/>
<path opacity="0.933333" d="M27 31H28V32H27V31Z" fill="#CDCDCD" stroke="#CDCDCD"/>
<g opacity="0.933333">
<path d="M25 32H26V33H25V34H24V33H25V32Z" fill="#CDCDCD"/>
<path d="M25 33H26V32H25V33ZM25 33V34H24V33H25Z" stroke="#CDCDCD"/>
</g>
<path opacity="0.933333" d="M30 33H31V34H30V33Z" fill="#CDCDCD" stroke="#CDCDCD"/>
<path opacity="0.933333" d="M27 41H28V42H27V41Z" fill="#CDCDCD" stroke="#CDCDCD"/>
<g opacity="0.933333">
<path d="M24 43H25V44H24V45H23V44H24V43Z" fill="#CDCDCD"/>
<path d="M24 44H25V43H24V44ZM24 44V45H23V44H24Z" stroke="#CDCDCD"/>
</g>
<g opacity="0.933333">
<path d="M30 43H31V44H32V45H31V44H30V43Z" fill="#CDCDCD"/>
<path d="M31 44V43H30V44H31ZM31 44H32V45H31V44Z" stroke="#CDCDCD"/>
</g>
<g opacity="0.933333">
<path d="M20 46H21V47H20V48H19V47H20V46Z" fill="#CDCDCD"/>
<path d="M20 47H21V46H20V47ZM20 47V48H19V47H20Z" stroke="#CDCDCD"/>
</g>
<g opacity="0.933333">
<path d="M34 46H35V47H36V48H35V47H34V46Z" fill="#CDCDCD"/>
<path d="M35 47V46H34V47H35ZM35 47H36V48H35V47Z" stroke="#CDCDCD"/>
</g>
<g opacity="0.933333">
<path d="M16 49H17V50H16V51H15V50H16V49Z" fill="#CDCDCD"/>
<path d="M16 50H17V49H16V50ZM16 50V51H15V50H16Z" stroke="#CDCDCD"/>
</g>
<g opacity="0.933333">
<path d="M38 49H39V50H40V51H39V50H38V49Z" fill="#CDCDCD"/>
<path d="M39 50V49H38V50H39ZM39 50H40V51H39V50Z" stroke="#CDCDCD"/>
</g>
<path opacity="0.933333" d="M10 81H10.25H61.75H62V82H61.75H10.25H10V81Z" fill="#CDCDCD" stroke="#CDCDCD"/>
<path opacity="0.933333" d="M2 84H3V85H2V84Z" fill="#CDCDCD" stroke="#CDCDCD"/>
<path opacity="0.933333" d="M69 84H70V85H69V84Z" fill="#CDCDCD" stroke="#CDCDCD"/>
<path opacity="0.933333" d="M6 88H7V89H6V88Z" fill="#CDCDCD" stroke="#CDCDCD"/>
<path opacity="0.933333" d="M8 89H8.25H63.75H64V90H63.75H8.25H8V89Z" fill="#CDCDCD" stroke="#CDCDCD"/>
<path d="M6 5H6.25H64.75H65V6H67V7H68V8H69V10H70V10.25V83.75V84H69V86H68V87H67V88H66V89H65.75H7.25H7V88H5V87H4V86H3V84H2V83.75V10.25V10H3V8H4V7H5V6H6V5ZM10 12V12.5V82H10.5H62V12.5V12H40.5H40V12.5V50H39V49H37V48H36V47H35V46H33V45H32V44H31V43H29V42H28V41H27V42H26V43H24V44H23V45H22V46H20V47H19V48H18V49H16V50H15V12.5C15 12.1667 15 12 15 12H10.5H10ZM23 12V12.5V34H25V33H26V32H26.5H29V33H30V34H32V12.5V12H23.5H23Z" fill="#FDFDFD" stroke="#FDFDFD"/>
</g>
<defs>
<clipPath id="clip0_2343_57">
<rect width="72" height="92" fill="white"/>
</clipPath>
</defs>
</svg>
