<svg width="88" height="80" viewBox="0 0 88 80" fill="none" xmlns="http://www.w3.org/2000/svg">
<g clip-path="url(#clip0_2345_1282)">
<path opacity="0.717647" d="M1 3H1.25H43.75H44V4H43.75H2.25H2V4.25V79.75V80H1V79.75V3.25V3Z" fill="#C8C8C8" stroke="#C8C8C8"/>
<g opacity="0.717647">
<path d="M9 11H9.25H17.75H18V12H19V12.25V19.75V20H18V21H17.75H10.25H10V20H9V19.75V11.25V11ZM10 12V12.5V20H10.5H18V12.5V12H10.5H10Z" fill="#C8C8C8"/>
<path d="M18 12V11H17.75H9.25H9V11.25V19.75V20H10M18 12H19V12.25V19.75V20H18M18 12V12.5V20M18 12H10.5H10V12.5V20M18 20V21H17.75H10.25H10V20M18 20H10.5H10" stroke="#C8C8C8"/>
</g>
<g opacity="0.717647">
<path d="M27 11H27.25H34.75H35V12H36V12.25V19.75V20H35V21H34.75H27.25H27V20H26V19.75V12.25V12H27V11ZM27 12V12.5V20H27.5H35V12.5V12H27.5H27Z" fill="#C8C8C8"/>
<path d="M35 12V11H34.75H27.25H27V12M35 12H36V12.25V19.75V20H35M35 12V12.5V20M35 12H27.5H27M35 20V21H34.75H27.25H27V20M35 20H27.5H27M27 20H26V19.75V12.25V12H27M27 20V12.5V12" stroke="#C8C8C8"/>
</g>
<path opacity="0.717647" d="M44 20H44.25H86.75H87V20.25V79.75V80H86V79.75V21.25V21H85.75H44.25H44V20Z" fill="#C8C8C8" stroke="#C8C8C8"/>
<g opacity="0.717647">
<path d="M10 28H10.25H17.75H18V29H19V29.25V36.75V37H18V38H17.75H10.25H10V37H9V36.75V29.25V29H10V28ZM10 29V29.5V37H10.5H18V29.5V29H10.5H10Z" fill="#C8C8C8"/>
<path d="M18 29V28H17.75H10.25H10V29M18 29H19V29.25V36.75V37H18M18 29V29.5V37M18 29H10.5H10M18 37V38H17.75H10.25H10V37M18 37H10.5H10M10 37H9V36.75V29.25V29H10M10 37V29.5V29" stroke="#C8C8C8"/>
</g>
<g opacity="0.717647">
<path d="M27 28H27.25H35.75H36V28.25V37.75V38H35.75H27.25H27V37H26V36.75V29.25V29H27V28ZM27 29V29.5V37H27.5H35V29.5V29H27.5H27Z" fill="#C8C8C8"/>
<path d="M27 37V38H27.25H35.75H36V37.75V28.25V28H35.75H27.25H27V29M27 37H26V36.75V29.25V29H27M27 37V29.5V29M27 37H27.5H35V29.5V29H27.5H27" stroke="#C8C8C8"/>
</g>
<g opacity="0.717647">
<path d="M44 28H44.25H77.75H78V29H79V29.25V71.75V72H78V71.75V29.25V29H77.75H44.25H44V28Z" fill="#C8C8C8"/>
<path d="M78 29V28H77.75H44.25H44V29H44.25H77.75H78ZM78 29H79V29.25V71.75V72H78V71.75V29.25V29Z" stroke="#C8C8C8"/>
</g>
<g opacity="0.717647">
<path d="M44 37H44.25H51.75H52V38H53V38.25V45.75V46H52.75H44.25H44V45H44.25H51.75H52V44.75V38.25V38H51.75H44.25H44V37Z" fill="#C8C8C8"/>
<path d="M52 38V37H51.75H44.25H44V38H44.25H51.75H52ZM52 38H53V38.25V45.75V46H52.75H44.25H44V45H44.25H51.75H52V44.75V38.25V38Z" stroke="#C8C8C8"/>
</g>
<g opacity="0.717647">
<path d="M61 37H61.25H68.75H69V38H70V38.25V45.75V46H69.75H61.25H61V45.75V37.25V37ZM62 38V38.5V45H62.5H69V38.5V38H62.5H62Z" fill="#C8C8C8"/>
<path d="M69 38V37H68.75H61.25H61V37.25V45.75V46H61.25H69.75H70V45.75V38.25V38H69ZM69 38V38.5V45H62.5H62V38.5V38H62.5H69Z" stroke="#C8C8C8"/>
</g>
<g opacity="0.717647">
<path d="M10 45H10.25H17.75H18V46H19V46.25V54.75V55H18V54.75V46.25V46H17.75H10.25H10V46.25V53.75V54H9V53.75V46.25V46H10V45Z" fill="#C8C8C8"/>
<path d="M18 46V45H17.75H10.25H10V46M18 46H19V46.25V54.75V55H18V54.75V46.25V46ZM18 46H17.75H10.25H10M10 46V46.25V53.75V54H9V53.75V46.25V46H10Z" stroke="#C8C8C8"/>
</g>
<g opacity="0.717647">
<path d="M27 45H27.25H34.75H35V46H36V46.25V54.75V55H35V54.75V46.25V46H34.75H27.25H27V46.25V53.75V54H26V53.75V46.25V46H27V45Z" fill="#C8C8C8"/>
<path d="M35 46V45H34.75H27.25H27V46M35 46H36V46.25V54.75V55H35V54.75V46.25V46ZM35 46H34.75H27.25H27M27 46V46.25V53.75V54H26V53.75V46.25V46H27Z" stroke="#C8C8C8"/>
</g>
<path opacity="0.717647" d="M52 55H53V55.25V62.75V63H52V62.75V55.25V55Z" fill="#C8C8C8" stroke="#C8C8C8"/>
<path opacity="0.717647" d="M61 55H62V55.25V62.75V63H61V62.75V55.25V55Z" fill="#C8C8C8" stroke="#C8C8C8"/>
<path opacity="0.717647" d="M69 55H70V55.25V62.75V63H69V62.75V55.25V55Z" fill="#C8C8C8" stroke="#C8C8C8"/>
<path opacity="0.717647" d="M9 63H10V63.25V71.75V72H9V71.75V63.25V63Z" fill="#C8C8C8" stroke="#C8C8C8"/>
<path opacity="0.717647" d="M18 63H19V63.25V71.75V72H18V71.75V63.25V63Z" fill="#C8C8C8" stroke="#C8C8C8"/>
<path opacity="0.717647" d="M26 63H27V63.25V70.75V71H26V70.75V63.25V63Z" fill="#C8C8C8" stroke="#C8C8C8"/>
<path opacity="0.717647" d="M35 63H36V63.25V71.75V72H35V71.75V63.25V63Z" fill="#C8C8C8" stroke="#C8C8C8"/>
<path opacity="0.996078" d="M43 4H44V4.25V20.75V21H43V20.75V4.25V4Z" fill="#FDFDFD" stroke="#FDFDFD"/>
<path opacity="0.996078" d="M18 11H19V12H18V11Z" fill="#FDFDFD" stroke="#FDFDFD"/>
<path opacity="0.996078" d="M26 11H27V12H26V11Z" fill="#FDFDFD" stroke="#FDFDFD"/>
<path opacity="0.996078" d="M9 20H10V21H9V20Z" fill="#FDFDFD" stroke="#FDFDFD"/>
<path opacity="0.996078" d="M18 20H19V21H18V20Z" fill="#FDFDFD" stroke="#FDFDFD"/>
<path opacity="0.996078" d="M35 20H36V21H35V20Z" fill="#FDFDFD" stroke="#FDFDFD"/>
<path opacity="0.996078" d="M9 28H10V29H9V28Z" fill="#FDFDFD" stroke="#FDFDFD"/>
<path opacity="0.996078" d="M26 28H27V29H26V28Z" fill="#FDFDFD" stroke="#FDFDFD"/>
<path opacity="0.996078" d="M43 28H44V28.25V37.75V38H43V37.75V28.25V28Z" fill="#FDFDFD" stroke="#FDFDFD"/>
<path opacity="0.996078" d="M78 28H79V29H78V28Z" fill="#FDFDFD" stroke="#FDFDFD"/>
<path opacity="0.996078" d="M26 37H27V38H26V37Z" fill="#FDFDFD" stroke="#FDFDFD"/>
<path opacity="0.996078" d="M9 45H10V46H9V45Z" fill="#FDFDFD" stroke="#FDFDFD"/>
<path opacity="0.996078" d="M18 45H19V46H18V45Z" fill="#FDFDFD" stroke="#FDFDFD"/>
<path opacity="0.996078" d="M35 45H36V46H35V45Z" fill="#FDFDFD" stroke="#FDFDFD"/>
<path opacity="0.996078" d="M43 45H44V45.25V54.75V55H43V54.75V45.25V45Z" fill="#FDFDFD" stroke="#FDFDFD"/>
<path opacity="0.996078" d="M26 54H27V55H26V54Z" fill="#FDFDFD" stroke="#FDFDFD"/>
<path opacity="0.996078" d="M43 63H44V63.25V71.75V72H43V71.75V63.25V63Z" fill="#FDFDFD" stroke="#FDFDFD"/>
<path opacity="0.996078" d="M26 71H27V72H26V71Z" fill="#FDFDFD" stroke="#FDFDFD"/>
<path opacity="0.254902" d="M52 37H53V38H52V37Z" fill="#555555" stroke="#555555"/>
<path opacity="0.254902" d="M69 37H70V38H69V37Z" fill="#555555" stroke="#555555"/>
<path opacity="0.254902" d="M10 54H10.25H17.75H18V55H17.75H10.25H10V54Z" fill="#555555" stroke="#555555"/>
<path opacity="0.254902" d="M27 54H27.25H34.75H35V55H34.75H27.25H27V54Z" fill="#555555" stroke="#555555"/>
<path opacity="0.254902" d="M44 54H44.25H52.75H53V55H52.75H44.25H44V54Z" fill="#555555" stroke="#555555"/>
<path opacity="0.254902" d="M61 54H61.25H69.75H70V55H69.75H61.25H61V54Z" fill="#555555" stroke="#555555"/>
<path opacity="0.254902" d="M10 63H10.25H17.75H18V64H17.75H10.25H10V63Z" fill="#555555" stroke="#555555"/>
<path opacity="0.254902" d="M27 63H27.25H34.75H35V64H34.75H27.25H27V63Z" fill="#555555" stroke="#555555"/>
<path opacity="0.254902" d="M44 63H44.25H51.75H52V64H51.75H44.25H44V63Z" fill="#555555" stroke="#555555"/>
<path opacity="0.254902" d="M61 63H61.25H69.75H70V64H69.75H61.25H61V63Z" fill="#555555" stroke="#555555"/>
<path opacity="0.254902" d="M10 71H10.25H17.75H18V72H17.75H10.25H10V71Z" fill="#555555" stroke="#555555"/>
<path opacity="0.254902" d="M27 71H27.25H34.75H35V72H34.75H27.25H27V71Z" fill="#555555" stroke="#555555"/>
<path opacity="0.254902" d="M44 71H44.25H77.75H78V72H77.75H44.25H44V71Z" fill="#555555" stroke="#555555"/>
<path d="M2 4H2.25H42.75H43V4.25V20.75C42.9167 21 43 21.0833 43.25 21H85.75H86V21.25V79.75V80H85.75H2.25H2V79.75V4.25V4ZM9 11V11.5V21H9.5H19V11.5V11H9.5H9ZM26 11V11.5V20H27V21H27.5H36V12.5V12H35V11H26.5H26ZM9 28V28.5V37H10V38H10.5H18V37H19V29.5V29H18V28H9.5H9ZM26 28V28.5V38H26.5H36V28.5V28H26.5H26ZM43 28V28.5V38H43.5H52V38.5V45H43.5H43V45.5V55H43.5H52V55.5V63H43.5H43V63.5V72C43 72 43.1667 72 43.5 72H79V28.5V28H43.5H43ZM9 45V45.5V54H10V55H10.5H19V45.5V45H9.5H9ZM27 45V46H26V46.5V55H26.5H36V45.5V45H27.5H27ZM9 63V63.5V72H9.5H19V63.5V63H9.5H9ZM26 63V63.5V72H26.5H36V63.5V63H26.5H26Z" fill="#FDFDFD" stroke="#FDFDFD"/>
<path d="M62 38H62.25H68.75H69V38.25V44.75V45H68.75H62.25H62V44.75V38.25V38Z" fill="#FDFDFD" stroke="#FDFDFD"/>
<path d="M62 55H62.25H68.75H69V55.25V62.75V63H68.75H62.25H62V62.75V55.25V55Z" fill="#FDFDFD" stroke="#FDFDFD"/>
</g>
<defs>
<clipPath id="clip0_2345_1282">
<rect width="88" height="80" fill="white"/>
</clipPath>
</defs>
</svg>
