<svg width="86" height="87" viewBox="0 0 86 87" fill="none" xmlns="http://www.w3.org/2000/svg">
<g clip-path="url(#clip0_2343_359)">
<path opacity="0.133333" d="M56 4H57V6H56V4Z" fill="#2C2C2C" stroke="#2C2C2C"/>
<path opacity="0.133333" d="M53 11H54V12H53V11Z" fill="#2C2C2C" stroke="#2C2C2C"/>
<g opacity="0.133333">
<path d="M50 14H51V15H50V16H49V15H50V14Z" fill="#2C2C2C"/>
<path d="M50 15H51V14H50V15ZM50 15V16H49V15H50Z" stroke="#2C2C2C"/>
</g>
<path opacity="0.133333" d="M47 16H48V17H47V16Z" fill="#2C2C2C" stroke="#2C2C2C"/>
<g opacity="0.133333">
<path d="M79 16H80V17H79V18H78V19H77V20H76V21H75V22H74V23H73V24H72V25H71V24H72V23H73V22H74V21H75V20H76V19H77V18H78V17H79V16Z" fill="#2C2C2C"/>
<path d="M79 17H80V16H79V17ZM79 17V18H78M79 17H78V18M78 18V19H77M78 18H77V19M77 19V20H76M77 19H76V20M76 20V21H75M76 20H75V21M75 21V22H74M75 21H74V22M74 22V23H73M74 22H73V23M73 23V24H72M73 23H72V24M72 24V25H71V24H72Z" stroke="#2C2C2C"/>
</g>
<path opacity="0.133333" d="M45 17H46V18H45V17Z" fill="#2C2C2C" stroke="#2C2C2C"/>
<path opacity="0.133333" d="M41 18H43V19H41V18Z" fill="#2C2C2C" stroke="#2C2C2C"/>
<path opacity="0.133333" d="M6 19H7V20H6V19Z" fill="#2C2C2C" stroke="#2C2C2C"/>
<g opacity="0.133333">
<path d="M4 20H5V21H4V22H3V23H2V22H3V21H4V20Z" fill="#2C2C2C"/>
<path d="M4 21H5V20H4V21ZM4 21V22H3M4 21H3V22M3 22V23H2V22H3Z" stroke="#2C2C2C"/>
</g>
<path opacity="0.133333" d="M54 21H55V22H54V21Z" fill="#2C2C2C" stroke="#2C2C2C"/>
<g opacity="0.133333">
<path d="M84 22H85V23H84V24H83V25H82V26H81V27H80V28H79V29H78V30H77V29H78V28H79V27H80V26H81V25H82V24H83V23H84V22Z" fill="#2C2C2C"/>
<path d="M84 23H85V22H84V23ZM84 23V24H83M84 23H83V24M83 24V25H82M83 24H82V25M82 25V26H81M82 25H81V26M81 26V27H80M81 26H80V27M80 27V28H79M80 27H79V28M79 28V29H78M79 28H78V29M78 29V30H77V29H78Z" stroke="#2C2C2C"/>
</g>
<path opacity="0.133333" d="M51 23H52V24H51V23Z" fill="#2C2C2C" stroke="#2C2C2C"/>
<path opacity="0.133333" d="M49 24H50V25H49V24Z" fill="#2C2C2C" stroke="#2C2C2C"/>
<path opacity="0.133333" d="M46 25H47V26H46V25Z" fill="#2C2C2C" stroke="#2C2C2C"/>
<path opacity="0.133333" d="M10 26H10.25H41.75H42V27H41.75H10.25H10V26Z" fill="#2C2C2C" stroke="#2C2C2C"/>
<path opacity="0.133333" d="M8 27H9V28H8V27Z" fill="#2C2C2C" stroke="#2C2C2C"/>
<path opacity="0.133333" d="M7 30H8V30.25V43.75V44H7V43.75V30.25V30Z" fill="#2C2C2C" stroke="#2C2C2C"/>
<g opacity="0.133333">
<path d="M75 44H76V45H75V46H74V47H73V48H72V50H73V51H74V52H75V53H76V54H77V55H78V56H79V57H80V58H79V57H78V56H77V55H76V54H75V53H74V52H73V51H72V50H71V48H72V47H73V46H74V45H75V44Z" fill="#2C2C2C"/>
<path d="M75 45H76V44H75V45ZM75 45V46H74M75 45H74V46M74 46V47H73M74 46H73V47M73 47V48H72M73 47H72V48M72 48V50M72 48H71V50H72M72 50H73V51M72 50V51H73M73 51H74V52M73 51V52H74M74 52H75V53M74 52V53H75M75 53H76V54M75 53V54H76M76 54H77V55M76 54V55H77M77 55H78V56M77 55V56H78M78 56H79V57M78 56V57H79M79 57H80V58H79V57Z" stroke="#2C2C2C"/>
</g>
<g opacity="0.133333">
<path d="M77 44H78V45H79V46H80V47H81V48H82V49H83V50H84V51H85V52H84V51H83V50H82V49H81V48H80V47H79V46H78V45H77V44Z" fill="#2C2C2C"/>
<path d="M78 45V44H77V45H78ZM78 45H79V46M78 45V46H79M79 46H80V47M79 46V47H80M80 47H81V48M80 47V48H81M81 48H82V49M81 48V49H82M82 49H83V50M82 49V50H83M83 50H84V51M83 50V51H84M84 51H85V52H84V51Z" stroke="#2C2C2C"/>
</g>
<path opacity="0.133333" d="M0 47H1V48H0V47Z" fill="#2C2C2C" stroke="#2C2C2C"/>
<path opacity="0.133333" d="M42 47H44V48H42V47Z" fill="#2C2C2C" stroke="#2C2C2C"/>
<path opacity="0.133333" d="M47 48H48V49H47V48Z" fill="#2C2C2C" stroke="#2C2C2C"/>
<path opacity="0.133333" d="M1 49H2V50H1V49Z" fill="#2C2C2C" stroke="#2C2C2C"/>
<path opacity="0.133333" d="M49 49H50V50H49V49Z" fill="#2C2C2C" stroke="#2C2C2C"/>
<path opacity="0.133333" d="M53 51H54V52H53V51Z" fill="#2C2C2C" stroke="#2C2C2C"/>
<path opacity="0.133333" d="M5 53H6V54H5V53Z" fill="#2C2C2C" stroke="#2C2C2C"/>
<path opacity="0.133333" d="M31 55H32V56H31V55Z" fill="#2C2C2C" stroke="#2C2C2C"/>
<path opacity="0.133333" d="M43 55H44V56H43V55Z" fill="#2C2C2C" stroke="#2C2C2C"/>
<path opacity="0.133333" d="M46 56H47V57H46V56Z" fill="#2C2C2C" stroke="#2C2C2C"/>
<path opacity="0.133333" d="M7 57H8V58H7V57Z" fill="#2C2C2C" stroke="#2C2C2C"/>
<path opacity="0.133333" d="M23 57H24V58H23V57Z" fill="#2C2C2C" stroke="#2C2C2C"/>
<path opacity="0.133333" d="M48 57H49V58H48V57Z" fill="#2C2C2C" stroke="#2C2C2C"/>
<path opacity="0.133333" d="M16 58H17V59H16V58Z" fill="#2C2C2C" stroke="#2C2C2C"/>
<path opacity="0.133333" d="M32 58H33V59H32V58Z" fill="#2C2C2C" stroke="#2C2C2C"/>
<path opacity="0.133333" d="M8 59H9V60H8V59Z" fill="#2C2C2C" stroke="#2C2C2C"/>
<path opacity="0.133333" d="M24 59H25V60H24V59Z" fill="#2C2C2C" stroke="#2C2C2C"/>
<path opacity="0.133333" d="M17 60H18V61H17V60Z" fill="#2C2C2C" stroke="#2C2C2C"/>
<path opacity="0.133333" d="M33 60H34V61H33V60Z" fill="#2C2C2C" stroke="#2C2C2C"/>
<path opacity="0.133333" d="M9 61H10V62H9V61Z" fill="#2C2C2C" stroke="#2C2C2C"/>
<path opacity="0.133333" d="M25 61H26V62H25V61Z" fill="#2C2C2C" stroke="#2C2C2C"/>
<path opacity="0.133333" d="M18 62H19V63H18V62Z" fill="#2C2C2C" stroke="#2C2C2C"/>
<path opacity="0.133333" d="M34 62H35V63H34V62Z" fill="#2C2C2C" stroke="#2C2C2C"/>
<g opacity="0.133333">
<path d="M53 62H54V63H55V64H54V63H53V62Z" fill="#2C2C2C"/>
<path d="M54 63V62H53V63H54ZM54 63H55V64H54V63Z" stroke="#2C2C2C"/>
</g>
<path opacity="0.133333" d="M26 63H27V64H26V63Z" fill="#2C2C2C" stroke="#2C2C2C"/>
<path opacity="0.133333" d="M35 64H36V65H35V64Z" fill="#2C2C2C" stroke="#2C2C2C"/>
<path opacity="0.133333" d="M55 65H56V66H55V65Z" fill="#2C2C2C" stroke="#2C2C2C"/>
<path opacity="0.133333" d="M11 66H12V67H11V66Z" fill="#2C2C2C" stroke="#2C2C2C"/>
<path opacity="0.133333" d="M27 66H28V67H27V66Z" fill="#2C2C2C" stroke="#2C2C2C"/>
<path opacity="0.133333" d="M20 67H21V68H20V67Z" fill="#2C2C2C" stroke="#2C2C2C"/>
<path opacity="0.133333" d="M36 67H37V68H36V67Z" fill="#2C2C2C" stroke="#2C2C2C"/>
<path opacity="0.133333" d="M12 68H13V69H12V68Z" fill="#2C2C2C" stroke="#2C2C2C"/>
<path opacity="0.133333" d="M28 68H29V69H28V68Z" fill="#2C2C2C" stroke="#2C2C2C"/>
<path opacity="0.133333" d="M56 68H57V69H56V68Z" fill="#2C2C2C" stroke="#2C2C2C"/>
<path opacity="0.133333" d="M21 69H22V70H21V69Z" fill="#2C2C2C" stroke="#2C2C2C"/>
<path opacity="0.133333" d="M37 69H38V70H37V69Z" fill="#2C2C2C" stroke="#2C2C2C"/>
<path opacity="0.133333" d="M13 70H14V71H13V70Z" fill="#2C2C2C" stroke="#2C2C2C"/>
<path opacity="0.133333" d="M29 70H30V71H29V70Z" fill="#2C2C2C" stroke="#2C2C2C"/>
<path opacity="0.133333" d="M22 71H23V72H22V71Z" fill="#2C2C2C" stroke="#2C2C2C"/>
<path opacity="0.133333" d="M38 71H39V72H38V71Z" fill="#2C2C2C" stroke="#2C2C2C"/>
<path opacity="0.133333" d="M30 72H31V73H30V72Z" fill="#2C2C2C" stroke="#2C2C2C"/>
<path opacity="0.133333" d="M64 72H65V73H64V72Z" fill="#2C2C2C" stroke="#2C2C2C"/>
<path opacity="0.133333" d="M39 73H40V75H39V73Z" fill="#2C2C2C" stroke="#2C2C2C"/>
<path opacity="0.133333" d="M15 75H16V76H15V75Z" fill="#2C2C2C" stroke="#2C2C2C"/>
<path opacity="0.133333" d="M31 75H32V76H31V75Z" fill="#2C2C2C" stroke="#2C2C2C"/>
<path opacity="0.133333" d="M24 76H25V77H24V76Z" fill="#2C2C2C" stroke="#2C2C2C"/>
<path opacity="0.133333" d="M16 77H17V78H16V77Z" fill="#2C2C2C" stroke="#2C2C2C"/>
<g opacity="0.133333">
<path d="M25 78H26V79H26.25H29.75H30V80H29.75H26.25H26V79H25V78Z" fill="#2C2C2C"/>
<path d="M26 79V78H25V79H26ZM26 79H26.25H29.75H30V80H29.75H26.25H26V79Z" stroke="#2C2C2C"/>
</g>
<path opacity="0.133333" d="M31 78H32V79H31V78Z" fill="#2C2C2C" stroke="#2C2C2C"/>
<path opacity="0.133333" d="M17 79H18V80H17V79Z" fill="#2C2C2C" stroke="#2C2C2C"/>
<path opacity="0.133333" d="M39 80H40V81H39V80Z" fill="#2C2C2C" stroke="#2C2C2C"/>
<g opacity="0.133333">
<path d="M38 82H39V83H38V84H37V85H36V86H35V85H36V84H37V83H38V82Z" fill="#2C2C2C"/>
<path d="M38 83H39V82H38V83ZM38 83V84H37M38 83H37V84M37 84V85H36M37 84H36V85M36 85V86H35V85H36Z" stroke="#2C2C2C"/>
</g>
<path opacity="0.133333" d="M19 84H20V85H19V84Z" fill="#2C2C2C" stroke="#2C2C2C"/>
<path opacity="0.133333" d="M20 86H21V87H20V86Z" fill="#2C2C2C" stroke="#2C2C2C"/>
<path opacity="0.133333" d="M33 86H34V87H33V86Z" fill="#2C2C2C" stroke="#2C2C2C"/>
<path opacity="0.992157" d="M58 1H58.25H63.75H64V2H63.75H58.25C58 1.91667 57.9167 2 58 2.25C58 3.16667 58 3.75 58 4H57V2H58V1Z" fill="#E9E9E9" stroke="#E9E9E9"/>
<path opacity="0.992157" d="M56 7H57V8H56V7Z" fill="#E9E9E9" stroke="#E9E9E9"/>
<path opacity="0.992157" d="M55 9H56V10H55V9Z" fill="#E9E9E9" stroke="#E9E9E9"/>
<g opacity="0.992157">
<path d="M54 11H55V12H54V13H53V12H54V11Z" fill="#E9E9E9"/>
<path d="M54 12H55V11H54V12ZM54 12V13H53V12H54Z" stroke="#E9E9E9"/>
</g>
<g opacity="0.992157">
<path d="M50 15H51V16H50V17H49V16H50V15Z" fill="#E9E9E9"/>
<path d="M50 16H51V15H50V16ZM50 16V17H49V16H50Z" stroke="#E9E9E9"/>
</g>
<path opacity="0.992157" d="M47 17H48V18H47V17Z" fill="#E9E9E9" stroke="#E9E9E9"/>
<g opacity="0.992157">
<path d="M79 17H80V18H79V19H78V20H77V21H76V22H75V23H74V24H73V25H72V24H73V23H74V22H75V21H76V20H77V19H78V18H79V17Z" fill="#E9E9E9"/>
<path d="M79 18H80V17H79V18ZM79 18V19H78M79 18H78V19M78 19V20H77M78 19H77V20M77 20V21H76M77 20H76V21M76 21V22H75M76 21H75V22M75 22V23H74M75 22H74V23M74 23V24H73M74 23H73V24M73 24V25H72V24H73Z" stroke="#E9E9E9"/>
</g>
<path opacity="0.992157" d="M44 18H46V19H44V18Z" fill="#E9E9E9" stroke="#E9E9E9"/>
<path opacity="0.992157" d="M9 19H10V20H9V19Z" fill="#E9E9E9" stroke="#E9E9E9"/>
<path opacity="0.992157" d="M57 19H58V19.25V54.75V55H57V54.75V19.25V19Z" fill="#E9E9E9" stroke="#E9E9E9"/>
<path opacity="0.992157" d="M6 20H7V21H6V20Z" fill="#E9E9E9" stroke="#E9E9E9"/>
<g opacity="0.992157">
<path d="M54 20H55V21H54V22H53V21H54V20Z" fill="#E9E9E9"/>
<path d="M54 21H55V20H54V21ZM54 21V22H53V21H54Z" stroke="#E9E9E9"/>
</g>
<g opacity="0.992157">
<path d="M4 21H5V22H4V23H3V24H2V23H3V22H4V21Z" fill="#E9E9E9"/>
<path d="M4 22H5V21H4V22ZM4 22V23H3M4 22H3V23M3 23V24H2V23H3Z" stroke="#E9E9E9"/>
</g>
<path opacity="0.992157" d="M51 22H52V23H51V22Z" fill="#E9E9E9" stroke="#E9E9E9"/>
<g opacity="0.992157">
<path d="M83 22H84V23H83V24H82V25H81V26H80V27H79V28H78V29H77V28H78V27H79V26H80V25H81V24H82V23H83V22Z" fill="#E9E9E9"/>
<path d="M83 23H84V22H83V23ZM83 23V24H82M83 23H82V24M82 24V25H81M82 24H81V25M81 25V26H80M81 25H80V26M80 26V27H79M80 26H79V27M79 27V28H78M79 27H78V28M78 28V29H77V28H78Z" stroke="#E9E9E9"/>
</g>
<path opacity="0.992157" d="M49 23H50V24H49V23Z" fill="#E9E9E9" stroke="#E9E9E9"/>
<path opacity="0.992157" d="M47 24H48V25H47V24Z" fill="#E9E9E9" stroke="#E9E9E9"/>
<path opacity="0.992157" d="M1 25H2V26H1V25Z" fill="#E9E9E9" stroke="#E9E9E9"/>
<path opacity="0.992157" d="M43 25H44V26H43V25Z" fill="#E9E9E9" stroke="#E9E9E9"/>
<g opacity="0.992157">
<path d="M8 26H9V27H8V28H7V27H8V26Z" fill="#E9E9E9"/>
<path d="M8 27H9V26H8V27ZM8 27V28H7V27H8Z" stroke="#E9E9E9"/>
</g>
<path opacity="0.992157" d="M0 28H1V28.25V44.75V45H0V44.75V28.25V28Z" fill="#E9E9E9" stroke="#E9E9E9"/>
<path opacity="0.992157" d="M75 34H76V34.25V39.75V40H75V39.75V34.25V34Z" fill="#E9E9E9" stroke="#E9E9E9"/>
<path opacity="0.992157" d="M85 34H86V34.25V39.75V40H85V39.75V34.25V34Z" fill="#E9E9E9" stroke="#E9E9E9"/>
<g opacity="0.992157">
<path d="M75 45H76V46H75V47H74V48H73V50H74V51H75V52H76V53H77V54H78V55H79V56H80V57H79V56H78V55H77V54H76V53H75V52H74V51H73V50H72V48H73V47H74V46H75V45Z" fill="#E9E9E9"/>
<path d="M75 46H76V45H75V46ZM75 46V47H74M75 46H74V47M74 47V48H73M74 47H73V48M73 48V50M73 48H72V50H73M73 50H74V51M73 50V51H74M74 51H75V52M74 51V52H75M75 52H76V53M75 52V53H76M76 53H77V54M76 53V54H77M77 54H78V55M77 54V55H78M78 55H79V56M78 55V56H79M79 56H80V57H79V56Z" stroke="#E9E9E9"/>
</g>
<g opacity="0.992157">
<path d="M77 45H78V46H79V47H80V48H81V49H82V50H83V51H84V52H83V51H82V50H81V49H80V48H79V47H78V46H77V45Z" fill="#E9E9E9"/>
<path d="M78 46V45H77V46H78ZM78 46H79V47M78 46V47H79M79 47H80V48M79 47V48H80M80 48H81V49M80 48V49H81M81 49H82V50M81 49V50H82M82 50H83V51M82 50V51H83M83 51H84V52H83V51Z" stroke="#E9E9E9"/>
</g>
<path opacity="0.992157" d="M1 48H2V49H1V48Z" fill="#E9E9E9" stroke="#E9E9E9"/>
<path opacity="0.992157" d="M44 48H45V49H44V48Z" fill="#E9E9E9" stroke="#E9E9E9"/>
<path opacity="0.992157" d="M50 50H51V51H50V50Z" fill="#E9E9E9" stroke="#E9E9E9"/>
<path opacity="0.992157" d="M3 51H4V52H3V51Z" fill="#E9E9E9" stroke="#E9E9E9"/>
<path opacity="0.992157" d="M53 52H54V53H53V52Z" fill="#E9E9E9" stroke="#E9E9E9"/>
<path opacity="0.992157" d="M6 53H7V54H6V53Z" fill="#E9E9E9" stroke="#E9E9E9"/>
<g opacity="0.992157">
<path d="M14 54H14.25H22.75H23V55H24V56H23V55H22.75H15.25H15V56H14V54Z" fill="#E9E9E9"/>
<path d="M23 55V54H22.75H14.25H14V56H15V55H15.25H22.75H23ZM23 55H24V56H23V55Z" stroke="#E9E9E9"/>
</g>
<path opacity="0.992157" d="M30 54H30.25H41.75H42V55H41.75H31.25H31V56H30V54Z" fill="#E9E9E9" stroke="#E9E9E9"/>
<path opacity="0.992157" d="M7 55H8V56H7V55Z" fill="#E9E9E9" stroke="#E9E9E9"/>
<path opacity="0.992157" d="M45 55H46V56H45V55Z" fill="#E9E9E9" stroke="#E9E9E9"/>
<path opacity="0.992157" d="M8 57H9V58H8V57Z" fill="#E9E9E9" stroke="#E9E9E9"/>
<path opacity="0.992157" d="M15 57H16V58H15V57Z" fill="#E9E9E9" stroke="#E9E9E9"/>
<path opacity="0.992157" d="M24 57H25V58H24V57Z" fill="#E9E9E9" stroke="#E9E9E9"/>
<path opacity="0.992157" d="M31 57H32V58H31V57Z" fill="#E9E9E9" stroke="#E9E9E9"/>
<path opacity="0.992157" d="M49 57H50V58H49V57Z" fill="#E9E9E9" stroke="#E9E9E9"/>
<path opacity="0.992157" d="M16 59H17V60H16V59Z" fill="#E9E9E9" stroke="#E9E9E9"/>
<path opacity="0.992157" d="M25 59H26V60H25V59Z" fill="#E9E9E9" stroke="#E9E9E9"/>
<path opacity="0.992157" d="M32 59H33V60H32V59Z" fill="#E9E9E9" stroke="#E9E9E9"/>
<path opacity="0.992157" d="M9 60H10V61H9V60Z" fill="#E9E9E9" stroke="#E9E9E9"/>
<path opacity="0.992157" d="M10 62H11V63H10V62Z" fill="#E9E9E9" stroke="#E9E9E9"/>
<path opacity="0.992157" d="M17 62H18V63H17V62Z" fill="#E9E9E9" stroke="#E9E9E9"/>
<path opacity="0.992157" d="M26 62H27V63H26V62Z" fill="#E9E9E9" stroke="#E9E9E9"/>
<path opacity="0.992157" d="M54 62H55V63H54V62Z" fill="#E9E9E9" stroke="#E9E9E9"/>
<path opacity="0.992157" d="M11 64H12V65H11V64Z" fill="#E9E9E9" stroke="#E9E9E9"/>
<path opacity="0.992157" d="M18 64H19V65H18V64Z" fill="#E9E9E9" stroke="#E9E9E9"/>
<path opacity="0.992157" d="M27 64H28V65H27V64Z" fill="#E9E9E9" stroke="#E9E9E9"/>
<path opacity="0.992157" d="M34 64H35V65H34V64Z" fill="#E9E9E9" stroke="#E9E9E9"/>
<path opacity="0.992157" d="M55 64H56V65H55V64Z" fill="#E9E9E9" stroke="#E9E9E9"/>
<path opacity="0.992157" d="M12 66H13V67H12V66Z" fill="#E9E9E9" stroke="#E9E9E9"/>
<path opacity="0.992157" d="M19 66H20V67H19V66Z" fill="#E9E9E9" stroke="#E9E9E9"/>
<path opacity="0.992157" d="M28 66H29V67H28V66Z" fill="#E9E9E9" stroke="#E9E9E9"/>
<path opacity="0.992157" d="M35 66H36V67H35V66Z" fill="#E9E9E9" stroke="#E9E9E9"/>
<path opacity="0.992157" d="M56 66H57V67H56V66Z" fill="#E9E9E9" stroke="#E9E9E9"/>
<path opacity="0.992157" d="M20 68H21V69H20V68Z" fill="#E9E9E9" stroke="#E9E9E9"/>
<path opacity="0.992157" d="M29 68H30V69H29V68Z" fill="#E9E9E9" stroke="#E9E9E9"/>
<path opacity="0.992157" d="M36 68H37V69H36V68Z" fill="#E9E9E9" stroke="#E9E9E9"/>
<path opacity="0.992157" d="M13 69H14V70H13V69Z" fill="#E9E9E9" stroke="#E9E9E9"/>
<path opacity="0.992157" d="M57 69H58V69.25V71.75V72H57V71.75V69.25V69Z" fill="#E9E9E9" stroke="#E9E9E9"/>
<path opacity="0.992157" d="M14 71H15V72H14V71Z" fill="#E9E9E9" stroke="#E9E9E9"/>
<path opacity="0.992157" d="M21 71H22V72H21V71Z" fill="#E9E9E9" stroke="#E9E9E9"/>
<path opacity="0.992157" d="M30 71H31V72H30V71Z" fill="#E9E9E9" stroke="#E9E9E9"/>
<path opacity="0.992157" d="M15 73H16V74H15V73Z" fill="#E9E9E9" stroke="#E9E9E9"/>
<path opacity="0.992157" d="M22 73H23V74H22V73Z" fill="#E9E9E9" stroke="#E9E9E9"/>
<path opacity="0.992157" d="M31 73H32V74H31V73Z" fill="#E9E9E9" stroke="#E9E9E9"/>
<path opacity="0.992157" d="M38 73H39V74H38V73Z" fill="#E9E9E9" stroke="#E9E9E9"/>
<path opacity="0.992157" d="M16 75H17V76H16V75Z" fill="#E9E9E9" stroke="#E9E9E9"/>
<path opacity="0.992157" d="M23 75H24V76H23V75Z" fill="#E9E9E9" stroke="#E9E9E9"/>
<path opacity="0.992157" d="M32 75H33V76H32V75Z" fill="#E9E9E9" stroke="#E9E9E9"/>
<path opacity="0.992157" d="M24 77H25V78H24V77Z" fill="#E9E9E9" stroke="#E9E9E9"/>
<path opacity="0.992157" d="M17 78H18V79H17V78Z" fill="#E9E9E9" stroke="#E9E9E9"/>
<g opacity="0.992157">
<path d="M32 78H33V79H32V80H31V79H32V78Z" fill="#E9E9E9"/>
<path d="M32 79H33V78H32V79ZM32 79V80H31V79H32Z" stroke="#E9E9E9"/>
</g>
<path opacity="0.992157" d="M18 80H19V81H18V80Z" fill="#E9E9E9" stroke="#E9E9E9"/>
<path opacity="0.992157" d="M19 82H20V83H19V82Z" fill="#E9E9E9" stroke="#E9E9E9"/>
<path opacity="0.992157" d="M37 82H38V83H37V82Z" fill="#E9E9E9" stroke="#E9E9E9"/>
<path opacity="0.992157" d="M20 84H21V85H20V84Z" fill="#E9E9E9" stroke="#E9E9E9"/>
<g opacity="0.992157">
<path d="M35 84H36V85H35V86H34V85H35V84Z" fill="#E9E9E9"/>
<path d="M35 85H36V84H35V85ZM35 85V86H34V85H35Z" stroke="#E9E9E9"/>
</g>
<path opacity="0.992157" d="M21 86H21.25H30.75H31V87H30.75H21.25H21V86Z" fill="#E9E9E9" stroke="#E9E9E9"/>
<path d="M58 2H58.25H63.75C64 1.91667 64.0833 2 64 2.25V71.75V72H63.75H58.25H58V71.75V69.25V69H57V68.75V66.25V66H56C56 65.75 56 65.1667 56 64.25V64H55V62H54V61H53V60H52V59H51V58H50V57H48V56H46V55H45.75H42.25H42V54H41.75H30.25H30V56H31V58H32C32 58.25 32 58.8333 32 59.75V60H33V62H34V62.25V64.75V65H35V67H36V69H37V71H38V71.25V73.75V74H39V74.25V80.75V81H38V82H37V84H35V85H34V86H33.75H21.25H21V84H20V82H19V80H18V78H17V77.75V75.25V75H16V73H15V71H14V69H13V68.75V66.25V66H12V64H11C11 63.75 11 63.1667 11 62.25V62H10V60H9V59.75V57.25V57H8C8 56.75 8 56.1667 8 55.25V55H7V53H5V52H4V51H3V50H2V48H1V47.75V26.25V26H2V24H3V23H4V22H5V21H7V20H7.25H9.75H10V19H10.25H45.75H46V18C46.25 18 46.8333 18 47.75 18H48V17H50V16H51V15H52V14H53V13H54V12H55V10H56V8H57V7.75V4.25V4H58V2ZM56 19V20H54V21H53V22H51V23C50 23 49.3333 23 49 23V24H47V25H43.5H43V26H8.5H8V27H7V27.5V46H8V47H9V48H9.5H44V49H44.5H48V50H50V51H52V52H53V53H55V54H56V55H58V19.5C58 19.1667 58 19 58 19C57 19 56.3333 19 56 19ZM14 54V56H15V56.5C15 57.1667 15 57.6667 15 58H16V60H17V60.5V63H18V65H19V67H20V69H21V69.5V72H22V74H23V76H24V78H25V80H25.5H32V79H33V75.5V75H32V73H31V71H30V68.5V68H29V66H28C28 65 28 64.3333 28 64H27V62H26V59.5V59H25V57H24V55H23V54H14.5H14Z" fill="#FDFDFD" stroke="#FDFDFD"/>
<path d="M79 18H81V19H82V20H83V21H84V22H83V23H82V24H81V25H80V26H79V27H78V28H77V29H76V28H75V27H74V26H73V24H74V23H75V22H76V21H77V20H78V19H79V18Z" fill="#FDFDFD" stroke="#FDFDFD"/>
<path d="M76 34H76.25H84.75H85V34.25V39.75V40H84.75H76.25H76V39.75V34.25V34Z" fill="#FDFDFD" stroke="#FDFDFD"/>
<path d="M76 45H77V46H78V47H79V48H80V49H81V50H82V51H83V52H84V53H83V54H82V55H81V56H79V55H78V54H77V53H76V52H75V51H74V50H73V48H74V47H75V46H76V45Z" fill="#FDFDFD" stroke="#FDFDFD"/>
<path opacity="0.576471" d="M57 1H58V2H57V1Z" fill="#878787" stroke="#878787"/>
<path opacity="0.576471" d="M64 1H65V1.25V71.75V72H64V73H63.75H57.25H57V72H57.25H63.75C64 72.0833 64.0833 72 64 71.75V1.25V1Z" fill="#878787" stroke="#878787"/>
<path opacity="0.576471" d="M56 6H57V7H56V6Z" fill="#878787" stroke="#878787"/>
<path opacity="0.576471" d="M55 8H56V9H55V8Z" fill="#878787" stroke="#878787"/>
<path opacity="0.576471" d="M54 10H55V11H54V10Z" fill="#878787" stroke="#878787"/>
<g opacity="0.576471">
<path d="M52 13H53V14H52V15H51V14H52V13Z" fill="#878787"/>
<path d="M52 14H53V13H52V14ZM52 14V15H51V14H52Z" stroke="#878787"/>
</g>
<path opacity="0.576471" d="M48 16H49V17H48V16Z" fill="#878787" stroke="#878787"/>
<path opacity="0.576471" d="M46 17H47V18H46V17Z" fill="#878787" stroke="#878787"/>
<g opacity="0.576471">
<path d="M80 17H81V18H82V19H83V20H84V21H85V22H84V21H83V20H82V19H81V18H80V17Z" fill="#878787"/>
<path d="M81 18V17H80V18H81ZM81 18H82V19M81 18V19H82M82 19H83V20M82 19V20H83M83 20H84V21M83 20V21H84M84 21H85V22H84V21Z" stroke="#878787"/>
</g>
<path opacity="0.576471" d="M43 18H44V19H43V18Z" fill="#878787" stroke="#878787"/>
<path opacity="0.576471" d="M7 19H9V20H7V19Z" fill="#878787" stroke="#878787"/>
<g opacity="0.576471">
<path d="M56 19H57V20H56V21H55V20H56V19Z" fill="#878787"/>
<path d="M56 20H57V19H56V20ZM56 20V21H55V20H56Z" stroke="#878787"/>
</g>
<path opacity="0.576471" d="M5 20H6V21H5V20Z" fill="#878787" stroke="#878787"/>
<path opacity="0.576471" d="M52 22H53V23H52V22Z" fill="#878787" stroke="#878787"/>
<path opacity="0.576471" d="M50 23H51V24H50V23Z" fill="#878787" stroke="#878787"/>
<path opacity="0.576471" d="M1 24H2V25H1V24Z" fill="#878787" stroke="#878787"/>
<path opacity="0.576471" d="M48 24H49V25H48V24Z" fill="#878787" stroke="#878787"/>
<path opacity="0.576471" d="M44 25H46V26H44V25Z" fill="#878787" stroke="#878787"/>
<g opacity="0.576471">
<path d="M72 25H73V26H74V27H75V28H76V29H77V30H76V29H75V28H74V27H73V26H72V25Z" fill="#878787"/>
<path d="M73 26V25H72V26H73ZM73 26H74V27M73 26V27H74M74 27H75V28M74 27V28H75M75 28H76V29M75 28V29H76M76 29H77V30H76V29Z" stroke="#878787"/>
</g>
<path opacity="0.576471" d="M0 26H1V28H0V26Z" fill="#878787" stroke="#878787"/>
<path opacity="0.576471" d="M9 26H10V27H9V26Z" fill="#878787" stroke="#878787"/>
<path opacity="0.576471" d="M7 28H8V30H7V28Z" fill="#878787" stroke="#878787"/>
<path opacity="0.576471" d="M75 33H75.25H85.75H86V34H85.75H75.25H75V33Z" fill="#878787" stroke="#878787"/>
<path opacity="0.576471" d="M75 40H75.25H85.75H86V41H85.75H75.25H75V40Z" fill="#878787" stroke="#878787"/>
<g opacity="0.576471">
<path d="M7 44H8V46H9V47H9.25H41.75H42V48H41.75H9.25H9V47H8V46H7V44Z" fill="#878787"/>
<path d="M8 46V44H7V46H8ZM8 46H9V47M8 46V47H9M9 47H9.25H41.75H42V48H41.75H9.25H9V47Z" stroke="#878787"/>
</g>
<path opacity="0.576471" d="M76 44H77V45H76V44Z" fill="#878787" stroke="#878787"/>
<path opacity="0.576471" d="M0 45H1V47H0V45Z" fill="#878787" stroke="#878787"/>
<path opacity="0.576471" d="M45 48H47V49H45V48Z" fill="#878787" stroke="#878787"/>
<path opacity="0.576471" d="M48 49H49V50H48V49Z" fill="#878787" stroke="#878787"/>
<path opacity="0.576471" d="M2 50H3V51H2V50Z" fill="#878787" stroke="#878787"/>
<g opacity="0.576471">
<path d="M51 50H52V51H53V52H52V51H51V50Z" fill="#878787"/>
<path d="M52 51V50H51V51H52ZM52 51H53V52H52V51Z" stroke="#878787"/>
</g>
<path opacity="0.576471" d="M4 52H5V53H4V52Z" fill="#878787" stroke="#878787"/>
<g opacity="0.576471">
<path d="M54 52H55V53H56V54H57V55H56V54H55V53H54V52Z" fill="#878787"/>
<path d="M55 53V52H54V53H55ZM55 53H56V54M55 53V54H56M56 54H57V55H56V54Z" stroke="#878787"/>
</g>
<g opacity="0.576471">
<path d="M84 52H85V53H84V54H83V55H82V56H81V57H80V56H81V55H82V54H83V53H84V52Z" fill="#878787"/>
<path d="M84 53H85V52H84V53ZM84 53V54H83M84 53H83V54M83 54V55H82M83 54H82V55M82 55V56H81M82 55H81V56M81 56V57H80V56H81Z" stroke="#878787"/>
</g>
<path opacity="0.576471" d="M6 54H7V55H6V54Z" fill="#878787" stroke="#878787"/>
<path opacity="0.576471" d="M44 55H45V56H44V55Z" fill="#878787" stroke="#878787"/>
<path opacity="0.576471" d="M7 56H8V57H7V56Z" fill="#878787" stroke="#878787"/>
<path opacity="0.576471" d="M15 56H16V57H15V56Z" fill="#878787" stroke="#878787"/>
<path opacity="0.576471" d="M23 56H24V57H23V56Z" fill="#878787" stroke="#878787"/>
<path opacity="0.576471" d="M31 56H32V57H31V56Z" fill="#878787" stroke="#878787"/>
<path opacity="0.576471" d="M47 56H48V57H47V56Z" fill="#878787" stroke="#878787"/>
<path opacity="0.576471" d="M8 58H9V59H8V58Z" fill="#878787" stroke="#878787"/>
<path opacity="0.576471" d="M24 58H25V59H24V58Z" fill="#878787" stroke="#878787"/>
<g opacity="0.576471">
<path d="M50 58H51V59H52V60H53V61H54V62H53V61H52V60H51V59H50V58Z" fill="#878787"/>
<path d="M51 59V58H50V59H51ZM51 59H52V60M51 59V60H52M52 60H53V61M52 60V61H53M53 61H54V62H53V61Z" stroke="#878787"/>
</g>
<path opacity="0.576471" d="M25 60H26V61H25V60Z" fill="#878787" stroke="#878787"/>
<path opacity="0.576471" d="M17 61H18V62H17V61Z" fill="#878787" stroke="#878787"/>
<path opacity="0.576471" d="M33 61H34V62H33V61Z" fill="#878787" stroke="#878787"/>
<path opacity="0.576471" d="M10 63H11V64H10V63Z" fill="#878787" stroke="#878787"/>
<path opacity="0.576471" d="M18 63H19V64H18V63Z" fill="#878787" stroke="#878787"/>
<path opacity="0.576471" d="M34 63H35V64H34V63Z" fill="#878787" stroke="#878787"/>
<path opacity="0.576471" d="M11 65H12V66H11V65Z" fill="#878787" stroke="#878787"/>
<path opacity="0.576471" d="M19 65H20V66H19V65Z" fill="#878787" stroke="#878787"/>
<path opacity="0.576471" d="M27 65H28V66H27V65Z" fill="#878787" stroke="#878787"/>
<path opacity="0.576471" d="M35 65H36V66H35V65Z" fill="#878787" stroke="#878787"/>
<path opacity="0.576471" d="M12 67H13V68H12V67Z" fill="#878787" stroke="#878787"/>
<path opacity="0.576471" d="M28 67H29V68H28V67Z" fill="#878787" stroke="#878787"/>
<path opacity="0.576471" d="M56 67H57V68H56V67Z" fill="#878787" stroke="#878787"/>
<path opacity="0.576471" d="M29 69H30V70H29V69Z" fill="#878787" stroke="#878787"/>
<path opacity="0.576471" d="M21 70H22V71H21V70Z" fill="#878787" stroke="#878787"/>
<path opacity="0.576471" d="M37 70H38V71H37V70Z" fill="#878787" stroke="#878787"/>
<path opacity="0.576471" d="M14 72H15V73H14V72Z" fill="#878787" stroke="#878787"/>
<path opacity="0.576471" d="M22 72H23V73H22V72Z" fill="#878787" stroke="#878787"/>
<path opacity="0.576471" d="M38 72H39V73H38V72Z" fill="#878787" stroke="#878787"/>
<path opacity="0.576471" d="M15 74H16V75H15V74Z" fill="#878787" stroke="#878787"/>
<path opacity="0.576471" d="M23 74H24V75H23V74Z" fill="#878787" stroke="#878787"/>
<path opacity="0.576471" d="M31 74H32V75H31V74Z" fill="#878787" stroke="#878787"/>
<path opacity="0.576471" d="M39 75H40V75.25V79.75V80H39V79.75V75.25V75Z" fill="#878787" stroke="#878787"/>
<path opacity="0.576471" d="M16 76H17V77H16V76Z" fill="#878787" stroke="#878787"/>
<path opacity="0.576471" d="M32 76H33V78H32V76Z" fill="#878787" stroke="#878787"/>
<path opacity="0.576471" d="M25 79H26V80H25V79Z" fill="#878787" stroke="#878787"/>
<path opacity="0.576471" d="M30 79H31V80H30V79Z" fill="#878787" stroke="#878787"/>
<path opacity="0.576471" d="M18 81H19V82H18V81Z" fill="#878787" stroke="#878787"/>
<path opacity="0.576471" d="M38 81H39V82H38V81Z" fill="#878787" stroke="#878787"/>
<path opacity="0.576471" d="M19 83H20V84H19V83Z" fill="#878787" stroke="#878787"/>
<path opacity="0.576471" d="M20 85H21V86H20V85Z" fill="#878787" stroke="#878787"/>
<path opacity="0.576471" d="M31 86H33V87H31V86Z" fill="#878787" stroke="#878787"/>
</g>
<defs>
<clipPath id="clip0_2343_359">
<rect width="86" height="87" fill="white"/>
</clipPath>
</defs>
</svg>
