<svg width="86" height="86" viewBox="0 0 86 86" fill="none" xmlns="http://www.w3.org/2000/svg">
<g clip-path="url(#clip0_2343_330)">
<path opacity="0.827451" d="M24 0H24.25H78.75H79V1H78.75H24.25H24V0Z" fill="#BBBBBB" stroke="#BBBBBB"/>
<path opacity="0.827451" d="M22 1H23V2H22V1Z" fill="#BBBBBB" stroke="#BBBBBB"/>
<g opacity="0.827451">
<path d="M81 1H82V2H83V3H84V4H85V5H84V4H83V3H82V2H81V1Z" fill="#BBBBBB"/>
<path d="M82 2V1H81V2H82ZM82 2H83V3M82 2V3H83M83 3H84V4M83 3V4H84M84 4H85V5H84V4Z" stroke="#BBBBBB"/>
</g>
<g opacity="0.827451">
<path d="M20 2H21V3H20V4H19V5H18V4H19V3H20V2Z" fill="#BBBBBB"/>
<path d="M20 3H21V2H20V3ZM20 3V4H19M20 3H19V4M19 4V5H18V4H19Z" stroke="#BBBBBB"/>
</g>
<path opacity="0.827451" d="M85 6H86V8H85V6Z" fill="#BBBBBB" stroke="#BBBBBB"/>
<path opacity="0.827451" d="M17 7H18V7.25V62.75V63H17V62.75V7.25V7Z" fill="#BBBBBB" stroke="#BBBBBB"/>
<g opacity="0.827451">
<path d="M77 9H78V9.25V59.75V60H77V61H76.75H26.25H26V60H26.25H76.75H77V59.75V9.25V9Z" fill="#BBBBBB"/>
<path d="M77 60H78V59.75V9.25V9H77V9.25V59.75V60ZM77 60V61H76.75H26.25H26V60H26.25H76.75H77Z" stroke="#BBBBBB"/>
</g>
<g opacity="0.827451">
<path d="M1 17H1.25H7.75H8V18H9V18.25V76.75V77H9.25H67.75H68V78H69V78.25V85.75V86H68V85.75V78.25C68.0833 78 68 77.9167 67.75 78H9.25H9V77H8V76.75V18.25C8.08333 18 8 17.9167 7.75 18H1.25H1V17Z" fill="#BBBBBB"/>
<path d="M9 77V76.75V18.25V18H8V17H7.75H1.25H1V18H1.25H7.75C8 17.9167 8.08333 18 8 18.25V76.75V77H9ZM9 77H9.25H67.75H68V78H69V78.25V85.75V86H68V85.75V78.25C68.0833 78 68 77.9167 67.75 78H9.25H9V77Z" stroke="#BBBBBB"/>
</g>
<g opacity="0.827451">
<path d="M35 17H35.25H67.75H68V18H69V18.25V25.75V26H68V25.75V18.25C68.0833 18 68 17.9167 67.75 18H35.25H35V18.25V25.75V26H34V25.75V18.25V18H35V17Z" fill="#BBBBBB"/>
<path d="M35 18H35.25H67.75C68 17.9167 68.0833 18 68 18.25V25.75V26H69V25.75V18.25V18H68V17H67.75H35.25H35V18ZM35 18V18.25V25.75V26H34V25.75V18.25V18H35Z" stroke="#BBBBBB"/>
</g>
<g opacity="0.827451">
<path d="M35 30H35.25H68.75C69 29.9167 69.0833 30 69 30.25V38.75V39H68V38.75V31.25C68.0833 31 68 30.9167 67.75 31H35.25H35V31.25V38.75V39H34V38.75V31.25V31H35V30Z" fill="#BBBBBB"/>
<path d="M35 31H35.25H67.75C68 30.9167 68.0833 31 68 31.25V38.75V39H69V38.75V30.25C69.0833 30 69 29.9167 68.75 30H35.25H35V31ZM35 31V31.25V38.75V39H34V38.75V31.25V31H35Z" stroke="#BBBBBB"/>
</g>
<path opacity="0.827451" d="M34 43H34.25H51.75H52V43.25V51.75V52H51V51.75V44.25V44H50.75H35.25H35V44.25V51.75V52H34V51.75V43.25V43Z" fill="#BBBBBB" stroke="#BBBBBB"/>
<path opacity="0.827451" d="M85 61H86V63H85V61Z" fill="#BBBBBB" stroke="#BBBBBB"/>
<path opacity="0.827451" d="M18 64H19V65H18V64Z" fill="#BBBBBB" stroke="#BBBBBB"/>
<path opacity="0.827451" d="M83 66H84V67H83V66Z" fill="#BBBBBB" stroke="#BBBBBB"/>
<path opacity="0.827451" d="M22 68H24V69H22V68Z" fill="#BBBBBB" stroke="#BBBBBB"/>
<path opacity="0.827451" d="M79 68H81V69H79V68Z" fill="#BBBBBB" stroke="#BBBBBB"/>
<path opacity="0.827451" d="M0 78H1V80H0V78Z" fill="#BBBBBB" stroke="#BBBBBB"/>
<g opacity="0.827451">
<path d="M2 83H3V84H4V85H3V84H2V83Z" fill="#BBBBBB"/>
<path d="M3 84V83H2V84H3ZM3 84H4V85H3V84Z" stroke="#BBBBBB"/>
</g>
<path opacity="0.827451" d="M5 85H6V86H5V85Z" fill="#BBBBBB" stroke="#BBBBBB"/>
<path d="M23 1H23.25H80.75H81V2H82V3H83V4H84V5H85V5.25V7.75V8H86V8.25V60.75V61H85V61.25V64.75V65H84V66H83V67H82V68H81.75H79.25H79V69H78.75H24.25H24V68H23.75H21.25H21V67H20V66H19V64H18V63.75V5.25V5H19V4H20V3H21V2H23V1ZM26 9V9.5V61H26.5H77V60H78V9.5V9H26.5H26Z" fill="#FDFDFD" stroke="#FDFDFD"/>
<path d="M0 18H0.25H7.75C8 17.9167 8.08333 18 8 18.25V76.75V77H9V78H9.25H67.75C68 77.9167 68.0833 78 68 78.25V85.75V86H67.75H6.25H6V85H4V84H3V83H2V82H1V81.75V78.25V78H0V77.75V18.25V18Z" fill="#FDFDFD" stroke="#FDFDFD"/>
<path d="M35 18H35.25H67.75C68 17.9167 68.0833 18 68 18.25V25.75V26H67.75H35.25C35 26.0833 34.9167 26 35 25.75V18.25V18Z" fill="#FDFDFD" stroke="#FDFDFD"/>
<path d="M35 31H35.25H67.75C68 30.9167 68.0833 31 68 31.25V38.75V39H67.75H35.25C35 39.0833 34.9167 39 35 38.75V31.25V31Z" fill="#FDFDFD" stroke="#FDFDFD"/>
<path d="M35 44H35.25H50.75H51V44.25V51.75V52H50.75H35.25H35V51.75V44.25V44Z" fill="#FDFDFD" stroke="#FDFDFD"/>
<path opacity="0.0235294" d="M0 0H0.25H23.75H24V1C23.75 1 23.1667 1 22.25 1H22V2H20V3H19V4H18V4.25V6.75V7H17V7.25V62.75V63H18V65H19V66H20V67H21V68H22V69H22.25H80.75H81V68H82V67H84V65H85V63H86V63.25V85.75V86H85.75H69.25H69V85.75V78.25V78H68V77H67.75H9.25H9V76.75V18.25V18H8V17H7.75H1.25H1V18H0V17.75V0.25V0Z" fill="#060606" stroke="#060606"/>
<path opacity="0.0235294" d="M79 0H79.25H85.75H86V0.25V5.75V6H85V4H84V3H83V2H82V1H81.75H79.25H79V0Z" fill="#060606" stroke="#060606"/>
<path opacity="0.0235294" d="M26 9H26.25H76.75H77V9.25V59.75V60H76.75H26.25H26V59.75V9.25V9ZM35 17V18H34V18.5V26C34 26 34.1667 26 34.5 26H69V18.5V18H68V17H35.5H35ZM35 30V31H34V31.5V39C34 39 34.1667 39 34.5 39H69V30.5C69 30.1667 69 30 69 30H35.5H35ZM34 43V43.5V52H34.5H52V43.5V43H34.5H34Z" fill="#060606" stroke="#060606"/>
<path opacity="0.0235294" d="M0 80H1C1 80.25 1 80.8333 1 81.75V82H2V84H3V85H5V86H4.75H0.25H0V85.75V80.25V80Z" fill="#060606" stroke="#060606"/>
</g>
<defs>
<clipPath id="clip0_2343_330">
<rect width="86" height="86" fill="white"/>
</clipPath>
</defs>
</svg>
