<svg width="81" height="85" viewBox="0 0 81 85" fill="none" xmlns="http://www.w3.org/2000/svg">
<g clip-path="url(#clip0_2343_981)">
<path d="M14 4H15V5H14V4Z" fill="#4D4D4D" stroke="#4D4D4D"/>
<path d="M64 4H65V5H64V4Z" fill="#4D4D4D" stroke="#4D4D4D"/>
<path d="M11 5H12V6H11V5Z" fill="#4D4D4D" stroke="#4D4D4D"/>
<path d="M67 5H68V6H67V5Z" fill="#4D4D4D" stroke="#4D4D4D"/>
<path d="M9 6H10V7H9V6Z" fill="#4D4D4D" stroke="#4D4D4D"/>
<path d="M70 7H71V8H70V7Z" fill="#4D4D4D" stroke="#4D4D4D"/>
<path d="M18 10H18.25H45.75H46V11H47V11.25V74.75V75H46.75H17.25H17V74H17.25H45.75H46V73.75V11.25V11H45.75H18.25H18V10Z" fill="#4D4D4D"/>
<path d="M46 11V10H45.75H18.25H18V11H18.25H45.75H46ZM46 11H47V11.25V74.75V75H46.75H17.25H17V74H17.25H45.75H46V73.75V11.25V11Z" stroke="#4D4D4D"/>
<path d="M54 10H54.25H60.75H61V11H60.75H54.25H54V10Z" fill="#4D4D4D" stroke="#4D4D4D"/>
<path d="M14 11H15V12H14V11Z" fill="#4D4D4D" stroke="#4D4D4D"/>
<path d="M64 11H65V12H64V11Z" fill="#4D4D4D" stroke="#4D4D4D"/>
<path d="M74 11H75V12H74V11Z" fill="#4D4D4D" stroke="#4D4D4D"/>
<path d="M3 12H4V13H3V12Z" fill="#4D4D4D" stroke="#4D4D4D"/>
<path d="M12 12H13V13H12V14H11V15H10V16H9V15H10V14H11V13H12V12Z" fill="#4D4D4D"/>
<path d="M12 13H13V12H12V13ZM12 13V14H11M12 13H11V14M11 14V15H10M11 14H10V15M10 15V16H9V15H10Z" stroke="#4D4D4D"/>
<path d="M67 13H68V14H69V15H68V14H67V13Z" fill="#4D4D4D"/>
<path d="M68 14V13H67V14H68ZM68 14H69V15H68V14Z" stroke="#4D4D4D"/>
<path d="M2 14H3V15H2V14Z" fill="#4D4D4D" stroke="#4D4D4D"/>
<path d="M76 14H77V15H76V14Z" fill="#4D4D4D" stroke="#4D4D4D"/>
<path d="M1 16H2V17H1V16Z" fill="#4D4D4D" stroke="#4D4D4D"/>
<path d="M8 17H9V18H8V17Z" fill="#4D4D4D" stroke="#4D4D4D"/>
<path d="M70 17H71V18H70V17Z" fill="#4D4D4D" stroke="#4D4D4D"/>
<path d="M77 17H78V18H77V17Z" fill="#4D4D4D" stroke="#4D4D4D"/>
<path d="M7 20H8V20.25V64.75V65H7V64.75V20.25V20Z" fill="#4D4D4D" stroke="#4D4D4D"/>
<path d="M71 21H72V21.25V63.75V64H71V63.75V21.25V21Z" fill="#4D4D4D" stroke="#4D4D4D"/>
<path d="M26 29H27V30H26V29Z" fill="#4D4D4D" stroke="#4D4D4D"/>
<path d="M28 30H29V31H30V32H29V31H28V30Z" fill="#4D4D4D"/>
<path d="M29 31V30H28V31H29ZM29 31H30V32H29V31Z" stroke="#4D4D4D"/>
<path d="M19 35H20V36H19V37H18V38H17V39H16V40H15V41H14V40H15V39H16V38H17V37H18V36H19V35Z" fill="#4D4D4D"/>
<path d="M19 36H20V35H19V36ZM19 36V37H18M19 36H18V37M18 37V38H17M18 37H17V38M17 38V39H16M17 38H16V39M16 39V40H15M16 39H15V40M15 40V41H14V40H15Z" stroke="#4D4D4D"/>
<path d="M28 35H29V36H28V37H27V38H26V39H25V38H26V37H27V36H28V35Z" fill="#4D4D4D"/>
<path d="M28 36H29V35H28V36ZM28 36V37H27M28 36H27V37M27 37V38H26M27 37H26V38M26 38V39H25V38H26Z" stroke="#4D4D4D"/>
<path d="M38 39H39V40H40V41H39V40H38V39Z" fill="#4D4D4D"/>
<path d="M39 40V39H38V40H39ZM39 40H40V41H39V40Z" stroke="#4D4D4D"/>
<path d="M13 42H14V44H13V42Z" fill="#4D4D4D" stroke="#4D4D4D"/>
<path d="M40 42H41V43H40V42Z" fill="#4D4D4D" stroke="#4D4D4D"/>
<path d="M38 45H39V46H38V45Z" fill="#4D4D4D" stroke="#4D4D4D"/>
<path d="M25 46H26V47H27V48H28V49H29V50H28V49H27V48H26V47H25V46Z" fill="#4D4D4D"/>
<path d="M26 47V46H25V47H26ZM26 47H27V48M26 47V48H27M27 48H28V49M27 48V49H28M28 49H29V50H28V49Z" stroke="#4D4D4D"/>
<path d="M29 51H30V52H29V51Z" fill="#4D4D4D" stroke="#4D4D4D"/>
<path d="M29 53H30V54H29V53Z" fill="#4D4D4D" stroke="#4D4D4D"/>
<path d="M25 55H25.25H27.75H28V56H27.75H25.25H25V55Z" fill="#4D4D4D" stroke="#4D4D4D"/>
<path d="M8 67H9V68H8V67Z" fill="#4D4D4D" stroke="#4D4D4D"/>
<path d="M70 67H71V68H70V67Z" fill="#4D4D4D" stroke="#4D4D4D"/>
<path d="M77 67H78V68H77V67Z" fill="#4D4D4D" stroke="#4D4D4D"/>
<path d="M1 68H2V69H1V68Z" fill="#4D4D4D" stroke="#4D4D4D"/>
<path d="M9 69H10V70H9V69Z" fill="#4D4D4D" stroke="#4D4D4D"/>
<path d="M69 69H70V70H69V71H68V72H67V73H66V72H67V71H68V70H69V69Z" fill="#4D4D4D"/>
<path d="M69 70H70V69H69V70ZM69 70V71H68M69 70H68V71M68 71V72H67M68 71H67V72M67 72V73H66V72H67Z" stroke="#4D4D4D"/>
<path d="M2 70H3V71H2V70Z" fill="#4D4D4D" stroke="#4D4D4D"/>
<path d="M76 70H77V71H76V70Z" fill="#4D4D4D" stroke="#4D4D4D"/>
<path d="M3 72H4V73H3V72Z" fill="#4D4D4D" stroke="#4D4D4D"/>
<path d="M12 72H13V73H12V72Z" fill="#4D4D4D" stroke="#4D4D4D"/>
<path d="M75 72H76V73H75V72Z" fill="#4D4D4D" stroke="#4D4D4D"/>
<path d="M64 73H65V74H64V73Z" fill="#4D4D4D" stroke="#4D4D4D"/>
<path d="M53 74H53.25H61.75H62V75H61.75H53.25H53V74Z" fill="#4D4D4D" stroke="#4D4D4D"/>
<path d="M5 75H6V76H7V77H6V76H5V75Z" fill="#4D4D4D"/>
<path d="M6 76V75H5V76H6ZM6 76H7V77H6V76Z" stroke="#4D4D4D"/>
<path d="M9 78H10V79H9V78Z" fill="#4D4D4D" stroke="#4D4D4D"/>
<path d="M69 78H70V79H69V78Z" fill="#4D4D4D" stroke="#4D4D4D"/>
<path d="M67 79H68V80H67V79Z" fill="#4D4D4D" stroke="#4D4D4D"/>
<path d="M13 80H14V81H13V80Z" fill="#4D4D4D" stroke="#4D4D4D"/>
<path d="M65 80H66V81H65V80Z" fill="#4D4D4D" stroke="#4D4D4D"/>
<path d="M59 0H60V1H59V0Z" fill="#111111" stroke="#111111"/>
<path d="M12 1H13V2H12V1Z" fill="#111111" stroke="#111111"/>
<path d="M15 1H16V2H15V1Z" fill="#111111" stroke="#111111"/>
<path d="M66 1H67V2H66V1Z" fill="#111111" stroke="#111111"/>
<path d="M23 2H24V3H23V2Z" fill="#111111" stroke="#111111"/>
<path d="M59 3H60V4H59V3Z" fill="#111111" stroke="#111111"/>
<path d="M63 3H64V4H63V3Z" fill="#111111" stroke="#111111"/>
<path d="M7 4H8V5H7V4Z" fill="#111111" stroke="#111111"/>
<path d="M71 5H72V6H71V5Z" fill="#111111" stroke="#111111"/>
<path d="M4 7H5V8H4V7Z" fill="#111111" stroke="#111111"/>
<path d="M72 8H73V9H74V10H73V9H72V8Z" fill="#111111"/>
<path d="M73 9V8H72V9H73ZM73 9H74V10H73V9Z" stroke="#111111"/>
<path d="M4 9H5V10H4V9Z" fill="#111111" stroke="#111111"/>
<path d="M77 9H78V10H77V9Z" fill="#111111" stroke="#111111"/>
<path d="M62 11H63V12H62V11Z" fill="#111111" stroke="#111111"/>
<path d="M78 11H79V12H78V11Z" fill="#111111" stroke="#111111"/>
<path d="M42 12H43V13H42V12Z" fill="#111111" stroke="#111111"/>
<path d="M58 12H59V13H58V12Z" fill="#111111" stroke="#111111"/>
<path d="M19 13H20V14H19V13Z" fill="#111111" stroke="#111111"/>
<path d="M56 13H57V14H56V13Z" fill="#111111" stroke="#111111"/>
<path d="M40 15H41V16H40V15Z" fill="#111111" stroke="#111111"/>
<path d="M9 16H10V17H9V16Z" fill="#111111" stroke="#111111"/>
<path d="M64 16H65V17H64V16Z" fill="#111111" stroke="#111111"/>
<path d="M11 17H12V18H11V17Z" fill="#111111" stroke="#111111"/>
<path d="M15 21H16V22H15V21Z" fill="#111111" stroke="#111111"/>
<path d="M65 22H66V23H65V22Z" fill="#111111" stroke="#111111"/>
<path d="M68 22H69V23H68V22Z" fill="#111111" stroke="#111111"/>
<path d="M16 24H17V25H16V24Z" fill="#111111" stroke="#111111"/>
<path d="M20 24H21V25H20V24Z" fill="#111111" stroke="#111111"/>
<path d="M28 25H29V26H28V25Z" fill="#111111" stroke="#111111"/>
<path d="M17 27H18V28H17V27Z" fill="#111111" stroke="#111111"/>
<path d="M19 27H20V28H19V27Z" fill="#111111" stroke="#111111"/>
<path d="M27 27H28V28H27V27Z" fill="#111111" stroke="#111111"/>
<path d="M8 32H9V34H8V32Z" fill="#111111" stroke="#111111"/>
<path d="M17 33H18V34H17V33Z" fill="#111111" stroke="#111111"/>
<path d="M33 33H34V34H35V35H34V34H33V33Z" fill="#111111"/>
<path d="M34 34V33H33V34H34ZM34 34H35V35H34V34Z" stroke="#111111"/>
<path d="M19 34H20V35H19V34Z" fill="#111111" stroke="#111111"/>
<path d="M30 36H31V37H30V36Z" fill="#111111" stroke="#111111"/>
<path d="M43 40H44V41H43V40Z" fill="#111111" stroke="#111111"/>
<path d="M9 43H10V44H9V43Z" fill="#111111" stroke="#111111"/>
<path d="M12 45H13V46H12V45Z" fill="#111111" stroke="#111111"/>
<path d="M27 46H28V47H27V46Z" fill="#111111" stroke="#111111"/>
<path d="M34 46H35V47H34V46Z" fill="#111111" stroke="#111111"/>
<path d="M38 47H39V48H38V47Z" fill="#111111" stroke="#111111"/>
<path d="M44 47H45V48H44V47Z" fill="#111111" stroke="#111111"/>
<path d="M30 52H31V53H30V52Z" fill="#111111" stroke="#111111"/>
<path d="M21 54H22V55H21V54Z" fill="#111111" stroke="#111111"/>
<path d="M30 54H31V55H30V54Z" fill="#111111" stroke="#111111"/>
<path d="M24 55H25V56H24V55Z" fill="#111111" stroke="#111111"/>
<path d="M0 65H1V66H0V65Z" fill="#111111" stroke="#111111"/>
<path d="M70 65H71V66H70V65Z" fill="#111111" stroke="#111111"/>
<path d="M79 65H80V66H79V65Z" fill="#111111" stroke="#111111"/>
<path d="M11 70H12V71H11V70Z" fill="#111111" stroke="#111111"/>
<path d="M15 70H16V71H15V70Z" fill="#111111" stroke="#111111"/>
<path d="M13 71H14V72H13V71Z" fill="#111111" stroke="#111111"/>
<path d="M22 72H23V73H24V74H23V73H22V72Z" fill="#111111"/>
<path d="M23 73V72H22V73H23ZM23 73H24V74H23V73Z" stroke="#111111"/>
<path d="M79 72H80V73H79V72Z" fill="#111111" stroke="#111111"/>
<path d="M41 73H42V74H41V73Z" fill="#111111" stroke="#111111"/>
<path d="M43 73H44V74H43V73Z" fill="#111111" stroke="#111111"/>
<path d="M74 77H75V78H74V79H72V78H74V77Z" fill="#111111"/>
<path d="M74 78H75V77H74V78ZM74 78V79H72V78H74Z" stroke="#111111"/>
<path d="M68 80H70V81H68V80Z" fill="#111111" stroke="#111111"/>
<path d="M13 81H14V82H13V81Z" fill="#111111" stroke="#111111"/>
<path d="M15 81H17V82H15V81Z" fill="#111111" stroke="#111111"/>
<path d="M8 82H9V83H8V82Z" fill="#111111" stroke="#111111"/>
<path d="M61 82H62V83H63V84H62V83H61V84H60V85H59V84H60V83H61V82Z" fill="#111111"/>
<path d="M62 83V82H61V83M62 83H63V84H62V83ZM62 83H61M61 83V84H60M61 83H60V84M60 84V85H59V84H60Z" stroke="#111111"/>
<path d="M21 84H22V85H21V84Z" fill="#111111" stroke="#111111"/>
<path d="M69 84H70V85H69V84Z" fill="#111111" stroke="#111111"/>
<path d="M0 0H0.25H58.75H59V1H60V0H60.25H80.75H81V0.25V84.75C81.0833 85 81 85.0833 80.75 85H70.25H70V84H69V85H68.75H60.25H60V84H59V85H58.75H22.25H22V84H21V85H20.75H0.25H0V84.75V66.25V66H1V66.25V68.75V69H2C2 69.25 2 69.8333 2 70.75V71H3V73H4V74H5V76H6V77H8V78H9V79C9.25 79 9.83333 79 10.75 79H11V80H13V82H14V81H15V82H17V81H17.25H65.75H66V80H68V79H70V78H71V77H72V76H73V75H74V74H75V73H76V71H77V70.75V68.25V68H78V67.75V17.25V17H77V16.75V14.25V14H76V13H75V11H74V9H73V8C72.75 8 72.1667 8 71.25 8H71V7H69V6H68V5H67.75H65.25H65V4H64V3H63V4H62.75H60.25H60V3H59V4H58.75H14.25H14V5H13.75H11.25H11V6H9V7H8V8H7V9H6V10H5V11H4V12H3V14H2V16H1V16.25V64.75V65H0V64.75V0.25V0ZM12 1V2H13V1H12ZM15 1V2H16V1H15ZM66 1V2H67V1H66ZM23 2V3H24V2H23ZM7 4V5H8V4H7ZM71 5V6H72V5H71ZM4 7V8H5V7H4ZM4 9V10H5V9H4ZM77 9V10H78V9H77ZM78 11V12H79V11H78ZM79 65V66H80V65H79ZM79 72V73H80V72H79ZM74 77V78H75V77H74ZM72 78V79H74V78H72ZM68 80V81H70V80H68ZM8 82V83H9V82H8ZM61 82V83H62V82H61ZM60 83V84H61V83H60ZM62 83V84H63V83H62Z" fill="#121212"/>
<path d="M60 84V85H60.25H68.75H69V84H70V85H70.25H80.75C81 85.0833 81.0833 85 81 84.75V0.25V0H80.75H60.25H60V1H59V0H58.75H0.25H0V0.25V64.75V65H1V64.75V16.25V16H2V14H3V12H4V11H5V10M60 84H59V85H58.75H22.25H22V84H21V85H20.75H0.25H0V84.75V66.25V66H1V66.25V68.75V69H2C2 69.25 2 69.8333 2 70.75V71H3V73H4V74H5V76H6V77H8V78H9V79C9.25 79 9.83333 79 10.75 79H11V80H13V82H14V81H15V82H17V81H17.25H65.75H66V80H68M60 84V83H61M60 84H61V83M68 80V79H70V78H71V77H72V76H73V75H74V74H75V73H76V71H77V70.75V68.25V68H78V67.75V17.25V17H77V16.75V14.25V14H76V13H75V11H74V9H73V8C72.75 8 72.1667 8 71.25 8H71V7H69V6H68V5H67.75H65.25H65V4H64V3H63V4H62.75H60.25H60V3H59V4H58.75H14.25H14V5H13.75H11.25H11V6H9V7H8V8H7V9H6V10H5M68 80V81H70V80H68ZM5 10H4V9H5V10ZM74 78V77H75V78H74ZM74 78V79H72V78H74ZM61 83V82H62V83M61 83H62M62 83V84H63V83H62ZM12 1V2H13V1H12ZM15 1V2H16V1H15ZM66 1V2H67V1H66ZM23 2V3H24V2H23ZM7 4V5H8V4H7ZM71 5V6H72V5H71ZM4 7V8H5V7H4ZM77 9V10H78V9H77ZM78 11V12H79V11H78ZM79 65V66H80V65H79ZM79 72V73H80V72H79ZM8 82V83H9V82H8Z" stroke="#121212"/>
<path d="M15 4H15.25H17.75H18V5H17.75H15.25H15V4Z" fill="#C6C6C6" stroke="#C6C6C6"/>
<path d="M61 4H61.25H63.75H64V5H63.75H61.25H61V4Z" fill="#C6C6C6" stroke="#C6C6C6"/>
<path d="M12 5H13V6H12V5Z" fill="#C6C6C6" stroke="#C6C6C6"/>
<path d="M66 5H67V6H66V5Z" fill="#C6C6C6" stroke="#C6C6C6"/>
<path d="M10 6H11V7H10V6Z" fill="#C6C6C6" stroke="#C6C6C6"/>
<path d="M68 6H69V7H68V6Z" fill="#C6C6C6" stroke="#C6C6C6"/>
<path d="M8 7H9V8H8V9H7V10H6V11H5V12H4V11H5V10H6V9H7V8H8V7Z" fill="#C6C6C6"/>
<path d="M8 8H9V7H8V8ZM8 8V9H7M8 8H7V9M7 9V10H6M7 9H6V10M6 10V11H5M6 10H5V11M5 11V12H4V11H5Z" stroke="#C6C6C6"/>
<path d="M71 8H72V9H73V10H74V11H73V10H72V9H71V8Z" fill="#C6C6C6"/>
<path d="M72 9V8H71V9H72ZM72 9H73V10M72 9V10H73M73 10H74V11H73V10Z" stroke="#C6C6C6"/>
<path d="M16 10H18V11H16V10Z" fill="#C6C6C6" stroke="#C6C6C6"/>
<path d="M46 10H47V11H46V10Z" fill="#C6C6C6" stroke="#C6C6C6"/>
<path d="M53 10H54V11H53V10Z" fill="#C6C6C6" stroke="#C6C6C6"/>
<path d="M61 10H63V11H61V10Z" fill="#C6C6C6" stroke="#C6C6C6"/>
<path d="M13 11H14V12H13V11Z" fill="#C6C6C6" stroke="#C6C6C6"/>
<path d="M65 11H66V12H67V13H66V12H65V11Z" fill="#C6C6C6"/>
<path d="M66 12V11H65V12H66ZM66 12H67V13H66V12Z" stroke="#C6C6C6"/>
<path d="M3 13H4V14H3V13Z" fill="#C6C6C6" stroke="#C6C6C6"/>
<path d="M75 13H76V14H75V13Z" fill="#C6C6C6" stroke="#C6C6C6"/>
<path d="M2 15H3V16H2V15Z" fill="#C6C6C6" stroke="#C6C6C6"/>
<path d="M69 15H70V16H69V15Z" fill="#C6C6C6" stroke="#C6C6C6"/>
<path d="M76 15H77V16H76V15Z" fill="#C6C6C6" stroke="#C6C6C6"/>
<path d="M8 16H9V17H8V16Z" fill="#C6C6C6" stroke="#C6C6C6"/>
<path d="M1 17H2V19H1V17Z" fill="#C6C6C6" stroke="#C6C6C6"/>
<path d="M7 18H8V20H7V18Z" fill="#C6C6C6" stroke="#C6C6C6"/>
<path d="M77 18H78V18.25V20.75V21H77V20.75V18.25V18Z" fill="#C6C6C6" stroke="#C6C6C6"/>
<path d="M71 19H72V21H71V19Z" fill="#C6C6C6" stroke="#C6C6C6"/>
<path d="M24 30H25V31H24V32H23V33H22V34H21V35H20V34H21V33H22V32H23V31H24V30Z" fill="#C6C6C6"/>
<path d="M24 31H25V30H24V31ZM24 31V32H23M24 31H23V32M23 32V33H22M23 32H22V33M22 33V34H21M22 33H21V34M21 34V35H20V34H21Z" stroke="#C6C6C6"/>
<path d="M29 32H30V34H29V32Z" fill="#C6C6C6" stroke="#C6C6C6"/>
<path d="M25 39H25.25H37.75H38V40H37.75H25.25H25V39Z" fill="#C6C6C6" stroke="#C6C6C6"/>
<path d="M14 44H15V45H16V46H17V47H18V48H19V49H20V50H21V51H22V52H23V53H24V54H25V55H24V54H23V53H22V52H21V51H20V50H19V49H18V48H17V47H16V46H15V45H14V44Z" fill="#C6C6C6"/>
<path d="M15 45V44H14V45H15ZM15 45H16V46M15 45V46H16M16 46H17V47M16 46V47H17M17 47H18V48M17 47V48H18M18 48H19V49M18 48V49H19M19 49H20V50M19 49V50H20M20 50H21V51M20 50V51H21M21 51H22V52M21 51V52H22M22 52H23V53M22 52V53H23M23 53H24V54M23 53V54H24M24 54H25V55H24V54Z" stroke="#C6C6C6"/>
<path d="M39 44H40V45H39V44Z" fill="#C6C6C6" stroke="#C6C6C6"/>
<path d="M25 45H25.25H37.75H38V46H37.75H25.25H25V45Z" fill="#C6C6C6" stroke="#C6C6C6"/>
<path d="M29 52H30V53H29V52Z" fill="#C6C6C6" stroke="#C6C6C6"/>
<path d="M28 54H29V55H28V54Z" fill="#C6C6C6" stroke="#C6C6C6"/>
<path d="M71 64H72V66H71V64Z" fill="#C6C6C6" stroke="#C6C6C6"/>
<path d="M77 64H78V64.25V66.75V67H77V66.75V64.25V64Z" fill="#C6C6C6" stroke="#C6C6C6"/>
<path d="M7 65H8V67H7V65Z" fill="#C6C6C6" stroke="#C6C6C6"/>
<path d="M1 66H2V68H1V66Z" fill="#C6C6C6" stroke="#C6C6C6"/>
<path d="M8 68H9V69H8V68Z" fill="#C6C6C6" stroke="#C6C6C6"/>
<path d="M70 68H71V69H70V68Z" fill="#C6C6C6" stroke="#C6C6C6"/>
<path d="M76 69H77V70H76V69Z" fill="#C6C6C6" stroke="#C6C6C6"/>
<path d="M9 70H10V71H11V72H12V73H11V72H10V71H9V70Z" fill="#C6C6C6"/>
<path d="M10 71V70H9V71H10ZM10 71H11V72M10 71V72H11M11 72H12V73H11V72Z" stroke="#C6C6C6"/>
<path d="M75 71H76V72H75V71Z" fill="#C6C6C6" stroke="#C6C6C6"/>
<path d="M4 73H5V74H6V75H5V74H4V73Z" fill="#C6C6C6"/>
<path d="M5 74V73H4V74H5ZM5 74H6V75H5V74Z" stroke="#C6C6C6"/>
<path d="M13 73H14V74H13V73Z" fill="#C6C6C6" stroke="#C6C6C6"/>
<path d="M65 73H66V74H65V73Z" fill="#C6C6C6" stroke="#C6C6C6"/>
<path d="M74 73H75V74H74V75H73V76H72V77H71V78H70V77H71V76H72V75H73V74H74V73Z" fill="#C6C6C6"/>
<path d="M74 74H75V73H74V74ZM74 74V75H73M74 74H73V75M73 75V76H72M73 75H72V76M72 76V77H71M72 76H71V77M71 77V78H70V77H71Z" stroke="#C6C6C6"/>
<path d="M15 74H17V75H15V74Z" fill="#C6C6C6" stroke="#C6C6C6"/>
<path d="M62 74H64V75H62V74Z" fill="#C6C6C6" stroke="#C6C6C6"/>
<path d="M7 76H8V77H9V78H8V77H7V76Z" fill="#C6C6C6"/>
<path d="M8 77V76H7V77H8ZM8 77H9V78H8V77Z" stroke="#C6C6C6"/>
<path d="M10 78H11V79H13V80H11V79H10V78Z" fill="#C6C6C6"/>
<path d="M11 79V78H10V79H11ZM11 79H13V80H11V79Z" stroke="#C6C6C6"/>
<path d="M68 78H69V79H68V78Z" fill="#C6C6C6" stroke="#C6C6C6"/>
<path d="M14 80H16V81H14V80Z" fill="#C6C6C6" stroke="#C6C6C6"/>
<path d="M63 80H65V81H63V80Z" fill="#C6C6C6" stroke="#C6C6C6"/>
<path d="M18 4H18.25H60.75H61V5H61.25H65.75H66V6H68V7H70V8H71V9H72V10H73V11H74V12H75V14H76V16H77V16.25V20.75V21H78V21.25V63.75V64H77V64.25V68.75V69H76V71H75V73H74V74H73V75H72V76H71V77H70V78H68V79H67V80H66.75H63.25H63V81H62.75H16.25H16V80H15.75H13.25H13V79C12.75 79 12.1667 79 11.25 79H11V78H9V77H8V76H6V74H5V73H4V72H3V70H2V69.75V66.25V66H1V65.75V19.25V19H2V18.75V16.25V16H3C3 15.75 3 15.1667 3 14.25V14H4V12H5V11H6V10H7V9H8V8H9V7H11V6H13V5H13.25H17.75H18V4ZM16 10V11H13.5H13V12H12V13H11V14H10V15H9V16H8V18H7V18.5V67H8V69H9V71H10V72H11V73H13V74H13.5C14.1667 74 14.6667 74 15 74V75H15.5H47V10.5V10H16.5H16ZM53 10V10.5V75H53.5H64V74H66V73H67V72H68V71H69V70H70V69H71V66.5V66H72V19.5V19H71V17H70V15H69V14H68V13H67V12H66V11H63.5H63V10H53.5H53Z" fill="#FDFDFD" stroke="#FDFDFD"/>
<path d="M25 30H25.25H27.75H28V31H29V31.25V34.75V35H28V36H27V37H26V38H25V40H25.25H38.75H39V41H40V41.25V43.75V44H39V45H38.75H25.25C25 44.9167 24.9167 45 25 45.25C25 46.1667 25 46.75 25 47H26V48H27V49H28V50H29V50.25V53.75V54H28V55H27.75H25.25H25V54H24V53H23V52H22V51H21V50H20V49H19V48H18V47H17V46H16V45H15V44H14V43.75V41.25V41H15V40H16V39H17V38H18V37H19V36H20V35H21V34H22V33H23V32H24V31H25V30Z" fill="#FDFDFD" stroke="#FDFDFD"/>
</g>
<defs>
<clipPath id="clip0_2343_981">
<rect width="81" height="85" fill="white"/>
</clipPath>
</defs>
</svg>
