<svg width="81" height="85" viewBox="0 0 81 85" fill="none" xmlns="http://www.w3.org/2000/svg">
<g clip-path="url(#clip0_2343_1158)">
<path d="M15 4H17V5H15V4Z" fill="#4D4D4D" stroke="#4D4D4D"/>
<path d="M67 4H68V5H67V4Z" fill="#4D4D4D" stroke="#4D4D4D"/>
<path d="M13 5H14V6H13V5Z" fill="#4D4D4D" stroke="#4D4D4D"/>
<path d="M11 6H12V7H11V6Z" fill="#4D4D4D" stroke="#4D4D4D"/>
<path d="M71 6H72V7H71V6Z" fill="#4D4D4D" stroke="#4D4D4D"/>
<path d="M74 8H75V9H76V10H75V9H74V8Z" fill="#4D4D4D"/>
<path d="M75 9V8H74V9H75ZM75 9H76V10H75V9Z" stroke="#4D4D4D"/>
<path d="M18 10H18.25H27.75H28V11H27.75H18.25H18V10Z" fill="#4D4D4D" stroke="#4D4D4D"/>
<path d="M34 10H34.25H64.75H65V11H64.75H35.25H35V11.25V73.75V74H35.25H63.75H64V75H63.75H35.25H35V74H34V73.75V10.25V10Z" fill="#4D4D4D"/>
<path d="M35 74V73.75V11.25V11H35.25H64.75H65V10H64.75H34.25H34V10.25V73.75V74H35ZM35 74H35.25H63.75H64V75H63.75H35.25H35V74Z" stroke="#4D4D4D"/>
<path d="M6 11H7V12H6V13H5V12H6V11Z" fill="#4D4D4D"/>
<path d="M6 12H7V11H6V12ZM6 12V13H5V12H6Z" stroke="#4D4D4D"/>
<path d="M16 11H17V12H16V11Z" fill="#4D4D4D" stroke="#4D4D4D"/>
<path d="M14 12H15V13H14V14H13V15H12V16H11V15H12V14H13V13H14V12Z" fill="#4D4D4D"/>
<path d="M14 13H15V12H14V13ZM14 13V14H13M14 13H13V14M13 14V15H12M13 14H12V15M12 15V16H11V15H12Z" stroke="#4D4D4D"/>
<path d="M68 12H69V13H68V12Z" fill="#4D4D4D" stroke="#4D4D4D"/>
<path d="M77 12H78V13H77V12Z" fill="#4D4D4D" stroke="#4D4D4D"/>
<path d="M4 14H5V15H4V14Z" fill="#4D4D4D" stroke="#4D4D4D"/>
<path d="M78 14H79V15H78V14Z" fill="#4D4D4D" stroke="#4D4D4D"/>
<path d="M71 15H72V16H71V15Z" fill="#4D4D4D" stroke="#4D4D4D"/>
<path d="M79 16H80V18H79V16Z" fill="#4D4D4D" stroke="#4D4D4D"/>
<path d="M3 17H4V18H3V17Z" fill="#4D4D4D" stroke="#4D4D4D"/>
<path d="M10 17H11V18H10V17Z" fill="#4D4D4D" stroke="#4D4D4D"/>
<path d="M72 17H73V18H72V17Z" fill="#4D4D4D" stroke="#4D4D4D"/>
<path d="M73 19H74V19.25V64.75V65H73V64.75V19.25V19Z" fill="#4D4D4D" stroke="#4D4D4D"/>
<path d="M9 20H10V20.25V64.75V65H9V64.75V20.25V20Z" fill="#4D4D4D" stroke="#4D4D4D"/>
<path d="M53 29H53.25H55.75H56V30H55.75H53.25H53V31H52V31.25V33.75V34H51V33.75V31.25V31H52V30H53V29Z" fill="#4D4D4D"/>
<path d="M53 30H53.25H55.75H56V29H55.75H53.25H53V30ZM53 30V31H52M53 30H52V31M52 31V31.25V33.75V34H51V33.75V31.25V31H52Z" stroke="#4D4D4D"/>
<path d="M52 35H53V36H54V37H55V38H56V39H55V38H54V37H53V36H52V35Z" fill="#4D4D4D"/>
<path d="M53 36V35H52V36H53ZM53 36H54V37M53 36V37H54M54 37H55V38M54 37V38H55M55 38H56V39H55V38Z" stroke="#4D4D4D"/>
<path d="M42 39H43V40H42V41H41V40H42V39Z" fill="#4D4D4D"/>
<path d="M42 40H43V39H42V40ZM42 40V41H41V40H42Z" stroke="#4D4D4D"/>
<path d="M67 41H68V43H67V41Z" fill="#4D4D4D" stroke="#4D4D4D"/>
<path d="M40 42H41V43H40V42Z" fill="#4D4D4D" stroke="#4D4D4D"/>
<path d="M41 44H42V45H44V46H42V45H41V44Z" fill="#4D4D4D"/>
<path d="M42 45V44H41V45H42ZM42 45H44V46H42V45Z" stroke="#4D4D4D"/>
<path d="M66 44H67V45H66V46H65V47H64V48H63V49H62V50H61V49H62V48H63V47H64V46H65V45H66V44Z" fill="#4D4D4D"/>
<path d="M66 45H67V44H66V45ZM66 45V46H65M66 45H65V46M65 46V47H64M65 46H64V47M64 47V48H63M64 47H63V48M63 48V49H62M63 48H62V49M62 49V50H61V49H62Z" stroke="#4D4D4D"/>
<path d="M55 46H56V47H55V48H54V49H53V50H52V49H53V48H54V47H55V46Z" fill="#4D4D4D"/>
<path d="M55 47H56V46H55V47ZM55 47V48H54M55 47H54V48M54 48V49H53M54 48H53V49M53 49V50H52V49H53Z" stroke="#4D4D4D"/>
<path d="M51 51H52V51.25V53.75V54H53V55H52V54H51V53.75V51.25V51Z" fill="#4D4D4D"/>
<path d="M52 54V53.75V51.25V51H51V51.25V53.75V54H52ZM52 54H53V55H52V54Z" stroke="#4D4D4D"/>
<path d="M54 55H55V56H54V55Z" fill="#4D4D4D" stroke="#4D4D4D"/>
<path d="M3 66H4V68H3V66Z" fill="#4D4D4D" stroke="#4D4D4D"/>
<path d="M10 67H11V68H10V67Z" fill="#4D4D4D" stroke="#4D4D4D"/>
<path d="M72 67H73V68H72V67Z" fill="#4D4D4D" stroke="#4D4D4D"/>
<path d="M79 67H80V69H79V67Z" fill="#4D4D4D" stroke="#4D4D4D"/>
<path d="M11 69H12V70H13V71H14V72H15V73H14V72H13V71H12V70H11V69Z" fill="#4D4D4D"/>
<path d="M12 70V69H11V70H12ZM12 70H13V71M12 70V71H13M13 71H14V72M13 71V72H14M14 72H15V73H14V72Z" stroke="#4D4D4D"/>
<path d="M71 69H72V70H71V71H70V72H69V73H68V72H69V71H70V70H71V69Z" fill="#4D4D4D"/>
<path d="M71 70H72V69H71V70ZM71 70V71H70M71 70H70V71M70 71V72H69M70 71H69V72M69 72V73H68V72H69Z" stroke="#4D4D4D"/>
<path d="M4 70H5V71H4V70Z" fill="#4D4D4D" stroke="#4D4D4D"/>
<path d="M78 70H79V71H78V70Z" fill="#4D4D4D" stroke="#4D4D4D"/>
<path d="M77 72H78V73H77V72Z" fill="#4D4D4D" stroke="#4D4D4D"/>
<path d="M6 73H7V74H6V73Z" fill="#4D4D4D" stroke="#4D4D4D"/>
<path d="M16 73H17V74H16V73Z" fill="#4D4D4D" stroke="#4D4D4D"/>
<path d="M66 73H67V74H66V73Z" fill="#4D4D4D" stroke="#4D4D4D"/>
<path d="M19 74H19.25H27.75H28V75H27.75H19.25H19V74Z" fill="#4D4D4D" stroke="#4D4D4D"/>
<path d="M9 76H10V77H11V78H10V77H9V76Z" fill="#4D4D4D"/>
<path d="M10 77V76H9V77H10ZM10 77H11V78H10V77Z" stroke="#4D4D4D"/>
<path d="M72 77H73V78H72V79H71V78H72V77Z" fill="#4D4D4D"/>
<path d="M72 78H73V77H72V78ZM72 78V79H71V78H72Z" stroke="#4D4D4D"/>
<path d="M13 79H14V80H13V79Z" fill="#4D4D4D" stroke="#4D4D4D"/>
<path d="M69 79H70V80H69V79Z" fill="#4D4D4D" stroke="#4D4D4D"/>
<path d="M16 80H18V81H16V80Z" fill="#4D4D4D" stroke="#4D4D4D"/>
<path d="M66 80H67V81H66V80Z" fill="#4D4D4D" stroke="#4D4D4D"/>
<path d="M11 0H12V1H11V0Z" fill="#111111" stroke="#111111"/>
<path d="M21 0H22V1H21V2H20V3H19V2H18V1H19V2H20V1H21V0Z" fill="#111111"/>
<path d="M21 1H22V0H21V1ZM21 1V2H20M21 1H20V2M20 2V3H19V2M20 2H19M19 2H18V1H19V2Z" stroke="#111111"/>
<path d="M59 0H60V1H59V0Z" fill="#111111" stroke="#111111"/>
<path d="M72 2H73V3H72V2Z" fill="#111111" stroke="#111111"/>
<path d="M64 3H66V4H64V3Z" fill="#111111" stroke="#111111"/>
<path d="M67 3H68V4H67V3Z" fill="#111111" stroke="#111111"/>
<path d="M11 4H13V5H11V4Z" fill="#111111" stroke="#111111"/>
<path d="M7 6H9V7H7V8H6V7H7V6Z" fill="#111111"/>
<path d="M7 7H9V6H7V7ZM7 7V8H6V7H7Z" stroke="#111111"/>
<path d="M37 11H38V12H37V11Z" fill="#111111" stroke="#111111"/>
<path d="M39 11H40V12H39V11Z" fill="#111111" stroke="#111111"/>
<path d="M57 11H58V12H59V13H58V12H57V11Z" fill="#111111"/>
<path d="M58 12V11H57V12H58ZM58 12H59V13H58V12Z" stroke="#111111"/>
<path d="M1 12H2V13H1V12Z" fill="#111111" stroke="#111111"/>
<path d="M67 13H68V14H67V13Z" fill="#111111" stroke="#111111"/>
<path d="M65 14H66V15H65V14Z" fill="#111111" stroke="#111111"/>
<path d="M69 14H70V15H69V14Z" fill="#111111" stroke="#111111"/>
<path d="M1 19H2V20H1V19Z" fill="#111111" stroke="#111111"/>
<path d="M10 19H11V20H10V19Z" fill="#111111" stroke="#111111"/>
<path d="M80 19H81V20H80V19Z" fill="#111111" stroke="#111111"/>
<path d="M56 29H57V30H56V29Z" fill="#111111" stroke="#111111"/>
<path d="M50 30H51V31H50V30Z" fill="#111111" stroke="#111111"/>
<path d="M59 30H60V31H59V30Z" fill="#111111" stroke="#111111"/>
<path d="M50 32H51V33H50V32Z" fill="#111111" stroke="#111111"/>
<path d="M36 37H37V38H36V37Z" fill="#111111" stroke="#111111"/>
<path d="M42 37H43V38H42V37Z" fill="#111111" stroke="#111111"/>
<path d="M46 38H47V39H46V38Z" fill="#111111" stroke="#111111"/>
<path d="M53 38H54V39H53V38Z" fill="#111111" stroke="#111111"/>
<path d="M68 39H69V40H68V39Z" fill="#111111" stroke="#111111"/>
<path d="M71 41H72V42H71V41Z" fill="#111111" stroke="#111111"/>
<path d="M37 44H38V45H37V44Z" fill="#111111" stroke="#111111"/>
<path d="M50 48H51V49H50V48Z" fill="#111111" stroke="#111111"/>
<path d="M46 50H47V51H48V52H47V51H46V50Z" fill="#111111"/>
<path d="M47 51V50H46V51H47ZM47 51H48V52H47V51Z" stroke="#111111"/>
<path d="M61 50H62V51H61V50Z" fill="#111111" stroke="#111111"/>
<path d="M63 51H64V52H63V51Z" fill="#111111" stroke="#111111"/>
<path d="M72 51H73V53H72V51Z" fill="#111111" stroke="#111111"/>
<path d="M53 57H54V58H53V57Z" fill="#111111" stroke="#111111"/>
<path d="M61 57H62V58H61V57Z" fill="#111111" stroke="#111111"/>
<path d="M63 57H64V58H63V57Z" fill="#111111" stroke="#111111"/>
<path d="M52 59H53V60H52V59Z" fill="#111111" stroke="#111111"/>
<path d="M60 60H61V61H60V60Z" fill="#111111" stroke="#111111"/>
<path d="M64 60H65V61H64V60Z" fill="#111111" stroke="#111111"/>
<path d="M12 62H13V63H12V62Z" fill="#111111" stroke="#111111"/>
<path d="M15 62H16V63H15V62Z" fill="#111111" stroke="#111111"/>
<path d="M65 63H66V64H65V63Z" fill="#111111" stroke="#111111"/>
<path d="M69 67H70V68H69V67Z" fill="#111111" stroke="#111111"/>
<path d="M16 68H17V69H16V68Z" fill="#111111" stroke="#111111"/>
<path d="M71 68H72V69H71V68Z" fill="#111111" stroke="#111111"/>
<path d="M40 69H41V70H40V69Z" fill="#111111" stroke="#111111"/>
<path d="M24 71H25V72H24V71Z" fill="#111111" stroke="#111111"/>
<path d="M61 71H62V72H61V71Z" fill="#111111" stroke="#111111"/>
<path d="M22 72H23V73H22V72Z" fill="#111111" stroke="#111111"/>
<path d="M38 72H39V73H38V72Z" fill="#111111" stroke="#111111"/>
<path d="M2 73H3V74H2V73Z" fill="#111111" stroke="#111111"/>
<path d="M18 73H19V74H18V73Z" fill="#111111" stroke="#111111"/>
<path d="M3 75H4V76H3V75Z" fill="#111111" stroke="#111111"/>
<path d="M7 75H8V76H9V77H8V76H7V75Z" fill="#111111"/>
<path d="M8 76V75H7V76H8ZM8 76H9V77H8V76Z" stroke="#111111"/>
<path d="M76 75H77V76H76V75Z" fill="#111111" stroke="#111111"/>
<path d="M76 77H77V78H76V77Z" fill="#111111" stroke="#111111"/>
<path d="M9 79H10V80H9V79Z" fill="#111111" stroke="#111111"/>
<path d="M73 80H74V81H73V80Z" fill="#111111" stroke="#111111"/>
<path d="M17 81H18V82H17V81Z" fill="#111111" stroke="#111111"/>
<path d="M21 81H22V82H21V81Z" fill="#111111" stroke="#111111"/>
<path d="M57 82H58V83H57V82Z" fill="#111111" stroke="#111111"/>
<path d="M14 83H15V84H14V83Z" fill="#111111" stroke="#111111"/>
<path d="M65 83H66V84H65V83Z" fill="#111111" stroke="#111111"/>
<path d="M68 83H69V84H68V83Z" fill="#111111" stroke="#111111"/>
<path d="M21 84H22V85H21V84Z" fill="#111111" stroke="#111111"/>
<path d="M0 0H0.25H10.75H11V1H12V0H12.25H20.75H21V1H22V0H22.25H58.75H59V1H60V0H60.25H80.75H81V0.25V18.75V19H80V18.75V16.25V16H79C79 15.75 79 15.1667 79 14.25V14H78V12H77V11H76V9H75V8H73V7H72V6C71.75 6 71.1667 6 70.25 6H70V5H68V3H67V4H66V3H64V4H63.75H15.25H15V5H13V6H11V7H10V8H9V9H8V10H7V11H6V12H5V14H4V14.25V16.75V17H3V17.25V67.75V68H4V68.25V70.75V71H5V72H6V74H7V76H8V77C8.25 77 8.83333 77 9.75 77H10V78H12V79H13V80H13.25H15.75H16V81H17V82H18V81H18.25H20.75H21V82H22V81H22.25H66.75H67V80H67.25H69.75H70V79H72V78H73V77H74V76H75V75H76V74H77V73H78V71H79V69H80V68.75V20.25V20H81V20.25V84.75V85H80.75H22.25H22V84H21V85H20.75H0.25H0V84.75V0.25V0ZM18 1V2H19V1H18ZM20 1V2H21V1H20ZM19 2V3H20V2H19ZM72 2V3H73V2H72ZM11 4V5H13V4H11ZM7 6V7H9V6H7ZM6 7V8H7V7H6ZM1 12V13H2V12H1ZM1 19V20H2V19H1ZM2 73V74H3V73H2ZM3 75V76H4V75H3ZM76 75V76H77V75H76ZM76 77V78H77V77H76ZM9 79V80H10V79H9ZM73 80V81H74V80H73ZM57 82V83H58V82H57ZM14 83V84H15V83H14ZM65 83V84H66V83H65ZM68 83V84H69V83H68Z" fill="#121212"/>
<path d="M21 1V0H20.75H12.25H12V1H11V0H10.75H0.25H0V0.25V84.75V85H0.25H20.75H21V84H22V85H22.25H80.75H81V84.75V20.25V20H80V20.25V68.75V69H79V71H78V73H77V74H76V75M21 1H22V0H22.25H58.75H59V1H60V0H60.25H80.75H81V0.25V18.75V19H80V18.75V16.25V16H79C79 15.75 79 15.1667 79 14.25V14H78V12H77V11H76V9H75V8H73V7H72V6C71.75 6 71.1667 6 70.25 6H70V5H68V3H67V4H66V3H64V4H63.75H15.25H15V5H13M21 1V2H20M21 1H20V2M13 5V6H11V7H10V8H9V9H8V10H7V11H6V12H5V14H4V14.25V16.75V17H3V17.25V67.75V68H4V68.25V70.75V71H5V72H6V74H7V76H8V77C8.25 77 8.83333 77 9.75 77H10V78H12V79H13V80H13.25H15.75H16V81H17V82H18V81H18.25H20.75H21V82H22V81H22.25H66.75H67V80H67.25H69.75H70V79H72V78H73V77H74V76H75V75H76M13 5H11V4H13V5ZM76 75V76H77V75H76ZM19 2H18V1H19V2ZM19 2V3H20V2M19 2H20M7 7V6H9V7H7ZM7 7V8H6V7H7ZM72 2V3H73V2H72ZM1 12V13H2V12H1ZM1 19V20H2V19H1ZM2 73V74H3V73H2ZM3 75V76H4V75H3ZM76 77V78H77V77H76ZM9 79V80H10V79H9ZM73 80V81H74V80H73ZM57 82V83H58V82H57ZM14 83V84H15V83H14ZM65 83V84H66V83H65ZM68 83V84H69V83H68Z" stroke="#121212"/>
<path d="M17 4H17.25H66.75H67V5H67.25H69.75H70V6H71V7H73V8H74V9H75V10H76V11H77V13H78V15H79V15.25V17.75V18H80V18.25V66.75V67H79V67.25V69.75V70H78C78 70.25 78 70.8333 78 71.75V72H77V74H76V75H75V76H74V77H72V78H71V79H69V80H68.75H66.25H66V81H65.75H18.25H18V80H17.75H14.25H14V79H12V78H11V77H10V76H8V75H7V73H6V72H5V70H4V69.75V66.25V66H3V65.75V18.25V18H4V17.75V15.25V15H5V13H6V12H7V10H8V9H9V8H10V7H12V6H14V5H14.25H16.75H17V4ZM18 10V11H16V12C15 12 14.3333 12 14 12V13H13V14H12V15H11V17H10V17.5V20H9V20.5V65H10V65.5V68H11V70H12V71H13V72H14V73H16V74H16.5H19V75H19.5H28V10.5C28 10.1667 28 10 28 10H18.5H18ZM34 10V10.5V74H35V75H35.5H64V74H64.5H67V73H69V72H70V71H71V70H72V68H73V65.5V65H74V19.5V19H73V17H72V15H71V14H70V13H69V12H67V11H65V10H34.5H34Z" fill="#F9F9F9" stroke="#F9F9F9"/>
<path d="M53 30H53.25H56.75H57V31H58V32H59V33H60V34H61V35H62V36H63V37H64V38H65V39H66V40H67V40.25V43.75V44H66V45H65V46H64V47H63V48H62V49H61V51H60V52H59V53H58V54H57V55H56.75H53.25H53V54H52V53.75V50.25V50H53V49H54V48H55V47H56V46H55.75H44.25H44V45H42V44H41V43.75V41.25V41H42V40H43V39H43.25H55.75H56V38H55V37H54V36H53V35H52V34.75V31.25V31H53V30Z" fill="#F9F9F9" stroke="#F9F9F9"/>
</g>
<defs>
<clipPath id="clip0_2343_1158">
<rect width="81" height="85" fill="white"/>
</clipPath>
</defs>
</svg>
